<svg xmlns="http://www.w3.org/2000/svg" xmlns:xlink="http://www.w3.org/1999/xlink" width="100" zoomAndPan="magnify" viewBox="0 0 192 191.999996" height="100" preserveAspectRatio="xMidYMid meet" version="1.0"><defs><clipPath id="aab671856e"><path d="M 23 53.679688 L 51 53.679688 L 51 76 L 23 76 Z M 23 53.679688 " clip-rule="nonzero"/></clipPath><clipPath id="8feb47456e"><path d="M 146 53.679688 L 174 53.679688 L 174 76 L 146 76 Z M 146 53.679688 " clip-rule="nonzero"/></clipPath><clipPath id="1ed8091583"><path d="M 105 53.679688 L 133 53.679688 L 133 76 L 105 76 Z M 105 53.679688 " clip-rule="nonzero"/></clipPath><clipPath id="ca133655fa"><path d="M 64 53.679688 L 92 53.679688 L 92 76 L 64 76 Z M 64 53.679688 " clip-rule="nonzero"/></clipPath><clipPath id="d9a9dcc377"><path d="M 13.519531 68 L 183.769531 68 L 183.769531 138.429688 L 13.519531 138.429688 Z M 13.519531 68 " clip-rule="nonzero"/></clipPath></defs><path fill="#004aad" d="M 49.257812 74.097656 L 24.980469 74.097656 L 24.980469 59.011719 L 25.109375 58.003906 L 25.496094 57.070312 L 26.113281 56.265625 L 26.917969 55.652344 L 27.851562 55.261719 L 28.855469 55.132812 L 45.378906 55.132812 L 46.382812 55.265625 L 47.320312 55.652344 L 48.121094 56.269531 L 48.738281 57.070312 L 49.125 58.003906 L 49.257812 59.011719 Z M 49.257812 74.097656 " fill-opacity="1" fill-rule="nonzero"/><g clip-path="url(#aab671856e)"><path fill="#065cd0" d="M 49.257812 75.554688 L 24.980469 75.554688 L 23.523438 74.097656 L 23.535156 58.820312 L 23.667969 57.816406 L 23.765625 57.449219 L 24.15625 56.515625 L 24.34375 56.183594 L 24.960938 55.382812 L 25.230469 55.113281 L 26.03125 54.5 L 26.359375 54.308594 L 27.296875 53.921875 L 27.664062 53.820312 L 28.855469 53.679688 L 45.566406 53.691406 L 46.570312 53.820312 L 46.941406 53.921875 L 47.878906 54.308594 L 48.207031 54.5 L 49.007812 55.113281 L 49.273438 55.382812 L 49.890625 56.183594 L 50.082031 56.515625 L 50.46875 57.449219 L 50.566406 57.816406 L 50.710938 59.011719 L 50.710938 74.097656 Z M 26.433594 72.644531 L 47.800781 72.644531 L 47.800781 59.105469 L 47.707031 58.386719 L 47.46875 57.804688 L 47.082031 57.304688 L 46.582031 56.921875 L 46.003906 56.679688 L 45.285156 56.585938 L 28.949219 56.585938 L 28.230469 56.679688 L 27.652344 56.921875 L 27.152344 57.304688 L 26.769531 57.804688 L 26.527344 58.386719 L 26.433594 59.105469 Z M 26.433594 72.644531 " fill-opacity="1" fill-rule="nonzero"/></g><path fill="#004aad" d="M 172.167969 74.097656 L 147.886719 74.097656 L 147.886719 59.011719 L 148.019531 58.003906 L 148.40625 57.070312 L 149.023438 56.265625 L 149.824219 55.652344 L 150.761719 55.261719 L 151.765625 55.132812 L 168.289062 55.132812 L 169.292969 55.265625 L 170.226562 55.652344 L 171.03125 56.269531 L 171.648438 57.070312 L 172.035156 58.003906 L 172.164062 59.011719 L 172.164062 71.582031 Z M 172.167969 74.097656 " fill-opacity="1" fill-rule="nonzero"/><g clip-path="url(#8feb47456e)"><path fill="#065cd0" d="M 172.167969 75.554688 L 147.886719 75.554688 L 146.433594 74.097656 L 146.445312 58.820312 L 146.578125 57.816406 L 146.675781 57.449219 L 147.0625 56.515625 L 147.253906 56.183594 L 147.871094 55.382812 L 148.136719 55.113281 L 148.941406 54.5 L 149.269531 54.308594 L 150.207031 53.921875 L 150.574219 53.820312 L 151.765625 53.679688 L 168.476562 53.691406 L 169.480469 53.820312 L 169.851562 53.921875 L 170.785156 54.308594 L 171.113281 54.5 L 171.917969 55.113281 L 172.183594 55.382812 L 172.800781 56.183594 L 172.992188 56.515625 L 173.378906 57.449219 L 173.476562 57.816406 L 173.621094 59.011719 L 173.621094 74.097656 Z M 149.34375 72.644531 L 170.710938 72.644531 L 170.710938 59.105469 L 170.617188 58.386719 L 170.378906 57.804688 L 169.992188 57.304688 L 169.492188 56.921875 L 168.914062 56.679688 L 168.191406 56.585938 L 151.859375 56.585938 L 151.140625 56.679688 L 150.558594 56.921875 L 150.0625 57.304688 L 149.675781 57.804688 L 149.4375 58.386719 L 149.34375 59.105469 Z M 149.34375 72.644531 " fill-opacity="1" fill-rule="nonzero"/></g><path fill="#004aad" d="M 131.195312 74.097656 L 106.917969 74.097656 L 106.917969 59.011719 L 107.050781 58.003906 L 107.4375 57.070312 L 108.054688 56.265625 L 108.855469 55.652344 L 109.792969 55.261719 L 110.796875 55.132812 L 127.320312 55.132812 L 128.324219 55.265625 L 129.257812 55.652344 L 130.0625 56.269531 L 130.675781 57.070312 L 131.066406 58.003906 L 131.195312 59.011719 Z M 131.195312 74.097656 " fill-opacity="1" fill-rule="nonzero"/><g clip-path="url(#1ed8091583)"><path fill="#065cd0" d="M 131.195312 75.554688 L 106.917969 75.554688 L 105.464844 74.097656 L 105.476562 58.820312 L 105.609375 57.816406 L 105.707031 57.449219 L 106.09375 56.515625 L 106.285156 56.183594 L 106.902344 55.382812 L 107.167969 55.113281 L 107.972656 54.5 L 108.300781 54.308594 L 109.234375 53.921875 L 109.605469 53.820312 L 110.796875 53.679688 L 127.507812 53.691406 L 128.511719 53.820312 L 128.882812 53.921875 L 129.816406 54.308594 L 130.144531 54.5 L 130.949219 55.113281 L 131.214844 55.382812 L 131.832031 56.183594 L 132.019531 56.515625 L 132.410156 57.449219 L 132.507812 57.816406 L 132.652344 59.011719 L 132.652344 74.097656 Z M 108.371094 72.644531 L 129.742188 72.644531 L 129.742188 59.105469 L 129.648438 58.386719 L 129.40625 57.804688 L 129.023438 57.304688 L 128.523438 56.921875 L 127.941406 56.679688 L 127.222656 56.585938 L 110.890625 56.585938 L 110.171875 56.679688 L 109.589844 56.921875 L 109.09375 57.304688 L 108.707031 57.804688 L 108.46875 58.386719 L 108.375 59.105469 L 108.375 72.644531 Z M 108.371094 72.644531 " fill-opacity="1" fill-rule="nonzero"/></g><path fill="#004aad" d="M 90.226562 74.097656 L 65.949219 74.097656 L 65.949219 59.011719 L 66.078125 58.003906 L 66.46875 57.070312 L 67.085938 56.265625 L 67.886719 55.652344 L 68.820312 55.261719 L 69.828125 55.132812 L 86.347656 55.132812 L 87.351562 55.265625 L 88.289062 55.652344 L 89.089844 56.269531 L 89.707031 57.070312 L 90.09375 58.003906 L 90.226562 59.011719 Z M 90.226562 74.097656 " fill-opacity="1" fill-rule="nonzero"/><g clip-path="url(#ca133655fa)"><path fill="#065cd0" d="M 90.226562 75.554688 L 65.949219 75.554688 L 64.496094 74.097656 L 64.507812 58.820312 L 64.636719 57.816406 L 64.738281 57.449219 L 65.125 56.515625 L 65.3125 56.183594 L 65.929688 55.382812 L 66.199219 55.113281 L 67 54.5 L 67.328125 54.308594 L 68.265625 53.921875 L 68.632812 53.820312 L 69.828125 53.679688 L 86.539062 53.691406 L 87.542969 53.820312 L 87.910156 53.921875 L 88.847656 54.308594 L 89.175781 54.5 L 89.976562 55.113281 L 90.246094 55.382812 L 90.863281 56.183594 L 91.050781 56.515625 L 91.4375 57.449219 L 91.539062 57.816406 L 91.679688 59.011719 L 91.679688 74.097656 Z M 67.402344 72.644531 L 88.773438 72.644531 L 88.773438 59.105469 L 88.679688 58.386719 L 88.4375 57.804688 L 88.054688 57.304688 L 87.554688 56.921875 L 86.972656 56.679688 L 86.253906 56.585938 L 69.921875 56.585938 L 69.199219 56.679688 L 68.621094 56.921875 L 68.121094 57.304688 L 67.738281 57.804688 L 67.496094 58.382812 L 67.402344 59.105469 Z M 67.402344 72.644531 " fill-opacity="1" fill-rule="nonzero"/></g><path fill="#004aad" d="M 15.117188 69.546875 L 182.027344 69.546875 L 182.027344 136.820312 L 15.117188 136.820312 Z M 15.117188 69.546875 " fill-opacity="1" fill-rule="nonzero"/><g clip-path="url(#d9a9dcc377)"><path fill="#065cd0" d="M 182.027344 138.273438 L 15.117188 138.273438 L 13.660156 136.820312 L 13.660156 69.546875 L 15.117188 68.09375 L 182.027344 68.09375 L 183.484375 69.546875 L 183.484375 136.820312 Z M 16.570312 135.363281 L 180.574219 135.363281 L 180.574219 71.003906 L 16.570312 71.003906 Z M 16.570312 135.363281 " fill-opacity="1" fill-rule="nonzero"/></g></svg>