<svg xmlns="http://www.w3.org/2000/svg" xmlns:xlink="http://www.w3.org/1999/xlink" width="100" zoomAndPan="magnify" viewBox="0 0 192 191.999996" height="100" preserveAspectRatio="xMidYMid meet" version="1.0"><defs><clipPath id="1f691f221b"><path d="M 109 39.269531 L 153 39.269531 L 153 74 L 109 74 Z M 109 39.269531 " clip-rule="nonzero"/></clipPath><clipPath id="65273f5057"><path d="M 39 39.269531 L 83 39.269531 L 83 74 L 39 74 Z M 39 39.269531 " clip-rule="nonzero"/></clipPath><clipPath id="cfe87e95a4"><path d="M 25.441406 62 L 166.441406 62 L 166.441406 172.769531 L 25.441406 172.769531 Z M 25.441406 62 " clip-rule="nonzero"/></clipPath></defs><path fill="#004aad" d="M 149.871094 71.488281 L 111.570312 71.488281 L 111.570312 47.679688 L 111.777344 46.097656 L 112.386719 44.621094 L 113.363281 43.355469 L 114.625 42.382812 L 116.101562 41.769531 L 117.6875 41.5625 L 143.753906 41.5625 L 145.339844 41.769531 L 146.8125 42.382812 L 148.082031 43.355469 L 149.054688 44.621094 L 149.664062 46.097656 L 149.871094 47.679688 Z M 149.871094 71.488281 " fill-opacity="1" fill-rule="nonzero"/><g clip-path="url(#1f691f221b)"><path fill="#0662dd" d="M 149.871094 73.78125 L 111.570312 73.78125 L 109.273438 71.488281 L 109.292969 47.382812 L 109.5 45.796875 L 109.65625 45.214844 L 110.269531 43.742188 L 110.570312 43.222656 L 111.542969 41.957031 L 111.964844 41.535156 L 113.230469 40.5625 L 113.75 40.265625 L 115.222656 39.652344 L 115.804688 39.496094 L 117.6875 39.269531 L 144.050781 39.289062 L 145.636719 39.496094 L 146.21875 39.652344 L 147.695312 40.265625 L 148.214844 40.566406 L 149.480469 41.539062 L 149.902344 41.960938 L 150.875 43.226562 L 151.171875 43.746094 L 151.785156 45.222656 L 151.941406 45.804688 L 152.167969 47.679688 L 152.167969 71.488281 Z M 113.863281 69.191406 L 147.578125 69.191406 L 147.578125 47.828125 L 147.429688 46.695312 L 147.050781 45.777344 L 146.445312 44.988281 L 145.65625 44.382812 L 144.742188 44.003906 L 143.605469 43.855469 L 117.835938 43.855469 L 116.699219 44.003906 L 115.785156 44.386719 L 114.996094 44.992188 L 114.390625 45.78125 L 114.011719 46.695312 L 113.863281 47.828125 Z M 113.863281 69.191406 " fill-opacity="1" fill-rule="nonzero"/></g><path fill="#004aad" d="M 80.449219 71.488281 L 42.144531 71.488281 L 42.144531 47.679688 L 42.351562 46.097656 L 42.960938 44.621094 L 43.9375 43.355469 L 45.203125 42.382812 L 46.679688 41.769531 L 48.261719 41.5625 L 74.328125 41.5625 L 75.914062 41.769531 L 77.390625 42.382812 L 78.65625 43.355469 L 79.628906 44.621094 L 80.238281 46.097656 L 80.449219 47.679688 Z M 80.449219 71.488281 " fill-opacity="1" fill-rule="nonzero"/><g clip-path="url(#65273f5057)"><path fill="#0662dd" d="M 80.449219 73.78125 L 42.144531 73.78125 L 39.847656 71.488281 L 39.867188 47.382812 L 40.078125 45.796875 L 40.234375 45.214844 L 40.84375 43.742188 L 41.144531 43.222656 L 42.117188 41.957031 L 42.539062 41.535156 L 43.804688 40.5625 L 44.324219 40.261719 L 45.800781 39.652344 L 46.382812 39.496094 L 48.261719 39.269531 L 74.628906 39.285156 L 76.210938 39.496094 L 76.792969 39.652344 L 78.269531 40.261719 L 78.789062 40.5625 L 80.054688 41.539062 L 80.476562 41.957031 L 81.449219 43.226562 L 81.75 43.746094 L 82.359375 45.222656 L 82.515625 45.800781 L 82.742188 47.679688 L 82.742188 71.488281 Z M 44.4375 69.191406 L 78.152344 69.191406 L 78.152344 47.828125 L 78.003906 46.695312 L 77.625 45.78125 L 77.019531 44.988281 L 76.230469 44.382812 L 75.316406 44.003906 L 74.179688 43.855469 L 48.410156 43.855469 L 47.277344 44.003906 L 46.359375 44.386719 L 45.570312 44.992188 L 44.964844 45.78125 L 44.585938 46.695312 L 44.4375 47.832031 Z M 44.4375 69.191406 " fill-opacity="1" fill-rule="nonzero"/></g><path fill="#004aad" d="M 27.78125 64.304688 L 164.234375 64.304688 L 164.234375 170.4375 L 27.78125 170.4375 Z M 27.78125 64.304688 " fill-opacity="1" fill-rule="nonzero"/><g clip-path="url(#cfe87e95a4)"><path fill="#0662dd" d="M 164.234375 172.730469 L 27.78125 172.730469 L 25.484375 170.4375 L 25.484375 64.304688 L 27.78125 62.011719 L 164.234375 62.011719 L 166.53125 64.304688 L 166.53125 170.4375 Z M 30.074219 168.144531 L 161.941406 168.144531 L 161.941406 66.597656 L 30.074219 66.597656 Z M 30.074219 168.144531 " fill-opacity="1" fill-rule="nonzero"/></g></svg>