<svg xmlns="http://www.w3.org/2000/svg" xmlns:xlink="http://www.w3.org/1999/xlink" width="100" zoomAndPan="magnify" viewBox="0 0 192 191.999996" height="100" preserveAspectRatio="xMidYMid meet" version="1.0"><defs><clipPath id="6af6537ed7"><path d="M 51 90.417969 L 146.507812 90.417969 L 146.507812 101.667969 L 51 101.667969 Z M 51 90.417969 " clip-rule="nonzero"/></clipPath><clipPath id="fa3dfe9426"><path d="M 45.257812 91 L 56 91 L 56 101.667969 L 45.257812 101.667969 Z M 45.257812 91 " clip-rule="nonzero"/></clipPath><clipPath id="0f0e63fa40"><path d="M 45.257812 90.417969 L 56 90.417969 L 56 101.667969 L 45.257812 101.667969 Z M 45.257812 90.417969 " clip-rule="nonzero"/></clipPath></defs><g clip-path="url(#6af6537ed7)"><path fill="#000000" d="M 146.269531 96.097656 L 137.957031 91.191406 L 137.957031 91.242188 C 137.121094 90.726562 136.148438 90.429688 135.097656 90.429688 C 133.761719 90.417969 132.523438 90.894531 131.5625 91.6875 C 130.15625 92.839844 128.476562 93.574219 126.699219 93.863281 L 51.535156 93.863281 L 51.535156 98.132812 L 126.628906 98.132812 C 128.417969 98.441406 130.117188 99.195312 131.523438 100.367188 C 132.476562 101.171875 133.703125 101.660156 135.039062 101.660156 C 136.089844 101.667969 137.0625 101.378906 137.910156 100.875 L 137.910156 100.921875 Z M 146.269531 96.097656 " fill-opacity="1" fill-rule="nonzero"/></g><g clip-path="url(#fa3dfe9426)"><path fill="#000000" d="M 55.464844 96.039062 C 55.464844 96.363281 55.433594 96.6875 55.371094 97.007812 C 55.308594 97.328125 55.214844 97.636719 55.09375 97.9375 C 54.96875 98.238281 54.816406 98.527344 54.636719 98.796875 C 54.460938 99.066406 54.253906 99.320312 54.027344 99.550781 C 53.800781 99.78125 53.550781 99.984375 53.285156 100.167969 C 53.015625 100.347656 52.730469 100.5 52.433594 100.625 C 52.136719 100.75 51.828125 100.84375 51.511719 100.90625 C 51.195312 100.972656 50.878906 101.003906 50.554688 101.003906 C 50.230469 101.003906 49.914062 100.972656 49.597656 100.90625 C 49.28125 100.84375 48.972656 100.75 48.675781 100.625 C 48.375 100.5 48.09375 100.347656 47.824219 100.167969 C 47.558594 99.984375 47.308594 99.78125 47.082031 99.550781 C 46.851562 99.320312 46.648438 99.066406 46.46875 98.796875 C 46.292969 98.527344 46.140625 98.238281 46.015625 97.9375 C 45.894531 97.636719 45.800781 97.328125 45.738281 97.007812 C 45.675781 96.6875 45.640625 96.363281 45.640625 96.039062 C 45.640625 95.710938 45.675781 95.390625 45.738281 95.070312 C 45.800781 94.75 45.894531 94.441406 46.015625 94.136719 C 46.140625 93.835938 46.292969 93.550781 46.46875 93.28125 C 46.648438 93.007812 46.851562 92.757812 47.082031 92.527344 C 47.308594 92.296875 47.558594 92.089844 47.824219 91.910156 C 48.09375 91.730469 48.375 91.578125 48.675781 91.453125 C 48.972656 91.328125 49.28125 91.234375 49.597656 91.167969 C 49.914062 91.105469 50.230469 91.074219 50.554688 91.074219 C 50.878906 91.074219 51.195312 91.105469 51.511719 91.167969 C 51.828125 91.234375 52.136719 91.328125 52.433594 91.453125 C 52.730469 91.578125 53.015625 91.730469 53.285156 91.910156 C 53.550781 92.089844 53.800781 92.296875 54.027344 92.527344 C 54.253906 92.757812 54.460938 93.007812 54.636719 93.28125 C 54.816406 93.550781 54.96875 93.835938 55.09375 94.136719 C 55.214844 94.441406 55.308594 94.75 55.371094 95.070312 C 55.433594 95.390625 55.464844 95.710938 55.464844 96.039062 Z M 55.464844 96.039062 " fill-opacity="1" fill-rule="nonzero"/></g><g clip-path="url(#0f0e63fa40)"><path fill="#ffffff" d="M 50.554688 101.152344 C 47.765625 101.152344 45.496094 98.859375 45.496094 96.039062 C 45.496094 93.21875 47.765625 90.925781 50.554688 90.925781 C 53.34375 90.925781 55.613281 93.21875 55.613281 96.039062 C 55.613281 98.859375 53.34375 101.152344 50.554688 101.152344 Z M 50.554688 91.222656 C 47.929688 91.222656 45.789062 93.386719 45.789062 96.039062 C 45.789062 98.691406 47.929688 100.855469 50.554688 100.855469 C 53.175781 100.855469 55.320312 98.691406 55.320312 96.039062 C 55.320312 93.386719 53.175781 91.222656 50.554688 91.222656 Z M 50.554688 91.222656 " fill-opacity="1" fill-rule="nonzero"/></g><path fill="#000000" d="M 53.011719 96.039062 C 53.011719 96.367188 52.949219 96.683594 52.824219 96.988281 C 52.699219 97.292969 52.519531 97.5625 52.292969 97.792969 C 52.0625 98.027344 51.796875 98.207031 51.496094 98.332031 C 51.195312 98.457031 50.878906 98.519531 50.554688 98.519531 C 50.230469 98.519531 49.914062 98.457031 49.613281 98.332031 C 49.3125 98.207031 49.046875 98.027344 48.816406 97.792969 C 48.585938 97.5625 48.410156 97.292969 48.285156 96.988281 C 48.160156 96.683594 48.097656 96.367188 48.097656 96.039062 C 48.097656 95.710938 48.160156 95.390625 48.285156 95.089844 C 48.410156 94.785156 48.585938 94.515625 48.816406 94.28125 C 49.046875 94.050781 49.3125 93.871094 49.613281 93.746094 C 49.914062 93.617188 50.230469 93.554688 50.554688 93.554688 C 50.878906 93.554688 51.195312 93.617188 51.496094 93.746094 C 51.796875 93.871094 52.0625 94.050781 52.292969 94.28125 C 52.519531 94.515625 52.699219 94.785156 52.824219 95.089844 C 52.949219 95.390625 53.011719 95.710938 53.011719 96.039062 Z M 53.011719 96.039062 " fill-opacity="1" fill-rule="nonzero"/><path fill="#ffffff" d="M 50.554688 98.667969 C 49.121094 98.667969 47.949219 97.488281 47.949219 96.039062 C 47.949219 94.589844 49.121094 93.40625 50.554688 93.40625 C 51.988281 93.40625 53.15625 94.589844 53.15625 96.039062 C 53.15625 97.488281 51.988281 98.667969 50.554688 98.667969 Z M 50.554688 93.703125 C 49.277344 93.703125 48.246094 94.746094 48.246094 96.039062 C 48.246094 97.328125 49.277344 98.371094 50.554688 98.371094 C 51.832031 98.371094 52.863281 97.328125 52.863281 96.039062 C 52.863281 94.746094 51.820312 93.703125 50.554688 93.703125 Z M 50.554688 93.703125 " fill-opacity="1" fill-rule="nonzero"/></svg>