<svg xmlns="http://www.w3.org/2000/svg" xmlns:xlink="http://www.w3.org/1999/xlink" width="100" zoomAndPan="magnify" viewBox="0 0 192 191.999996" height="100" preserveAspectRatio="xMidYMid meet" version="1.0"><defs><clipPath id="8927ee6220"><path d="M 94 168 L 97 168 L 97 179.867188 L 94 179.867188 Z M 94 168 " clip-rule="nonzero"/></clipPath><clipPath id="abcd4e7a89"><path d="M 168 95 L 179.867188 95 L 179.867188 97 L 168 97 Z M 168 95 " clip-rule="nonzero"/></clipPath><clipPath id="757e23a723"><path d="M 11.867188 11.867188 L 179.867188 11.867188 L 179.867188 179.867188 L 11.867188 179.867188 Z M 11.867188 11.867188 " clip-rule="nonzero"/></clipPath></defs><path fill="#000000" d="M 86.726562 13.089844 L 87.542969 13.003906 L 88.320312 20.359375 L 87.503906 20.445312 Z M 86.726562 13.089844 " fill-opacity="1" fill-rule="nonzero"/><path fill="#000000" d="M 78.136719 14.5 L 78.941406 14.328125 L 80.476562 21.566406 L 79.675781 21.734375 Z M 78.136719 14.5 " fill-opacity="1" fill-rule="nonzero"/><path fill="#000000" d="M 69.738281 16.800781 L 70.523438 16.546875 L 72.808594 23.582031 L 72.023438 23.835938 Z M 69.738281 16.800781 " fill-opacity="1" fill-rule="nonzero"/><path fill="#000000" d="M 61.601562 19.972656 L 62.351562 19.636719 L 65.363281 26.394531 L 64.609375 26.730469 Z M 61.601562 19.972656 " fill-opacity="1" fill-rule="nonzero"/><path fill="#000000" d="M 46.574219 28.738281 L 47.238281 28.253906 L 51.585938 34.238281 L 50.921875 34.722656 Z M 46.574219 28.738281 " fill-opacity="1" fill-rule="nonzero"/><path fill="#000000" d="M 39.816406 34.261719 L 40.425781 33.714844 L 45.375 39.210938 L 44.765625 39.761719 Z M 39.816406 34.261719 " fill-opacity="1" fill-rule="nonzero"/><path fill="#000000" d="M 33.707031 40.457031 L 34.257812 39.847656 L 39.753906 44.796875 L 39.203125 45.410156 Z M 33.707031 40.457031 " fill-opacity="1" fill-rule="nonzero"/><path fill="#000000" d="M 28.242188 47.242188 L 28.726562 46.578125 L 34.710938 50.925781 L 34.226562 51.589844 Z M 28.242188 47.242188 " fill-opacity="1" fill-rule="nonzero"/><path fill="#000000" d="M 19.632812 62.367188 L 19.96875 61.613281 L 26.726562 64.625 L 26.390625 65.375 Z M 19.632812 62.367188 " fill-opacity="1" fill-rule="nonzero"/><path fill="#000000" d="M 16.535156 70.535156 L 16.789062 69.753906 L 23.824219 72.039062 L 23.570312 72.820312 Z M 16.535156 70.535156 " fill-opacity="1" fill-rule="nonzero"/><path fill="#000000" d="M 14.3125 78.945312 L 14.484375 78.140625 L 21.71875 79.679688 L 21.546875 80.484375 Z M 14.3125 78.945312 " fill-opacity="1" fill-rule="nonzero"/><path fill="#000000" d="M 13.015625 87.566406 L 13.101562 86.75 L 20.457031 87.519531 L 20.371094 88.339844 Z M 13.015625 87.566406 " fill-opacity="1" fill-rule="nonzero"/><path fill="#000000" d="M 12.996094 104.152344 L 20.355469 103.378906 L 20.441406 104.195312 L 13.082031 104.972656 Z M 12.996094 104.152344 " fill-opacity="1" fill-rule="nonzero"/><path fill="#000000" d="M 14.324219 112.761719 L 21.558594 111.222656 L 21.730469 112.027344 L 14.496094 113.566406 Z M 14.324219 112.761719 " fill-opacity="1" fill-rule="nonzero"/><path fill="#000000" d="M 16.539062 121.183594 L 23.574219 118.898438 L 23.828125 119.679688 L 16.792969 121.964844 Z M 16.539062 121.183594 " fill-opacity="1" fill-rule="nonzero"/><path fill="#000000" d="M 19.625 129.351562 L 26.382812 126.34375 L 26.71875 127.09375 L 19.960938 130.101562 Z M 19.625 129.351562 " fill-opacity="1" fill-rule="nonzero"/><path fill="#000000" d="M 28.25 144.460938 L 34.234375 140.113281 L 34.714844 140.777344 L 28.730469 145.128906 Z M 28.25 144.460938 " fill-opacity="1" fill-rule="nonzero"/><path fill="#000000" d="M 33.695312 151.28125 L 39.191406 146.332031 L 39.742188 146.945312 L 34.246094 151.894531 Z M 33.695312 151.28125 " fill-opacity="1" fill-rule="nonzero"/><path fill="#000000" d="M 39.839844 157.445312 L 44.789062 151.949219 L 45.398438 152.5 L 40.449219 157.996094 Z M 39.839844 157.445312 " fill-opacity="1" fill-rule="nonzero"/><path fill="#000000" d="M 46.5625 162.980469 L 50.910156 156.996094 L 51.574219 157.480469 L 47.226562 163.464844 Z M 46.5625 162.980469 " fill-opacity="1" fill-rule="nonzero"/><path fill="#000000" d="M 61.621094 171.757812 L 64.628906 165 L 65.378906 165.332031 L 62.371094 172.089844 Z M 61.621094 171.757812 " fill-opacity="1" fill-rule="nonzero"/><path fill="#000000" d="M 69.746094 174.921875 L 72.03125 167.886719 L 72.8125 168.140625 L 70.527344 175.175781 Z M 69.746094 174.921875 " fill-opacity="1" fill-rule="nonzero"/><path fill="#000000" d="M 78.117188 177.238281 L 79.65625 170.003906 L 80.460938 170.171875 L 78.921875 177.410156 Z M 78.117188 177.238281 " fill-opacity="1" fill-rule="nonzero"/><path fill="#000000" d="M 86.730469 178.617188 L 87.503906 171.261719 L 88.320312 171.347656 L 87.546875 178.703125 Z M 86.730469 178.617188 " fill-opacity="1" fill-rule="nonzero"/><path fill="#000000" d="M 103.375 171.375 L 104.191406 171.289062 L 104.96875 178.644531 L 104.148438 178.730469 Z M 103.375 171.375 " fill-opacity="1" fill-rule="nonzero"/><path fill="#000000" d="M 111.226562 170.171875 L 112.027344 170 L 113.566406 177.238281 L 112.761719 177.40625 Z M 111.226562 170.171875 " fill-opacity="1" fill-rule="nonzero"/><path fill="#000000" d="M 118.898438 168.15625 L 119.679688 167.902344 L 121.964844 174.9375 L 121.183594 175.191406 Z M 118.898438 168.15625 " fill-opacity="1" fill-rule="nonzero"/><path fill="#000000" d="M 126.34375 165.351562 L 127.09375 165.015625 L 130.101562 171.773438 L 129.351562 172.109375 Z M 126.34375 165.351562 " fill-opacity="1" fill-rule="nonzero"/><path fill="#000000" d="M 140.125 157.492188 L 140.789062 157.011719 L 145.136719 162.996094 L 144.472656 163.476562 Z M 140.125 157.492188 " fill-opacity="1" fill-rule="nonzero"/><path fill="#000000" d="M 146.335938 152.535156 L 146.945312 151.984375 L 151.894531 157.484375 L 151.285156 158.03125 Z M 146.335938 152.535156 " fill-opacity="1" fill-rule="nonzero"/><path fill="#000000" d="M 151.960938 146.953125 L 152.511719 146.339844 L 158.007812 151.289062 L 157.457031 151.902344 Z M 151.960938 146.953125 " fill-opacity="1" fill-rule="nonzero"/><path fill="#000000" d="M 156.984375 140.800781 L 157.46875 140.136719 L 163.453125 144.484375 L 162.96875 145.148438 Z M 156.984375 140.800781 " fill-opacity="1" fill-rule="nonzero"/><path fill="#000000" d="M 165.007812 127.097656 L 165.339844 126.347656 L 172.097656 129.355469 L 171.761719 130.105469 Z M 165.007812 127.097656 " fill-opacity="1" fill-rule="nonzero"/><path fill="#000000" d="M 167.902344 119.683594 L 168.15625 118.898438 L 175.191406 121.1875 L 174.9375 121.96875 Z M 167.902344 119.683594 " fill-opacity="1" fill-rule="nonzero"/><path fill="#000000" d="M 169.976562 112.066406 L 170.148438 111.261719 L 177.382812 112.796875 L 177.214844 113.601562 Z M 169.976562 112.066406 " fill-opacity="1" fill-rule="nonzero"/><path fill="#000000" d="M 171.265625 104.210938 L 171.351562 103.394531 L 178.707031 104.167969 L 178.621094 104.984375 Z M 171.265625 104.210938 " fill-opacity="1" fill-rule="nonzero"/><path fill="#000000" d="M 171.28125 87.503906 L 178.636719 86.730469 L 178.722656 87.546875 L 171.367188 88.324219 Z M 171.28125 87.503906 " fill-opacity="1" fill-rule="nonzero"/><path fill="#000000" d="M 169.996094 79.671875 L 177.230469 78.136719 L 177.402344 78.941406 L 170.167969 80.476562 Z M 169.996094 79.671875 " fill-opacity="1" fill-rule="nonzero"/><path fill="#000000" d="M 167.894531 72.023438 L 174.929688 69.738281 L 175.183594 70.519531 L 168.148438 72.804688 Z M 167.894531 72.023438 " fill-opacity="1" fill-rule="nonzero"/><path fill="#000000" d="M 165.003906 64.613281 L 171.761719 61.601562 L 172.097656 62.355469 L 165.339844 65.363281 Z M 165.003906 64.613281 " fill-opacity="1" fill-rule="nonzero"/><path fill="#000000" d="M 157.003906 50.910156 L 162.988281 46.5625 L 163.46875 47.226562 L 157.484375 51.574219 Z M 157.003906 50.910156 " fill-opacity="1" fill-rule="nonzero"/><path fill="#000000" d="M 151.96875 44.761719 L 157.464844 39.8125 L 158.015625 40.421875 L 152.519531 45.371094 Z M 151.96875 44.761719 " fill-opacity="1" fill-rule="nonzero"/><path fill="#000000" d="M 146.324219 39.199219 L 151.273438 33.703125 L 151.882812 34.253906 L 146.933594 39.75 Z M 146.324219 39.199219 " fill-opacity="1" fill-rule="nonzero"/><path fill="#000000" d="M 140.117188 34.242188 L 144.464844 28.257812 L 145.132812 28.742188 L 140.785156 34.722656 Z M 140.117188 34.242188 " fill-opacity="1" fill-rule="nonzero"/><path fill="#000000" d="M 126.34375 26.375 L 129.351562 19.617188 L 130.105469 19.953125 L 127.097656 26.710938 Z M 126.34375 26.375 " fill-opacity="1" fill-rule="nonzero"/><path fill="#000000" d="M 118.890625 23.546875 L 121.179688 16.511719 L 121.960938 16.765625 L 119.675781 23.800781 Z M 118.890625 23.546875 " fill-opacity="1" fill-rule="nonzero"/><path fill="#000000" d="M 111.234375 21.570312 L 112.773438 14.335938 L 113.578125 14.507812 L 112.039062 21.742188 Z M 111.234375 21.570312 " fill-opacity="1" fill-rule="nonzero"/><path fill="#000000" d="M 103.375 20.359375 L 104.148438 13.003906 L 104.964844 13.089844 L 104.191406 20.445312 Z M 103.375 20.359375 " fill-opacity="1" fill-rule="nonzero"/><path fill="#000000" d="M 99.917969 94.9375 C 99.976562 95.191406 100.011719 95.445312 100.019531 95.707031 C 100.027344 95.964844 100.011719 96.222656 99.972656 96.480469 C 99.929688 96.738281 99.863281 96.988281 99.773438 97.230469 C 99.683594 97.472656 99.566406 97.707031 99.429688 97.925781 C 99.296875 98.148438 99.136719 98.355469 98.960938 98.542969 C 98.785156 98.734375 98.589844 98.90625 98.378906 99.058594 C 98.167969 99.210938 97.945312 99.339844 97.707031 99.445312 C 97.472656 99.554688 97.226562 99.640625 96.976562 99.699219 C 96.722656 99.757812 96.464844 99.792969 96.207031 99.800781 C 95.945312 99.8125 95.6875 99.796875 95.429688 99.753906 C 95.175781 99.710938 94.925781 99.644531 94.683594 99.554688 C 94.4375 99.464844 94.207031 99.351562 93.984375 99.214844 C 93.765625 99.078125 93.558594 98.921875 93.367188 98.742188 C 93.179688 98.566406 93.007812 98.371094 92.855469 98.160156 C 92.703125 97.949219 92.574219 97.726562 92.464844 97.492188 C 92.359375 97.253906 92.273438 97.007812 92.214844 96.757812 C 92.152344 96.503906 92.121094 96.246094 92.109375 95.988281 C 92.101562 95.726562 92.117188 95.46875 92.160156 95.214844 C 92.199219 94.957031 92.265625 94.707031 92.359375 94.464844 C 92.449219 94.21875 92.5625 93.988281 92.699219 93.765625 C 92.835938 93.546875 92.992188 93.339844 93.167969 93.148438 C 93.347656 92.960938 93.539062 92.789062 93.75 92.636719 C 93.960938 92.484375 94.183594 92.355469 94.421875 92.246094 C 94.660156 92.140625 94.902344 92.054688 95.15625 91.996094 C 95.410156 91.9375 95.664062 91.902344 95.925781 91.894531 C 96.183594 91.882812 96.441406 91.898438 96.699219 91.941406 C 96.957031 91.984375 97.207031 92.050781 97.449219 92.140625 C 97.691406 92.230469 97.925781 92.34375 98.144531 92.480469 C 98.367188 92.617188 98.570312 92.773438 98.761719 92.953125 C 98.953125 93.128906 99.125 93.324219 99.273438 93.535156 C 99.425781 93.742188 99.558594 93.96875 99.664062 94.203125 C 99.773438 94.441406 99.855469 94.683594 99.917969 94.9375 Z M 99.917969 94.9375 " fill-opacity="1" fill-rule="nonzero"/><path fill="#231f20" d="M 95.242188 12.71875 L 96.917969 12.71875 L 96.917969 23.34375 L 95.242188 23.34375 Z M 95.242188 12.71875 " fill-opacity="1" fill-rule="nonzero"/><path fill="#231f20" d="M 53.734375 24.171875 L 55.183594 23.335938 L 60.496094 32.535156 L 59.046875 33.371094 Z M 53.734375 24.171875 " fill-opacity="1" fill-rule="nonzero"/><path fill="#231f20" d="M 23.558594 54.835938 L 24.394531 53.386719 L 33.597656 58.699219 L 32.757812 60.148438 Z M 23.558594 54.835938 " fill-opacity="1" fill-rule="nonzero"/><path fill="#231f20" d="M 12.71875 94.816406 L 23.34375 94.816406 L 23.34375 96.488281 L 12.71875 96.488281 Z M 12.71875 94.816406 " fill-opacity="1" fill-rule="nonzero"/><path fill="#231f20" d="M 23.328125 136.515625 L 32.527344 131.203125 L 33.367188 132.652344 L 24.164062 137.964844 Z M 23.328125 136.515625 " fill-opacity="1" fill-rule="nonzero"/><path fill="#231f20" d="M 53.394531 167.328125 L 58.707031 158.128906 L 60.15625 158.964844 L 54.847656 168.167969 Z M 53.394531 167.328125 " fill-opacity="1" fill-rule="nonzero"/><g clip-path="url(#8927ee6220)"><path fill="#231f20" d="M 94.816406 168.390625 L 96.488281 168.390625 L 96.488281 179.015625 L 94.816406 179.015625 Z M 94.816406 168.390625 " fill-opacity="1" fill-rule="nonzero"/></g><path fill="#231f20" d="M 131.210938 159.199219 L 132.660156 158.359375 L 137.972656 167.5625 L 136.523438 168.398438 Z M 131.210938 159.199219 " fill-opacity="1" fill-rule="nonzero"/><path fill="#231f20" d="M 158.136719 133.015625 L 158.972656 131.566406 L 168.175781 136.878906 L 167.335938 138.328125 Z M 158.136719 133.015625 " fill-opacity="1" fill-rule="nonzero"/><g clip-path="url(#abcd4e7a89)"><path fill="#231f20" d="M 168.390625 95.242188 L 179.015625 95.242188 L 179.015625 96.917969 L 168.390625 96.917969 Z M 168.390625 95.242188 " fill-opacity="1" fill-rule="nonzero"/></g><path fill="#231f20" d="M 158.351562 59.039062 L 167.554688 53.730469 L 168.390625 55.179688 L 159.191406 60.492188 Z M 158.351562 59.039062 " fill-opacity="1" fill-rule="nonzero"/><path fill="#231f20" d="M 131.578125 32.753906 L 136.890625 23.550781 L 138.339844 24.390625 L 133.027344 33.589844 Z M 131.578125 32.753906 " fill-opacity="1" fill-rule="nonzero"/><g clip-path="url(#757e23a723)"><path fill="#231f20" d="M 95.851562 179.867188 C 49.550781 179.867188 11.867188 142.179688 11.867188 95.851562 C 11.867188 49.550781 49.550781 11.867188 95.851562 11.867188 C 142.152344 11.867188 179.835938 49.550781 179.835938 95.851562 C 179.867188 142.179688 142.179688 179.867188 95.851562 179.867188 Z M 95.851562 13.449219 C 50.402344 13.449219 13.449219 50.402344 13.449219 95.851562 C 13.449219 141.296875 50.433594 178.28125 95.882812 178.28125 C 141.328125 178.28125 178.3125 141.296875 178.3125 95.851562 C 178.3125 50.402344 141.296875 13.449219 95.851562 13.449219 Z M 95.851562 13.449219 " fill-opacity="1" fill-rule="nonzero"/></g><path fill="#000000" d="M 129.03125 48.757812 L 131.160156 48.757812 L 131.160156 34.726562 L 130.066406 34.726562 C 130.003906 35.335938 129.699219 35.851562 129.152344 36.339844 C 128.664062 36.765625 127.996094 36.980469 127.113281 36.980469 L 126.292969 36.980469 L 126.292969 37.953125 L 129.0625 37.953125 L 129.0625 48.757812 Z M 129.03125 48.757812 " fill-opacity="1" fill-rule="nonzero"/><path fill="#000000" d="M 151.128906 64.222656 C 151.617188 63.738281 152.105469 63.25 152.621094 62.761719 C 153.535156 61.910156 154.449219 60.996094 155.300781 60.082031 C 156.214844 59.109375 156.671875 57.984375 156.671875 56.675781 C 156.671875 55.640625 156.273438 54.785156 155.484375 54.085938 C 154.691406 53.386719 153.597656 53.019531 152.257812 53.019531 C 151.160156 53.019531 150.1875 53.386719 149.394531 54.085938 C 148.421875 54.9375 147.902344 56.21875 147.902344 57.890625 L 150.035156 57.890625 C 150.035156 56.582031 150.371094 55.640625 151.039062 55.0625 C 151.40625 54.726562 151.832031 54.574219 152.316406 54.574219 C 152.867188 54.574219 153.320312 54.726562 153.6875 55.0625 C 154.175781 55.488281 154.417969 56.035156 154.417969 56.675781 C 154.417969 57.769531 153.902344 58.773438 152.835938 59.75 C 151.859375 60.722656 150.582031 61.941406 149.058594 63.402344 C 148.148438 64.375 147.597656 65.136719 147.476562 65.683594 L 147.476562 67.054688 L 156.882812 67.054688 L 156.882812 65.5 L 149.972656 65.5 C 150.308594 65.074219 150.675781 64.648438 151.128906 64.222656 Z M 151.128906 64.222656 " fill-opacity="1" fill-rule="nonzero"/><path fill="#000000" d="M 165.863281 96.640625 C 165.4375 96.277344 164.917969 96.003906 164.28125 95.820312 C 164.769531 95.757812 165.222656 95.546875 165.652344 95.179688 C 166.257812 94.632812 166.5625 93.84375 166.5625 92.746094 C 166.5625 91.679688 166.199219 90.796875 165.46875 90.160156 C 164.675781 89.457031 163.582031 89.09375 162.242188 89.09375 C 161.085938 89.09375 160.078125 89.457031 159.289062 90.160156 C 158.375 90.980469 157.917969 91.984375 157.917969 93.234375 L 159.957031 93.234375 C 160.019531 92.257812 160.292969 91.558594 160.78125 91.132812 C 161.207031 90.765625 161.691406 90.554688 162.273438 90.554688 C 162.878906 90.554688 163.367188 90.707031 163.761719 91.042969 C 164.25 91.46875 164.492188 92.046875 164.492188 92.746094 C 164.492188 93.566406 164.25 94.175781 163.761719 94.601562 C 163.277344 95.027344 162.757812 95.242188 162.179688 95.242188 L 161.632812 95.242188 L 161.632812 96.613281 L 162.363281 96.613281 C 162.972656 96.613281 163.519531 96.824219 164.039062 97.25 C 164.523438 97.675781 164.769531 98.285156 164.769531 99.046875 C 164.769531 99.960938 164.523438 100.628906 164.039062 101.085938 C 163.550781 101.511719 162.910156 101.726562 162.089844 101.726562 C 161.480469 101.726562 160.960938 101.542969 160.507812 101.148438 C 159.957031 100.660156 159.683594 100.082031 159.683594 99.351562 L 159.683594 98.773438 L 157.554688 98.773438 L 157.554688 99.414062 C 157.554688 100.449219 157.980469 101.332031 158.832031 102.089844 C 159.683594 102.851562 160.78125 103.21875 162.058594 103.21875 C 163.582031 103.21875 164.796875 102.851562 165.652344 102.089844 C 166.503906 101.332031 166.929688 100.355469 166.929688 99.167969 C 166.988281 98.164062 166.625 97.28125 165.863281 96.640625 Z M 165.863281 96.640625 " fill-opacity="1" fill-rule="nonzero"/><path fill="#000000" d="M 154.84375 122 L 152.714844 122 L 146.535156 130.828125 L 146.535156 132.441406 L 152.714844 132.441406 L 152.714844 136 L 154.84375 136 L 154.84375 132.441406 L 156.792969 132.441406 L 156.792969 130.886719 L 154.84375 130.886719 Z M 152.714844 130.917969 L 148.542969 130.917969 L 152.683594 125.011719 L 152.683594 130.917969 Z M 152.714844 130.917969 " fill-opacity="1" fill-rule="nonzero"/><path fill="#000000" d="M 132.105469 148.453125 C 131.3125 147.75 130.277344 147.386719 129.0625 147.386719 C 128.148438 147.386719 127.265625 147.722656 126.472656 148.359375 C 126.472656 148.207031 126.503906 148.027344 126.566406 147.875 C 126.6875 146.898438 126.777344 145.894531 126.839844 144.859375 L 126.839844 144.617188 L 133.019531 144.617188 L 133.019531 143.0625 L 125.074219 143.0625 L 125.074219 143.398438 L 124.617188 149.640625 C 124.617188 149.792969 124.585938 150.003906 124.527344 150.21875 L 126.382812 150.21875 C 126.503906 150.066406 126.746094 149.820312 127.113281 149.488281 C 127.660156 149 128.300781 148.757812 129.0625 148.757812 C 129.546875 148.757812 129.972656 148.910156 130.339844 149.242188 C 130.886719 149.730469 131.160156 150.644531 131.160156 152.011719 C 131.160156 153.414062 130.828125 154.417969 130.15625 155.027344 C 129.730469 155.390625 129.152344 155.605469 128.390625 155.605469 C 127.84375 155.605469 127.386719 155.453125 127.023438 155.117188 C 126.535156 154.691406 126.230469 153.960938 126.109375 152.925781 L 123.976562 152.925781 C 124.160156 154.328125 124.648438 155.390625 125.46875 156.09375 C 126.261719 156.792969 127.296875 157.15625 128.511719 157.15625 C 129.792969 157.15625 130.886719 156.792969 131.738281 156.03125 C 132.835938 155.058594 133.414062 153.65625 133.414062 151.832031 C 133.382812 150.308594 132.957031 149.210938 132.105469 148.453125 Z M 132.105469 148.453125 " fill-opacity="1" fill-rule="nonzero"/><path fill="#000000" d="M 98.253906 158.011719 C 97.523438 157.371094 96.582031 157.035156 95.484375 157.035156 C 94.695312 157.035156 93.992188 157.28125 93.445312 157.765625 C 93.082031 158.101562 92.777344 158.4375 92.53125 158.832031 C 92.53125 156.671875 93.019531 155.148438 94.023438 154.296875 C 94.390625 153.960938 94.847656 153.808594 95.394531 153.808594 C 95.941406 153.808594 96.398438 153.960938 96.765625 154.296875 C 97.128906 154.632812 97.3125 155.148438 97.3125 155.910156 L 99.441406 155.910156 C 99.441406 154.84375 99.046875 153.929688 98.253906 153.230469 C 97.523438 152.589844 96.550781 152.257812 95.394531 152.257812 C 94.296875 152.257812 93.355469 152.589844 92.625 153.230469 C 91.132812 154.539062 90.402344 156.671875 90.402344 159.625 C 90.402344 162.394531 90.949219 164.25 92.078125 165.222656 C 92.988281 166.046875 94.023438 166.441406 95.121094 166.441406 C 96.398438 166.441406 97.433594 166.105469 98.164062 165.46875 C 99.136719 164.617188 99.65625 163.335938 99.65625 161.664062 C 99.65625 160.019531 99.199219 158.800781 98.253906 158.011719 Z M 96.613281 164.492188 C 96.246094 164.828125 95.789062 164.980469 95.242188 164.980469 C 94.753906 164.980469 94.296875 164.796875 93.871094 164.402344 C 93.140625 163.761719 92.777344 162.789062 92.777344 161.480469 C 92.777344 160.445312 93.109375 159.652344 93.78125 159.046875 C 94.207031 158.679688 94.722656 158.464844 95.363281 158.464844 C 95.789062 158.464844 96.214844 158.648438 96.640625 159.046875 C 97.191406 159.53125 97.464844 160.382812 97.464844 161.632812 C 97.433594 163.0625 97.160156 164.007812 96.613281 164.492188 Z M 96.613281 164.492188 " fill-opacity="1" fill-rule="nonzero"/><path fill="#000000" d="M 57.710938 144.648438 L 64.4375 144.648438 L 60.023438 156.945312 L 62.0625 156.945312 L 66.476562 144.859375 L 66.476562 143.09375 L 57.710938 143.09375 Z M 57.710938 144.648438 " fill-opacity="1" fill-rule="nonzero"/><path fill="#000000" d="M 43.160156 129.792969 C 42.671875 129.367188 42.152344 129.089844 41.574219 128.96875 L 41.574219 128.816406 C 42.003906 128.695312 42.367188 128.511719 42.671875 128.238281 C 43.402344 127.601562 43.765625 126.808594 43.765625 125.894531 C 43.765625 124.707031 43.371094 123.765625 42.582031 123.066406 C 41.789062 122.363281 40.722656 122 39.445312 122 C 38.167969 122 37.132812 122.332031 36.402344 122.972656 C 35.546875 123.734375 35.121094 124.707031 35.121094 125.894531 C 35.121094 126.746094 35.457031 127.476562 36.128906 128.085938 C 36.554688 128.453125 36.949219 128.695312 37.3125 128.816406 L 37.3125 128.96875 C 36.765625 129.089844 36.25 129.335938 35.730469 129.792969 C 35 130.429688 34.636719 131.3125 34.636719 132.378906 C 34.636719 133.476562 35.0625 134.386719 35.914062 135.148438 C 36.707031 135.847656 37.890625 136.214844 39.414062 136.214844 C 40.9375 136.214844 42.125 135.847656 42.914062 135.148438 C 43.765625 134.386719 44.195312 133.476562 44.195312 132.378906 C 44.285156 131.3125 43.917969 130.429688 43.160156 129.792969 Z M 37.160156 125.894531 C 37.160156 125.074219 37.40625 124.464844 37.890625 124.039062 C 38.320312 123.671875 38.835938 123.460938 39.476562 123.460938 C 40.085938 123.460938 40.601562 123.644531 41.058594 124.039062 C 41.546875 124.464844 41.789062 125.105469 41.789062 125.894531 C 41.789062 126.71875 41.546875 127.324219 41.058594 127.753906 C 40.691406 128.085938 40.144531 128.238281 39.382812 128.238281 C 38.835938 128.238281 38.347656 128.058594 37.890625 127.660156 C 37.40625 127.265625 37.160156 126.65625 37.160156 125.894531 Z M 41.332031 134.082031 C 40.84375 134.511719 40.238281 134.722656 39.476562 134.722656 C 38.714844 134.722656 38.136719 134.511719 37.617188 134.082031 C 37.070312 133.597656 36.796875 132.957031 36.796875 132.136719 C 36.796875 131.3125 37.039062 130.703125 37.527344 130.277344 C 38.015625 129.851562 38.652344 129.640625 39.476562 129.640625 C 40.265625 129.640625 40.875 129.820312 41.332031 130.21875 C 41.878906 130.703125 42.152344 131.34375 42.152344 132.167969 C 42.152344 132.957031 41.878906 133.597656 41.332031 134.082031 Z M 41.332031 134.082031 " fill-opacity="1" fill-rule="nonzero"/><path fill="#000000" d="M 29.550781 89.09375 C 28.394531 89.09375 27.453125 89.398438 26.78125 89.976562 C 25.6875 90.949219 25.109375 92.257812 25.109375 93.871094 C 25.109375 95.332031 25.59375 96.488281 26.597656 97.371094 C 27.207031 97.921875 27.96875 98.195312 28.914062 98.195312 C 29.886719 98.195312 30.738281 97.890625 31.410156 97.3125 C 31.714844 97.039062 31.988281 96.734375 32.230469 96.429688 C 32.230469 98.742188 31.742188 100.355469 30.738281 101.207031 C 30.3125 101.574219 29.824219 101.785156 29.246094 101.785156 C 28.761719 101.785156 28.394531 101.664062 28.152344 101.453125 C 27.605469 100.964844 27.359375 100.386719 27.421875 99.65625 L 25.289062 99.65625 C 25.289062 100.78125 25.6875 101.695312 26.476562 102.425781 C 27.148438 103.035156 28.089844 103.308594 29.246094 103.308594 C 30.402344 103.308594 31.4375 102.945312 32.292969 102.183594 C 33.632812 100.996094 34.332031 98.957031 34.332031 96.09375 C 34.332031 93.292969 33.691406 91.316406 32.382812 90.1875 C 31.589844 89.457031 30.648438 89.09375 29.550781 89.09375 Z M 31.011719 96.246094 C 30.648438 96.582031 30.101562 96.734375 29.339844 96.734375 C 28.914062 96.734375 28.488281 96.550781 28.058594 96.15625 C 27.574219 95.730469 27.328125 94.96875 27.328125 93.871094 C 27.328125 92.53125 27.632812 91.589844 28.242188 91.042969 C 28.609375 90.707031 29.035156 90.554688 29.519531 90.554688 C 30.070312 90.554688 30.554688 90.738281 31.011719 91.132812 C 31.683594 91.742188 32.015625 92.714844 32.015625 94.054688 C 32.046875 94.90625 31.714844 95.636719 31.011719 96.246094 Z M 31.011719 96.246094 " fill-opacity="1" fill-rule="nonzero"/><path fill="#000000" d="M 39.355469 69.398438 L 41.484375 69.398438 L 41.484375 55.394531 L 40.386719 55.394531 C 40.328125 56.003906 40.023438 56.523438 39.476562 57.007812 C 38.988281 57.433594 38.320312 57.648438 37.4375 57.648438 L 36.613281 57.648438 L 36.613281 58.621094 L 39.382812 58.621094 L 39.382812 69.398438 Z M 39.355469 69.398438 " fill-opacity="1" fill-rule="nonzero"/><path fill="#000000" d="M 51.804688 55.394531 C 50.523438 55.394531 49.429688 55.761719 48.578125 56.523438 C 47.359375 57.617188 46.71875 59.324219 46.71875 61.695312 L 46.71875 63.308594 C 46.71875 65.625 47.328125 67.328125 48.578125 68.425781 C 49.429688 69.183594 50.523438 69.550781 51.804688 69.550781 C 53.082031 69.550781 54.179688 69.183594 55.03125 68.425781 C 56.246094 67.359375 56.886719 65.652344 56.886719 63.308594 L 56.886719 61.695312 C 56.886719 59.324219 56.277344 57.585938 55.03125 56.523438 C 54.179688 55.761719 53.113281 55.394531 51.804688 55.394531 Z M 54.664062 63.402344 C 54.664062 65.351562 54.269531 66.660156 53.476562 67.359375 C 52.992188 67.785156 52.441406 67.996094 51.804688 67.996094 C 51.253906 67.996094 50.738281 67.785156 50.222656 67.359375 C 49.367188 66.597656 48.941406 65.289062 48.941406 63.402344 L 48.941406 61.542969 C 48.941406 59.597656 49.339844 58.289062 50.128906 57.585938 C 50.617188 57.160156 51.164062 56.949219 51.804688 56.949219 C 52.414062 56.949219 52.960938 57.160156 53.476562 57.585938 C 54.269531 58.289062 54.664062 59.625 54.664062 61.542969 Z M 54.664062 63.402344 " fill-opacity="1" fill-rule="nonzero"/><path fill="#000000" d="M 56.855469 48.757812 L 58.988281 48.757812 L 58.988281 34.726562 L 57.890625 34.726562 C 57.832031 35.335938 57.527344 35.851562 56.980469 36.339844 C 56.492188 36.765625 55.820312 36.980469 54.9375 36.980469 L 54.117188 36.980469 L 54.117188 37.953125 L 56.886719 37.953125 L 56.886719 48.757812 Z M 56.855469 48.757812 " fill-opacity="1" fill-rule="nonzero"/><path fill="#000000" d="M 68.757812 36.371094 C 68.273438 36.796875 67.601562 37.011719 66.71875 37.011719 L 65.898438 37.011719 L 65.898438 37.984375 L 68.667969 37.984375 L 68.667969 48.757812 L 70.796875 48.757812 L 70.796875 34.726562 L 69.703125 34.726562 C 69.613281 35.335938 69.308594 35.882812 68.757812 36.371094 Z M 68.757812 36.371094 " fill-opacity="1" fill-rule="nonzero"/><path fill="#000000" d="M 91.347656 36.402344 L 91.347656 22.367188 L 90.25 22.367188 C 90.1875 22.976562 89.882812 23.496094 89.335938 23.980469 C 88.847656 24.40625 88.179688 24.621094 87.296875 24.621094 L 86.445312 24.621094 L 86.445312 25.59375 L 89.214844 25.59375 L 89.214844 36.371094 L 91.347656 36.371094 Z M 91.347656 36.402344 " fill-opacity="1" fill-rule="nonzero"/><path fill="#000000" d="M 100.570312 33.632812 C 101.054688 33.144531 101.542969 32.65625 102.0625 32.167969 C 102.972656 31.316406 103.886719 30.402344 104.738281 29.492188 C 105.652344 28.515625 106.109375 27.390625 106.109375 26.082031 C 106.109375 25.046875 105.714844 24.195312 104.921875 23.496094 C 104.128906 22.792969 103.035156 22.429688 101.695312 22.429688 C 100.597656 22.429688 99.625 22.792969 98.835938 23.496094 C 97.859375 24.347656 97.34375 25.625 97.34375 27.300781 L 99.472656 27.300781 C 99.472656 25.992188 99.808594 25.046875 100.476562 24.46875 C 100.84375 24.132812 101.269531 23.980469 101.757812 23.980469 C 102.304688 23.980469 102.761719 24.132812 103.125 24.46875 C 103.613281 24.894531 103.855469 25.441406 103.855469 26.082031 C 103.855469 27.175781 103.339844 28.183594 102.273438 29.15625 C 101.300781 30.128906 100.019531 31.347656 98.5 32.808594 C 97.585938 33.78125 97.039062 34.542969 96.917969 35.09375 L 96.917969 36.460938 L 106.324219 36.460938 L 106.324219 34.910156 L 99.414062 34.910156 C 99.777344 34.515625 100.144531 34.085938 100.570312 33.632812 Z M 100.570312 33.632812 " fill-opacity="1" fill-rule="nonzero"/></svg>