<svg xmlns="http://www.w3.org/2000/svg" xmlns:xlink="http://www.w3.org/1999/xlink" width="100" zoomAndPan="magnify" viewBox="0 0 192 191.999996" height="100" preserveAspectRatio="xMidYMid meet" version="1.0"><defs><clipPath id="9b0dbad4a9"><path d="M 71 166 L 119 166 L 119 183.261719 L 71 183.261719 Z M 71 166 " clip-rule="nonzero"/></clipPath><clipPath id="e50ff95afa"><path d="M 129 91 L 153.445312 91 L 153.445312 106 L 129 106 Z M 129 91 " clip-rule="nonzero"/></clipPath><clipPath id="07f31a1bd7"><path d="M 91 8.511719 L 110 8.511719 L 110 23 L 91 23 Z M 91 8.511719 " clip-rule="nonzero"/></clipPath></defs><g clip-path="url(#9b0dbad4a9)"><path fill="#633e2c" d="M 118.785156 183.261719 L 71.109375 183.261719 C 71.109375 183.261719 71.390625 180.722656 73.324219 179.832031 C 75.257812 178.9375 76.210938 179.171875 77.375 175.964844 C 78.542969 172.753906 81.085938 173.753906 81.863281 172.976562 C 82.640625 172.203125 82.582031 170.875 83.253906 170.546875 C 83.925781 170.214844 84.195312 170.601562 84.855469 169.828125 C 85.519531 169.050781 85.351562 168.636719 85.769531 168.453125 C 86.351562 168.199219 87.460938 169.140625 88.460938 168.082031 C 89.460938 167.027344 89.355469 166.949219 89.832031 166.804688 C 90.308594 166.660156 90.734375 166.949219 91.125 166.84375 C 91.511719 166.734375 91.84375 166.25 92.230469 166.269531 C 92.621094 166.289062 92.894531 167.09375 93.640625 166.902344 C 94.582031 166.648438 95.019531 166.660156 95.777344 168.265625 C 96.476562 169.742188 98.082031 168.074219 98.996094 168.121094 C 99.773438 168.171875 99.996094 169.167969 100.550781 169.0625 C 101.101562 168.957031 101.316406 168.695312 101.617188 168.828125 C 102.007812 169.003906 102.09375 169.449219 102.988281 169.449219 C 103.882812 169.449219 104.09375 169.015625 104.601562 169.160156 C 105.175781 169.332031 105.039062 170.332031 105.707031 170.554688 C 106.378906 170.777344 107.097656 170.390625 107.488281 170.613281 C 107.875 170.835938 107.710938 171.660156 108.324219 172 C 108.933594 172.339844 109.429688 171.71875 110.820312 173.269531 C 112.207031 174.820312 111.265625 174.539062 112.703125 175.59375 C 114.140625 176.652344 113.929688 177.699219 114.976562 178.910156 C 116.027344 180.121094 117.746094 180.238281 118.359375 180.847656 C 118.972656 181.457031 118.804688 183.28125 118.804688 183.28125 Z M 118.785156 183.261719 " fill-opacity="1" fill-rule="nonzero"/></g><path fill="#976e4e" d="M 101.753906 177.738281 C 100.949219 177.738281 100.949219 178.988281 101.753906 178.988281 C 102.558594 178.988281 102.558594 177.738281 101.753906 177.738281 Z M 101.753906 177.738281 " fill-opacity="1" fill-rule="nonzero"/><path fill="#976e4e" d="M 87.636719 176.253906 C 86.828125 176.253906 86.828125 177.503906 87.636719 177.503906 C 88.441406 177.503906 88.441406 176.253906 87.636719 176.253906 Z M 87.636719 176.253906 " fill-opacity="1" fill-rule="nonzero"/><path fill="#976e4e" d="M 85.789062 180.167969 C 84.984375 180.167969 84.984375 181.417969 85.789062 181.417969 C 86.597656 181.417969 86.597656 180.167969 85.789062 180.167969 Z M 85.789062 180.167969 " fill-opacity="1" fill-rule="nonzero"/><path fill="#976e4e" d="M 89.257812 173.199219 C 88.695312 173.199219 88.695312 174.074219 89.257812 174.074219 C 89.820312 174.074219 89.820312 173.199219 89.257812 173.199219 Z M 89.257812 173.199219 " fill-opacity="1" fill-rule="nonzero"/><path fill="#976e4e" d="M 94.730469 171.503906 C 94.164062 171.503906 94.164062 172.375 94.730469 172.375 C 95.292969 172.375 95.292969 171.503906 94.730469 171.503906 Z M 94.730469 171.503906 " fill-opacity="1" fill-rule="nonzero"/><path fill="#976e4e" d="M 89.40625 168.113281 C 88.839844 168.113281 88.839844 168.984375 89.40625 168.984375 C 89.96875 168.984375 89.96875 168.113281 89.40625 168.113281 Z M 89.40625 168.113281 " fill-opacity="1" fill-rule="nonzero"/><path fill="#976e4e" d="M 91.472656 167.820312 C 90.910156 167.820312 90.910156 168.695312 91.472656 168.695312 C 92.039062 168.695312 92.039062 167.820312 91.472656 167.820312 Z M 91.472656 167.820312 " fill-opacity="1" fill-rule="nonzero"/><path fill="#976e4e" d="M 104.046875 175.253906 C 103.5625 175.253906 103.5625 176.011719 104.046875 176.011719 C 104.53125 176.011719 104.53125 175.253906 104.046875 175.253906 Z M 104.046875 175.253906 " fill-opacity="1" fill-rule="nonzero"/><path fill="#976e4e" d="M 105.667969 173.851562 C 105.183594 173.851562 105.183594 174.605469 105.667969 174.605469 C 106.15625 174.605469 106.15625 173.851562 105.667969 173.851562 Z M 105.667969 173.851562 " fill-opacity="1" fill-rule="nonzero"/><path fill="#976e4e" d="M 103.601562 172.503906 C 103.28125 172.503906 103.28125 173.007812 103.601562 173.007812 C 103.921875 173.007812 103.921875 172.503906 103.601562 172.503906 Z M 103.601562 172.503906 " fill-opacity="1" fill-rule="nonzero"/><path fill="#976e4e" d="M 88.074219 178.578125 C 87.507812 178.578125 87.507812 179.453125 88.074219 179.453125 C 88.636719 179.453125 88.636719 178.578125 88.074219 178.578125 Z M 88.074219 178.578125 " fill-opacity="1" fill-rule="nonzero"/><path fill="#976e4e" d="M 80.320312 178.636719 C 79.910156 178.636719 79.910156 179.269531 80.320312 179.269531 C 80.726562 179.269531 80.726562 178.636719 80.320312 178.636719 Z M 80.320312 178.636719 " fill-opacity="1" fill-rule="nonzero"/><path fill="#976e4e" d="M 85.421875 177.648438 C 85.742188 177.648438 85.742188 177.144531 85.421875 177.144531 C 85.101562 177.144531 85.101562 177.648438 85.421875 177.648438 Z M 85.421875 177.648438 " fill-opacity="1" fill-rule="nonzero"/><path fill="#976e4e" d="M 84.828125 178.472656 C 84.507812 178.472656 84.507812 178.976562 84.828125 178.976562 C 85.148438 178.976562 85.148438 178.472656 84.828125 178.472656 Z M 84.828125 178.472656 " fill-opacity="1" fill-rule="nonzero"/><path fill="#976e4e" d="M 93.398438 168.820312 C 93.078125 168.820312 93.078125 169.324219 93.398438 169.324219 C 93.71875 169.324219 93.71875 168.820312 93.398438 168.820312 Z M 93.398438 168.820312 " fill-opacity="1" fill-rule="nonzero"/><path fill="#976e4e" d="M 90.734375 173.539062 C 90.414062 173.539062 90.414062 174.042969 90.734375 174.042969 C 91.054688 174.042969 91.054688 173.539062 90.734375 173.539062 Z M 90.734375 173.539062 " fill-opacity="1" fill-rule="nonzero"/><path fill="#976e4e" d="M 93.027344 167.191406 C 92.707031 167.191406 92.707031 167.695312 93.027344 167.695312 C 93.347656 167.695312 93.347656 167.191406 93.027344 167.191406 Z M 93.027344 167.191406 " fill-opacity="1" fill-rule="nonzero"/><path fill="#976e4e" d="M 99.238281 169.703125 C 98.917969 169.703125 98.917969 170.207031 99.238281 170.207031 C 99.558594 170.207031 99.558594 169.703125 99.238281 169.703125 Z M 99.238281 169.703125 " fill-opacity="1" fill-rule="nonzero"/><path fill="#976e4e" d="M 84.828125 173.171875 C 84.507812 173.171875 84.507812 173.675781 84.828125 173.675781 C 85.148438 173.675781 85.148438 173.171875 84.828125 173.171875 Z M 84.828125 173.171875 " fill-opacity="1" fill-rule="nonzero"/><path fill="#976e4e" d="M 95.984375 177.738281 C 95.660156 177.738281 95.660156 178.242188 95.984375 178.242188 C 96.304688 178.242188 96.304688 177.738281 95.984375 177.738281 Z M 95.984375 177.738281 " fill-opacity="1" fill-rule="nonzero"/><path fill="#976e4e" d="M 111.507812 178.183594 C 111.1875 178.183594 111.1875 178.6875 111.507812 178.6875 C 111.828125 178.6875 111.828125 178.183594 111.507812 178.183594 Z M 111.507812 178.183594 " fill-opacity="1" fill-rule="nonzero"/><path fill="#976e4e" d="M 107.59375 180.617188 C 107.273438 180.617188 107.273438 181.121094 107.59375 181.121094 C 107.914062 181.121094 107.914062 180.617188 107.59375 180.617188 Z M 107.59375 180.617188 " fill-opacity="1" fill-rule="nonzero"/><path fill="#976e4e" d="M 93.699219 177.144531 C 93.378906 177.144531 93.378906 177.648438 93.699219 177.648438 C 94.019531 177.648438 94.019531 177.144531 93.699219 177.144531 Z M 93.699219 177.144531 " fill-opacity="1" fill-rule="nonzero"/><path fill="#976e4e" d="M 77.578125 181.351562 C 77.257812 181.351562 77.257812 181.855469 77.578125 181.855469 C 77.898438 181.855469 77.898438 181.351562 77.578125 181.351562 Z M 77.578125 181.351562 " fill-opacity="1" fill-rule="nonzero"/><path fill="#87af26" d="M 125.160156 34.671875 C 124.65625 35.707031 124.675781 37.363281 125.238281 38.800781 C 125.675781 39.914062 126.707031 41.125 126.949219 41.058594 C 127.191406 40.988281 127.125 40.378906 127.296875 40.320312 C 127.472656 40.261719 127.492188 40.632812 128.320312 41.601562 C 128.785156 42.152344 130.066406 43.054688 130.273438 42.988281 C 130.476562 42.917969 130.484375 42.519531 130.660156 42.394531 C 130.835938 42.269531 131.273438 42.792969 132.039062 43.257812 C 133.167969 43.945312 134.613281 44.78125 134.820312 44.671875 C 134.984375 44.585938 135.371094 43.09375 135.226562 41.308594 C 134.898438 37.289062 132.75 36.523438 132.886719 36.261719 C 133.019531 36 133.796875 36.046875 133.828125 35.6875 C 133.855469 35.328125 132.332031 34.1875 129.855469 33.535156 C 127.960938 33.042969 125.910156 33.167969 125.171875 34.691406 Z M 125.160156 34.671875 " fill-opacity="1" fill-rule="nonzero"/><path fill="#87af26" d="M 133.683594 30.65625 C 133.34375 32.460938 134.3125 35.328125 137.035156 37.570312 C 138.433594 38.722656 140.523438 39.1875 140.726562 39.089844 C 140.929688 38.992188 140.804688 38.429688 140.980469 38.277344 C 141.152344 38.121094 142.203125 38.761719 143.738281 38.992188 C 144.691406 39.136719 146.042969 39.195312 146.167969 39.011719 C 146.292969 38.828125 145.933594 38.324219 146.050781 38.140625 C 146.167969 37.957031 147.390625 38.265625 148.8125 38.21875 C 149.9375 38.179688 151.539062 37.867188 151.707031 37.625 C 151.871094 37.382812 151.445312 35.269531 149.957031 33.324219 C 147.46875 30.046875 144.945312 29.589844 144.847656 29.300781 C 144.75 29.011719 145.652344 28.527344 145.625 28.195312 C 145.59375 27.867188 144.671875 27.1875 142.953125 26.964844 C 140.367188 26.625 139.046875 27.632812 138.832031 27.382812 C 138.617188 27.128906 139.890625 26.722656 139.675781 26.453125 C 139.464844 26.179688 137.898438 26.179688 136.09375 27.332031 C 134.972656 28.050781 133.984375 29.105469 133.691406 30.667969 Z M 133.683594 30.65625 " fill-opacity="1" fill-rule="nonzero"/><path fill="#51761d" d="M 125.988281 106.460938 C 122.847656 102.515625 117.125 102.226562 112.675781 103.832031 L 113.09375 104.9375 C 113.421875 104.824219 113.792969 104.726562 114.132812 104.636719 C 116.609375 104.039062 119.28125 103.851562 121.722656 104.667969 C 124.683594 105.617188 126.445312 108.039062 127.832031 110.734375 C 127.589844 109.203125 126.957031 107.71875 125.96875 106.449219 Z M 125.988281 106.460938 " fill-opacity="1" fill-rule="nonzero"/><path fill="#51761d" d="M 111.625 81.667969 C 110.160156 80.515625 108.089844 80.628906 106.40625 81.183594 C 102.179688 82.648438 98.898438 86.214844 97.1875 90.265625 C 96.847656 91.175781 98.148438 91.707031 98.546875 90.828125 C 99.179688 89.324219 100.023438 87.910156 101.042969 86.621094 C 103.054688 84.050781 106.796875 81.007812 110.265625 81.601562 C 111.5 81.824219 112.472656 82.742188 113.015625 83.859375 C 112.792969 83.015625 112.335938 82.210938 111.636719 81.65625 Z M 111.625 81.667969 " fill-opacity="1" fill-rule="nonzero"/><path fill="#51761d" d="M 87.886719 68.109375 C 87.179688 67.644531 86.441406 67.207031 85.664062 66.859375 C 85.332031 66.695312 84.808594 66.5 84.46875 66.375 C 84.1875 66.265625 83.816406 66.179688 83.535156 66.09375 C 83.226562 66.023438 82.882812 65.9375 82.574219 65.890625 C 82.574219 65.890625 81.921875 65.800781 81.921875 65.800781 C 78.746094 65.472656 75.734375 66.90625 74.101562 69.660156 C 73.234375 71.09375 72.730469 72.820312 72.972656 74.484375 C 72.992188 74.078125 73.050781 73.671875 73.140625 73.273438 C 73.976562 69.84375 76.996094 66.992188 80.628906 67.042969 C 82.992188 67.023438 85.214844 68.011719 87.246094 69.144531 C 87.945312 69.542969 88.570312 68.554688 87.898438 68.109375 Z M 87.886719 68.109375 " fill-opacity="1" fill-rule="nonzero"/><path fill="#51761d" d="M 120.039062 42.183594 C 118.816406 38.09375 114.472656 37.480469 110.886719 38.742188 C 110.507812 38.886719 110.3125 39.3125 110.46875 39.691406 C 110.617188 40.070312 111.042969 40.242188 111.421875 40.097656 C 111.46875 40.078125 111.527344 40.058594 111.597656 40.03125 C 114.636719 39.003906 117.960938 39.136719 119.4375 42.414062 C 119.789062 43.121094 120.03125 43.996094 120.207031 44.769531 C 120.253906 45.042969 120.3125 45.320312 120.371094 45.601562 C 120.457031 44.46875 120.390625 43.316406 120.039062 42.183594 Z M 120.039062 42.183594 " fill-opacity="1" fill-rule="nonzero"/><path fill="#51761d" d="M 90.308594 24.15625 C 88.023438 24.347656 85.605469 25.414062 84.507812 27.519531 C 83.875 28.730469 83.828125 30.210938 84.207031 31.480469 C 84.253906 29.804688 84.644531 28.109375 85.925781 26.984375 C 87.121094 25.910156 88.78125 25.414062 90.367188 25.257812 C 91.09375 25.203125 91.046875 24.144531 90.308594 24.164062 Z M 90.308594 24.15625 " fill-opacity="1" fill-rule="nonzero"/><path fill="#87af26" d="M 93.359375 143.960938 C 93.378906 144.367188 93.320312 144.890625 93.195312 145.460938 C 92.902344 146.730469 91.589844 148.882812 91.28125 148.796875 C 90.96875 148.707031 90.941406 147.902344 90.753906 147.847656 C 90.570312 147.789062 89.355469 149.464844 87.597656 151.0625 C 86.625 151.945312 85.507812 152.796875 85.109375 152.742188 C 84.710938 152.683594 84.351562 151.847656 84.324219 149.910156 C 84.292969 147.75 85.042969 146.488281 84.808594 146.277344 C 84.574219 146.0625 83.933594 146.429688 83.738281 146.121094 C 83.546875 145.8125 84.050781 144.394531 85.441406 143.039062 C 86.0625 142.4375 86.886719 141.90625 88.003906 141.625 C 91.28125 140.808594 93.308594 143.066406 93.359375 143.96875 Z M 93.359375 143.960938 " fill-opacity="1" fill-rule="nonzero"/><path fill="#51761d" d="M 98.011719 153.933594 C 97.820312 152.449219 97.546875 150.976562 97.15625 149.523438 C 96.613281 147.574219 95.914062 145.550781 94.464844 144.054688 C 93.902344 143.484375 93.125 143.007812 92.289062 142.914062 C 91.824219 142.863281 91.347656 142.914062 90.890625 143 C 90.667969 142.941406 90.445312 142.894531 90.210938 142.863281 C 89.171875 142.699219 88.042969 142.746094 87.121094 143.289062 C 88.0625 142.882812 89.121094 142.953125 90.105469 143.234375 C 89.558594 143.445312 89.042969 143.746094 88.597656 144.105469 C 88.441406 144.242188 88.285156 144.375 88.140625 144.523438 C 87.546875 144.636719 86.957031 144.8125 86.5 145.199219 C 86.898438 144.996094 87.335938 144.929688 87.78125 144.917969 C 87.054688 145.792969 86.578125 146.847656 86.277344 147.933594 C 86.148438 148.40625 86.042969 148.894531 85.992188 149.386719 C 86.257812 148.371094 86.65625 147.351562 87.21875 146.460938 C 87.113281 147.226562 87.015625 148.011719 87.121094 148.785156 C 87.121094 147.769531 87.402344 146.761719 87.695312 145.792969 C 88.0625 145.335938 88.480469 144.929688 88.957031 144.589844 C 89.714844 144.054688 90.609375 143.757812 91.523438 143.707031 C 93.445312 143.589844 94.503906 145.511719 95.136719 147.101562 C 96.15625 149.773438 96.566406 152.683594 96.789062 155.523438 C 96.808594 155.910156 97.140625 156.199219 97.527344 156.171875 C 97.90625 156.140625 98.1875 155.8125 98.160156 155.433594 C 98.121094 154.921875 98.070312 154.4375 98.003906 153.933594 Z M 98.011719 153.933594 " fill-opacity="1" fill-rule="nonzero"/><path fill="#87af26" d="M 108.730469 138.492188 C 108.585938 139.140625 109.246094 140.90625 110.449219 142.222656 C 111.042969 142.875 112.132812 143.640625 112.460938 143.601562 C 112.792969 143.5625 112.617188 142.457031 112.890625 142.378906 C 113.160156 142.300781 114.007812 143.542969 117.785156 143.640625 C 121.097656 143.71875 122.246094 144.171875 122.578125 144.019531 C 122.90625 143.863281 122.789062 142.523438 121.945312 141.070312 C 120.351562 138.339844 119.4375 137.96875 119.59375 137.765625 C 119.75 137.5625 120.226562 137.359375 120.167969 137.105469 C 120.109375 136.855469 118.660156 135.835938 116.425781 135.449219 C 113.363281 134.917969 109.449219 135.371094 108.730469 138.503906 Z M 108.730469 138.492188 " fill-opacity="1" fill-rule="nonzero"/><path fill="#51761d" d="M 113.714844 138.976562 C 115.695312 139.160156 117.648438 139.617188 119.601562 140.160156 C 118.601562 139.695312 117.5625 139.296875 116.492188 138.976562 C 116.648438 138.9375 116.796875 138.910156 116.949219 138.871094 C 117.398438 138.785156 117.855469 138.695312 118.3125 138.675781 C 117.425781 138.601562 116.542969 138.65625 115.667969 138.746094 C 114.570312 138.464844 113.453125 138.261719 112.324219 138.171875 C 112.101562 138.152344 111.878906 138.132812 111.644531 138.125 C 112.042969 137.84375 112.472656 137.589844 112.910156 137.367188 C 113.636719 137.011719 114.425781 136.757812 115.242188 136.71875 C 113.675781 136.476562 112.132812 137.175781 110.886719 138.105469 C 107.847656 138.105469 104.785156 139.035156 102.445312 141.023438 C 99.585938 143.40625 97.761719 146.875 96.984375 150.480469 C 96.886719 150.976562 97.234375 151.460938 97.742188 151.527344 C 98.34375 151.597656 98.742188 151.152344 98.78125 150.578125 C 100.171875 143.824219 104.621094 138.863281 111.859375 138.890625 C 112.238281 138.890625 112.605469 138.910156 112.984375 138.929688 C 113.238281 139.230469 113.5 139.511719 113.78125 139.792969 C 114.472656 140.449219 115.222656 141.0625 116.066406 141.507812 C 116.484375 141.730469 116.941406 141.925781 117.417969 141.972656 C 116.550781 141.605469 115.851562 140.984375 115.164062 140.363281 C 114.734375 139.976562 114.210938 139.453125 113.726562 138.976562 Z M 113.714844 138.976562 " fill-opacity="1" fill-rule="nonzero"/><path fill="#87af26" d="M 107.148438 136.699219 C 107.613281 136.738281 108.46875 136.292969 109.011719 135.441406 C 109.292969 135.011719 109.632812 133.984375 109.527344 133.851562 C 109.421875 133.714844 109.1875 134.140625 109.042969 134.015625 C 108.894531 133.890625 109.082031 133.40625 108.945312 132.542969 C 108.875 132.105469 108.671875 131.261719 108.554688 131.222656 C 108.4375 131.183594 108.324219 131.542969 108.128906 131.5625 C 108.03125 131.5625 107.914062 130.835938 107.652344 130.207031 C 107.351562 129.488281 106.882812 128.886719 106.777344 128.886719 C 106.5625 128.886719 106.242188 129.316406 105.941406 130.207031 C 105.15625 132.53125 105.628906 132.96875 105.425781 133.035156 C 105.222656 133.105469 105.039062 132.503906 104.863281 132.582031 C 104.679688 132.660156 104.222656 136.488281 107.136719 136.699219 Z M 107.148438 136.699219 " fill-opacity="1" fill-rule="nonzero"/><path fill="#87af26" d="M 101.101562 32.898438 C 101.394531 33.265625 102.152344 33.789062 103.171875 33.796875 C 103.6875 33.796875 104.5625 33.566406 104.609375 33.410156 C 104.660156 33.253906 104.359375 33.253906 104.398438 33.0625 C 104.4375 32.867188 104.929688 32.769531 105.59375 32.199219 C 105.921875 31.90625 106.535156 31.289062 106.503906 31.171875 C 106.476562 31.054688 106.105469 31.152344 105.992188 30.988281 C 105.933594 30.910156 106.496094 30.414062 106.882812 29.863281 C 107.320312 29.222656 107.867188 28.527344 107.660156 28.117188 C 107.515625 27.828125 106.234375 27.847656 105.308594 28.050781 C 103.5625 28.449219 102.96875 29.195312 102.8125 29.070312 C 102.65625 28.941406 102.8125 28.574219 102.65625 28.46875 C 102.492188 28.351562 99.34375 30.65625 101.101562 32.886719 Z M 101.101562 32.898438 " fill-opacity="1" fill-rule="nonzero"/><path fill="#51761d" d="M 108.546875 133.96875 C 108.410156 134.257812 108.207031 134.5 107.980469 134.722656 C 107.828125 134.878906 107.660156 135.03125 107.488281 135.179688 C 107.496094 134.578125 107.457031 133.96875 107.371094 133.375 C 107.507812 133.152344 107.601562 132.921875 107.660156 132.667969 C 107.730469 132.417969 107.75 132.164062 107.71875 131.902344 C 107.699219 132.347656 107.535156 132.765625 107.332031 133.152344 C 107.292969 132.910156 107.242188 132.679688 107.183594 132.445312 C 107.222656 133.09375 107.261719 133.761719 107.234375 134.414062 C 106.921875 134.023438 106.613281 133.628906 106.417969 133.164062 C 106.476562 133.742188 106.804688 134.285156 107.214844 134.695312 C 107.203125 134.867188 107.195312 135.03125 107.167969 135.199219 C 107 136.660156 106.5625 138.164062 105.640625 139.335938 C 105.320312 139.695312 105.863281 140.152344 106.164062 139.78125 C 106.417969 139.441406 106.59375 139.074219 106.769531 138.695312 C 107.195312 137.679688 107.410156 136.59375 107.449219 135.5 C 107.5625 135.402344 107.671875 135.304688 107.777344 135.199219 C 108.109375 134.839844 108.410156 134.433594 108.515625 133.957031 Z M 108.546875 133.96875 " fill-opacity="1" fill-rule="nonzero"/><path fill="#e34440" d="M 125.460938 107.234375 C 121.496094 107.421875 117.660156 108.980469 115.804688 112.664062 C 114.113281 116.035156 114.570312 120.242188 116.550781 123.394531 C 118.691406 126.785156 122.632812 128.53125 126.589844 128.355469 C 132.605469 128.09375 137.421875 122.683594 136.925781 117.113281 C 136.433594 111.539062 131.691406 106.953125 125.460938 107.234375 Z M 125.460938 107.234375 " fill-opacity="1" fill-rule="nonzero"/><path fill="#cf3b36" d="M 125.460938 107.234375 C 123.617188 107.324219 121.800781 107.699219 120.195312 108.464844 C 123.265625 108.882812 126.53125 110.335938 128.394531 112.972656 C 131.496094 117.34375 129.230469 124.554688 123.800781 125.757812 C 121.984375 126.15625 120.1875 126.117188 118.476562 125.632812 C 120.671875 127.539062 123.636719 128.480469 126.597656 128.355469 C 132.613281 128.09375 137.433594 122.683594 136.9375 117.113281 C 136.441406 111.539062 131.699219 106.953125 125.472656 107.234375 Z M 125.460938 107.234375 " fill-opacity="1" fill-rule="nonzero"/><path fill="#fbc9ab" d="M 116.988281 116.8125 C 117.621094 117.625 118.601562 117.683594 119.515625 117.382812 C 121.128906 116.859375 122.710938 115.609375 123.179688 113.933594 C 123.578125 112.507812 123.121094 110.9375 121.449219 110.792969 C 119.671875 110.648438 117.640625 111.925781 116.863281 113.488281 C 116.359375 114.503906 116.269531 115.882812 116.988281 116.8125 Z M 116.988281 116.8125 " fill-opacity="1" fill-rule="nonzero"/><path fill="#51761d" d="M 122.984375 108.652344 C 123.976562 109.582031 124.644531 109 125.113281 109.289062 C 125.578125 109.582031 126.101562 109.570312 126.53125 109.542969 C 126.957031 109.511719 128.085938 109.039062 128.902344 109.105469 C 129.914062 109.195312 129.609375 108.71875 131.253906 107.925781 C 131.933594 107.59375 132.585938 107.554688 132.585938 107.457031 C 132.585938 107.234375 132.011719 107.167969 131.15625 107.109375 C 130.457031 107.070312 129.863281 107.253906 129.726562 107.226562 C 129.484375 107.1875 129.570312 106.710938 130.007812 106.035156 C 130.671875 105.035156 131.351562 104.667969 131.253906 104.511719 C 131.15625 104.355469 129.816406 104.804688 128.6875 105.90625 C 128.164062 106.429688 127.84375 107.160156 127.773438 107.0625 C 127.707031 106.964844 128.027344 105.859375 127.8125 104.609375 C 127.667969 103.738281 127.257812 102.875 127.125 102.960938 C 126.988281 103.046875 126.910156 104.164062 126.636719 105.105469 C 126.277344 106.375 126.027344 106.410156 125.96875 106.410156 C 125.851562 106.410156 125.890625 106.296875 125.511719 105.65625 C 125.335938 105.363281 124.851562 104.910156 124.8125 104.96875 C 124.773438 105.027344 124.890625 105.21875 125.035156 105.625 C 125.160156 105.945312 125.21875 106.375 125.035156 106.410156 C 124.851562 106.449219 124.34375 105.589844 123.199219 105.074219 C 122.769531 104.878906 121.664062 104.570312 121.710938 104.832031 C 121.730469 104.949219 122.070312 105.191406 122.507812 105.703125 C 122.800781 106.054688 123.160156 106.460938 123.324219 106.898438 C 123.421875 107.148438 123.265625 107.246094 123.121094 107.1875 C 122.828125 107.082031 122.246094 106.558594 121.476562 106.335938 C 120.652344 106.09375 119.261719 106.101562 119.261719 106.246094 C 119.261719 106.394531 120.058594 106.507812 121.15625 107.214844 C 121.710938 107.574219 122.332031 108.039062 122.976562 108.640625 Z M 122.984375 108.652344 " fill-opacity="1" fill-rule="nonzero"/><path fill="#e34440" d="M 118.535156 42.589844 C 114.140625 42.792969 109.886719 44.519531 107.828125 48.609375 C 105.953125 52.347656 106.457031 57.011719 108.664062 60.5 C 111.035156 64.261719 115.40625 66.1875 119.789062 65.996094 C 126.453125 65.703125 131.796875 59.714844 131.242188 53.542969 C 130.691406 47.367188 125.433594 42.277344 118.535156 42.589844 Z M 118.535156 42.589844 " fill-opacity="1" fill-rule="nonzero"/><path fill="#cf3b36" d="M 118.535156 42.589844 C 116.484375 42.6875 114.472656 43.101562 112.695312 43.945312 C 116.105469 44.402344 119.710938 46.019531 121.789062 48.945312 C 125.230469 53.792969 122.722656 61.789062 116.699219 63.117188 C 114.6875 63.5625 112.695312 63.523438 110.800781 62.972656 C 113.238281 65.085938 116.511719 66.132812 119.796875 65.984375 C 126.464844 65.695312 131.808594 59.707031 131.253906 53.53125 C 130.699219 47.359375 125.441406 42.269531 118.542969 42.578125 Z M 118.535156 42.589844 " fill-opacity="1" fill-rule="nonzero"/><path fill="#fbc9ab" d="M 109.148438 53.191406 C 109.847656 54.09375 110.9375 54.152344 111.957031 53.820312 C 113.742188 53.242188 115.503906 51.855469 116.019531 49.992188 C 116.453125 48.414062 115.960938 46.667969 114.09375 46.515625 C 112.132812 46.347656 109.867188 47.765625 109.011719 49.507812 C 108.449219 50.632812 108.351562 52.15625 109.15625 53.191406 Z M 109.148438 53.191406 " fill-opacity="1" fill-rule="nonzero"/><path fill="#51761d" d="M 115.785156 44.160156 C 116.882812 45.1875 117.628906 44.546875 118.136719 44.867188 C 118.640625 45.1875 119.234375 45.175781 119.710938 45.136719 C 120.1875 45.097656 121.429688 44.585938 122.34375 44.652344 C 123.46875 44.75 123.128906 44.21875 124.957031 43.335938 C 125.703125 42.976562 126.425781 42.929688 126.425781 42.820312 C 126.425781 42.570312 125.78125 42.492188 124.839844 42.433594 C 124.0625 42.386719 123.410156 42.589844 123.257812 42.570312 C 122.992188 42.519531 123.082031 41.996094 123.566406 41.25 C 124.296875 40.148438 125.042969 39.738281 124.9375 39.566406 C 124.832031 39.390625 123.34375 39.886719 122.101562 41.117188 C 121.515625 41.6875 121.15625 42.5 121.089844 42.394531 C 121.023438 42.289062 121.363281 41.058594 121.128906 39.671875 C 120.964844 38.703125 120.507812 37.753906 120.359375 37.839844 C 120.214844 37.925781 120.117188 39.175781 119.816406 40.214844 C 119.417969 41.621094 119.136719 41.660156 119.078125 41.660156 C 118.953125 41.660156 118.992188 41.523438 118.5625 40.824219 C 118.367188 40.503906 117.824219 40 117.796875 40.058594 C 117.765625 40.117188 117.882812 40.339844 118.046875 40.785156 C 118.183594 41.144531 118.253906 41.621094 118.046875 41.660156 C 117.84375 41.699219 117.28125 40.746094 116.007812 40.175781 C 115.542969 39.960938 114.308594 39.613281 114.355469 39.902344 C 114.375 40.039062 114.753906 40.300781 115.242188 40.875 C 115.5625 41.25 115.960938 41.714844 116.144531 42.191406 C 116.25 42.472656 116.074219 42.578125 115.921875 42.519531 C 115.601562 42.40625 114.949219 41.824219 114.105469 41.570312 C 113.179688 41.300781 111.644531 41.308594 111.644531 41.472656 C 111.644531 41.640625 112.53125 41.765625 113.742188 42.550781 C 114.355469 42.949219 115.046875 43.460938 115.765625 44.128906 Z M 115.785156 44.160156 " fill-opacity="1" fill-rule="nonzero"/><path fill="#87af26" d="M 121.03125 97.15625 C 123.167969 97.03125 124.761719 95.441406 125.800781 93.773438 C 126.492188 92.667969 127.269531 90.960938 127.125 90.769531 C 126.976562 90.574219 125.792969 91.351562 125.636719 91.097656 C 125.480469 90.847656 126.121094 89.828125 126.355469 87.878906 C 126.464844 87.019531 126.328125 85.410156 126.09375 85.261719 C 125.859375 85.117188 125.308594 85.953125 125.09375 85.972656 C 124.742188 86.011719 125.101562 85.136719 123.78125 81.792969 C 123.304688 80.59375 122.265625 79.304688 121.800781 79.292969 C 121.496094 79.292969 120.816406 79.992188 120 81.25 C 118.332031 83.820312 118.351562 84.722656 117.960938 84.777344 C 117.574219 84.835938 117.4375 84.089844 117.195312 84.128906 C 116.941406 84.167969 116.667969 84.769531 116.472656 85.84375 C 116 88.480469 116.679688 89.460938 116.425781 89.605469 C 116.171875 89.75 115.667969 89.148438 115.445312 89.238281 C 115.222656 89.324219 115.269531 91.417969 116.183594 93.570312 C 116.980469 95.421875 118.671875 97.292969 121.011719 97.144531 Z M 121.03125 97.15625 " fill-opacity="1" fill-rule="nonzero"/><path fill="#51761d" d="M 121.457031 94.054688 C 121.625 93.171875 121.769531 92.28125 121.875 91.398438 C 122.003906 90.371094 122.082031 89.335938 122.128906 88.308594 C 122.578125 87.746094 122.847656 87.09375 123.050781 86.417969 C 123.167969 86 123.257812 85.554688 123.285156 85.117188 C 122.976562 85.933594 122.597656 86.71875 122.148438 87.464844 C 122.179688 86 122.109375 84.527344 121.953125 83.074219 C 121.914062 85.292969 121.761719 87.484375 121.449219 89.664062 C 121.363281 90.285156 121.253906 90.914062 121.136719 91.535156 C 120.796875 90.960938 120.488281 90.371094 120.226562 89.769531 C 119.847656 88.886719 119.59375 87.96875 119.542969 87.007812 C 119.273438 88.839844 119.941406 90.808594 120.992188 92.328125 C 120.457031 95.023438 119.71875 97.6875 118.75 100.246094 C 118.652344 100.480469 118.75 100.75 118.992188 100.847656 C 119.222656 100.945312 119.496094 100.839844 119.59375 100.605469 C 119.894531 99.898438 120.128906 99.199219 120.359375 98.484375 C 120.730469 97.300781 121.042969 96.097656 121.304688 94.878906 C 121.914062 94.441406 122.460938 93.929688 122.945312 93.375 C 123.5 92.726562 124.003906 91.980469 124.167969 91.128906 C 123.46875 92.269531 122.488281 93.191406 121.457031 94.054688 Z M 121.457031 94.054688 " fill-opacity="1" fill-rule="nonzero"/><g clip-path="url(#e50ff95afa)"><path fill="#87af26" d="M 129.738281 96.914062 C 129.230469 98.472656 130.933594 102.3125 135.226562 104.125 C 136.65625 104.734375 139.394531 105.421875 139.636719 105.179688 C 139.882812 104.9375 139.589844 104.09375 139.832031 103.785156 C 140.074219 103.476562 141.386719 104.308594 144.398438 104.230469 C 145.855469 104.191406 147.257812 103.960938 147.238281 103.667969 C 147.21875 103.378906 146.75 103.097656 146.75 102.835938 C 146.75 102.488281 148.394531 102.816406 150.257812 102.527344 C 151.628906 102.3125 152.746094 102.078125 153.058594 101.613281 C 153.367188 101.148438 152.289062 99.113281 149.210938 96.214844 C 147.984375 95.0625 145.796875 94.414062 145.796875 94.054688 C 145.796875 93.695312 146.207031 93.375 146.207031 93.113281 C 146.207031 92.851562 145.058594 92.464844 142.6875 92.476562 C 140.765625 92.484375 139.8125 92.773438 139.597656 92.589844 C 139.386719 92.40625 139.746094 91.738281 139.734375 91.417969 C 139.734375 91.03125 136.539062 91.398438 133.703125 92.734375 C 132 93.539062 130.425781 94.828125 129.746094 96.914062 Z M 129.738281 96.914062 " fill-opacity="1" fill-rule="nonzero"/></g><path fill="#51761d" d="M 138.25 98.347656 C 140.484375 98.648438 142.699219 99.113281 144.886719 99.703125 C 144.390625 99.394531 143.855469 99.152344 143.320312 98.910156 C 142.84375 98.707031 142.367188 98.523438 141.875 98.359375 C 142.457031 98.261719 143.050781 98.183594 143.621094 98.144531 C 143.777344 98.136719 143.921875 98.136719 144.078125 98.125 C 143 97.796875 141.855469 97.84375 140.746094 98 C 138.667969 97.398438 136.507812 97.070312 134.34375 96.960938 C 134.382812 96.933594 134.410156 96.914062 134.410156 96.914062 C 135.382812 96.148438 136.34375 95.351562 137.5 94.867188 C 136.054688 95.054688 134.539062 95.992188 133.371094 96.933594 C 132.660156 96.921875 131.960938 96.933594 131.253906 96.953125 C 126.558594 97.203125 121.875 98.378906 117.679688 100.507812 C 109.671875 104.667969 102.734375 112.761719 98.0625 120.359375 C 97.742188 120.902344 97.945312 121.609375 98.507812 121.898438 C 99.054688 122.179688 99.722656 121.96875 100.003906 121.425781 C 100.121094 121.191406 100.265625 120.941406 100.402344 120.6875 C 104.679688 113.273438 110.691406 105.8125 118.242188 101.566406 C 121.214844 99.898438 124.53125 98.863281 127.902344 98.347656 C 131.050781 97.875 134.214844 97.882812 137.363281 98.230469 C 137.683594 98.773438 138.09375 99.257812 138.550781 99.695312 C 139.09375 100.191406 139.753906 100.617188 140.484375 100.769531 C 140.183594 100.558594 139.910156 100.335938 139.65625 100.09375 C 139.125 99.570312 138.667969 98.96875 138.257812 98.339844 Z M 138.25 98.347656 " fill-opacity="1" fill-rule="nonzero"/><path fill="#87af26" d="M 117.496094 74.671875 C 117.222656 75.066406 117.027344 75.523438 116.96875 76.035156 C 116.785156 77.472656 117.6875 78.855469 118.554688 79.921875 C 119.429688 81 121.167969 82.25 121.390625 82.085938 C 121.613281 81.917969 121.515625 81.339844 121.691406 81.210938 C 121.867188 81.085938 122.632812 82.007812 124.140625 82.21875 C 124.773438 82.308594 126.066406 82.296875 126.179688 82.066406 C 126.296875 81.832031 126.074219 81.726562 126.121094 81.472656 C 126.171875 81.222656 126.773438 81.511719 128.53125 81.078125 C 129.027344 80.949219 129.496094 80.746094 129.609375 80.535156 C 129.726562 80.320312 129.550781 79.789062 128.679688 78.730469 C 127.492188 77.304688 126.558594 76.96875 126.570312 76.832031 C 126.578125 76.695312 127.171875 76.597656 127.183594 76.375 C 127.191406 76.152344 126.480469 75.503906 125.480469 74.921875 C 124.082031 74.097656 123.578125 74.195312 123.527344 74.03125 C 123.480469 73.867188 123.984375 73.3125 123.90625 73.109375 C 123.828125 72.90625 122.558594 72.742188 121.136719 72.820312 C 119.777344 72.886719 118.28125 73.554688 117.496094 74.691406 Z M 117.496094 74.671875 " fill-opacity="1" fill-rule="nonzero"/><path fill="#51761d" d="M 122.769531 77.140625 C 124.042969 77.683594 125.25 78.371094 126.40625 79.136719 C 124.753906 77.808594 122.90625 76.667969 120.894531 75.949219 C 120.710938 75.882812 120.535156 75.824219 120.351562 75.753906 C 120.75 75.609375 121.136719 75.457031 121.535156 75.308594 C 121.75 75.230469 121.964844 75.15625 122.199219 75.097656 C 121.964844 75.066406 121.722656 75.085938 121.488281 75.105469 C 120.855469 75.183594 120.234375 75.328125 119.632812 75.542969 C 110.558594 73.082031 102.171875 80.417969 97.761719 87.839844 C 97.265625 88.800781 98.617188 89.539062 99.160156 88.625 C 99.277344 88.402344 99.558594 87.96875 99.683594 87.753906 C 104.125 80.796875 111.585938 73.867188 120.488281 76.335938 C 121.03125 76.484375 121.566406 76.667969 122.101562 76.871094 C 122.273438 77.113281 122.460938 77.34375 122.632812 77.578125 C 123.101562 78.1875 123.675781 78.90625 124.101562 79.535156 C 124.167969 79.632812 124.304688 79.847656 124.363281 79.953125 C 124.179688 79.3125 123.828125 78.742188 123.480469 78.179688 C 123.246094 77.820312 123.011719 77.472656 122.75 77.140625 Z M 122.769531 77.140625 " fill-opacity="1" fill-rule="nonzero"/><path fill="#87af26" d="M 83.234375 112.21875 C 85.089844 112.867188 86.769531 118.101562 85.109375 122.414062 C 84.703125 123.46875 83.585938 125.28125 83.234375 125.339844 C 82.882812 125.398438 82.671875 124.671875 82.449219 124.730469 C 82.222656 124.789062 81.601562 126.484375 80.417969 128.082031 C 79.6875 129.0625 78.386719 130.507812 78.074219 130.46875 C 77.765625 130.429688 77.558594 129.820312 77.355469 129.78125 C 77.152344 129.742188 76.773438 130.816406 75.945312 131.921875 C 75.382812 132.679688 74.277344 134.101562 73.703125 133.984375 C 73.410156 133.929688 72.136719 131.03125 71.730469 128.238281 C 71.320312 125.449219 71.816406 122.925781 71.730469 122.78125 C 71.554688 122.492188 70.914062 122.945312 70.601562 122.753906 C 70.292969 122.558594 70.796875 120.445312 72.023438 118.253906 C 72.855469 116.753906 74.65625 115.078125 74.636719 114.660156 C 74.636719 114.4375 74.003906 114.203125 74.03125 113.953125 C 74.0625 113.699219 75.382812 112.914062 77.648438 112.179688 C 79.222656 111.664062 81.367188 111.597656 83.214844 112.238281 Z M 83.234375 112.21875 " fill-opacity="1" fill-rule="nonzero"/><path fill="#87af26" d="M 84.703125 105.839844 C 85.710938 106.449219 88.003906 105.984375 89.851562 105.152344 C 91.027344 104.617188 92.132812 103.699219 92.058594 103.542969 C 91.980469 103.386719 91.601562 103.417969 91.511719 103.273438 C 91.425781 103.125 92.476562 101.769531 93.15625 100.054688 C 93.632812 98.863281 93.902344 97.097656 93.746094 97.011719 C 93.59375 96.921875 93.289062 97.261719 93.144531 97.164062 C 93 97.070312 93.007812 94.511719 92.777344 94.25 C 92.5625 94.007812 91.96875 94.230469 91.054688 94.578125 C 89.976562 94.996094 88.558594 96.128906 88.402344 95.925781 C 88.25 95.722656 88.25 95.460938 88.101562 95.324219 C 87.957031 95.1875 87.167969 95.722656 86.167969 96.632812 C 85.539062 97.203125 84.566406 98.601562 84.34375 98.550781 C 84.023438 98.472656 84.109375 98.085938 83.90625 98.058594 C 83.699219 98.027344 83.148438 99.335938 83 101.128906 C 82.855469 102.796875 83.253906 104.957031 84.703125 105.832031 Z M 84.703125 105.839844 " fill-opacity="1" fill-rule="nonzero"/><path fill="#87af26" d="M 82.542969 105.742188 C 82.410156 106.597656 80.398438 107.324219 78.347656 107.710938 C 76.976562 107.972656 75.375 108.117188 75.363281 107.847656 C 75.355469 107.574219 75.761719 107.402344 75.734375 107.226562 C 75.703125 107.050781 74.1875 107.128906 72.605469 106.898438 C 71.371094 106.710938 70.03125 106.429688 70.070312 106.21875 C 70.109375 106.003906 70.640625 105.945312 70.640625 105.703125 C 70.640625 105.460938 69.582031 105.382812 67.28125 104.9375 C 65.597656 104.617188 65.277344 104.65625 65.140625 104.347656 C 65.007812 104.039062 66.105469 102.953125 68.320312 101.652344 C 71.964844 99.519531 74.605469 99.976562 74.847656 99.675781 C 75.09375 99.375 74.585938 99.046875 74.820312 98.910156 C 75.054688 98.773438 76.5 99.035156 78.25 99.890625 C 80.503906 100.984375 82.980469 102.863281 82.523438 105.753906 Z M 82.542969 105.742188 " fill-opacity="1" fill-rule="nonzero"/><path fill="#51761d" d="M 91.007812 112.21875 C 90.863281 112.148438 90.753906 112.109375 90.628906 112.054688 C 87.820312 110.976562 84.507812 110.820312 81.796875 112.246094 C 80.523438 112.914062 79.492188 113.894531 78.667969 115.027344 C 77.6875 115.289062 76.753906 115.675781 75.878906 116.191406 C 75.558594 116.386719 75.246094 116.609375 74.976562 116.859375 C 75.984375 116.335938 77.101562 116.015625 78.210938 115.714844 C 77.726562 116.5 77.328125 117.34375 77.007812 118.199219 C 76.140625 120.570312 75.800781 123.121094 75.734375 125.613281 C 76.003906 124.050781 76.335938 122.402344 76.8125 120.816406 C 76.871094 121.714844 76.988281 122.617188 77.199219 123.488281 C 77.328125 123.964844 77.480469 124.429688 77.726562 124.847656 C 77.25 123.082031 77.257812 121.230469 77.277344 119.417969 C 77.917969 117.714844 78.785156 116.125 80.019531 114.835938 C 80.191406 114.648438 80.367188 114.476562 80.5625 114.3125 C 80.308594 115.28125 80.171875 116.277344 80.15625 117.285156 C 80.15625 117.761719 80.203125 118.226562 80.300781 118.691406 C 80.378906 117.003906 80.777344 115.359375 81.273438 113.757812 C 83.945312 111.925781 87.5 112.035156 90.503906 113.292969 C 91.242188 113.613281 91.726562 112.566406 91.007812 112.207031 Z M 91.007812 112.21875 " fill-opacity="1" fill-rule="nonzero"/><path fill="#51761d" d="M 100.21875 125.167969 C 99.878906 124.410156 99.46875 123.644531 99.074219 122.917969 C 96.304688 117.9375 92.796875 113.292969 88.394531 109.640625 C 85.992188 107.652344 83.292969 106.015625 80.359375 104.9375 C 80.144531 104.394531 79.871094 103.882812 79.570312 103.378906 C 79.230469 102.835938 78.851562 102.28125 78.335938 101.875 C 78.910156 102.757812 79.300781 103.765625 79.765625 104.726562 C 78.113281 104.144531 76.382812 103.757812 74.636719 103.609375 C 74.101562 103.066406 73.441406 102.671875 72.730469 102.398438 C 72.488281 102.3125 72.226562 102.246094 71.972656 102.214844 C 72.742188 102.542969 73.421875 103.058594 74.082031 103.570312 C 72.867188 103.503906 71.652344 103.554688 70.457031 103.738281 C 72.449219 103.71875 74.449219 103.863281 76.394531 104.28125 C 75.871094 104.375 75.34375 104.53125 74.859375 104.746094 C 74.566406 104.871094 74.285156 105.027344 74.023438 105.191406 C 74.238281 105.121094 74.46875 105.046875 74.695312 104.976562 C 75.585938 104.734375 76.519531 104.589844 77.445312 104.53125 C 77.480469 104.53125 77.511719 104.550781 77.550781 104.5625 C 87.226562 107.207031 94.351562 117.171875 97.859375 126.097656 C 98.101562 126.792969 98.898438 127.144531 99.578125 126.84375 C 100.21875 126.5625 100.511719 125.804688 100.230469 125.167969 Z M 100.21875 125.167969 " fill-opacity="1" fill-rule="nonzero"/><path fill="#51761d" d="M 91.511719 96.207031 C 90.511719 96.769531 89.558594 97.445312 88.695312 98.222656 C 88.539062 98.367188 88.382812 98.511719 88.230469 98.667969 C 88.34375 98.203125 88.460938 97.738281 88.589844 97.300781 C 88.664062 97.050781 88.742188 96.789062 88.832031 96.535156 C 88.230469 97.386719 87.851562 98.378906 87.566406 99.375 C 86.488281 100.617188 85.613281 102.050781 85.050781 103.601562 C 85.011719 103.503906 84.984375 103.417969 84.945312 103.320312 C 84.644531 102.46875 84.4375 101.554688 84.390625 100.644531 C 84.390625 100.546875 84.390625 100.277344 84.390625 100.179688 C 84.390625 100.074219 84.410156 99.820312 84.410156 99.714844 C 84.050781 101.246094 84.234375 102.875 84.796875 104.335938 C 84.496094 105.382812 84.332031 106.460938 84.34375 107.554688 C 84.382812 108.050781 85.101562 108.03125 85.109375 107.535156 C 85.109375 106.992188 85.179688 106.429688 85.265625 105.898438 C 85.507812 104.503906 85.964844 103.144531 86.605469 101.875 C 86.75 101.777344 86.898438 101.671875 87.042969 101.574219 C 87.753906 101.109375 88.480469 100.675781 89.289062 100.414062 C 88.492188 100.46875 87.734375 100.742188 87.023438 101.109375 C 88.152344 99.179688 89.714844 97.5625 91.484375 96.195312 Z M 91.511719 96.207031 " fill-opacity="1" fill-rule="nonzero"/><path fill="#87af26" d="M 73.996094 58.347656 C 75.160156 57.398438 75.605469 55.769531 75.285156 53.65625 C 74.878906 51 73.789062 49.710938 73.5 49.75 C 73.207031 49.789062 73.140625 50.527344 72.867188 50.507812 C 72.59375 50.488281 72.1875 49.199219 70.972656 47.9375 C 70.273438 47.210938 68.804688 46.125 68.582031 46.242188 C 68.359375 46.359375 68.386719 46.824219 68.175781 46.902344 C 67.960938 46.980469 67.164062 46.136719 65.027344 45.527344 C 64.0625 45.246094 62.585938 45.128906 62.226562 45.390625 C 61.867188 45.652344 61.898438 46.242188 62.519531 48.230469 C 62.925781 49.539062 64.140625 51.292969 63.96875 51.476562 C 63.792969 51.660156 63.394531 51.691406 63.277344 51.855469 C 63.160156 52.019531 63.585938 52.949219 64.539062 54.441406 C 65.910156 56.574219 66.675781 56.4375 66.640625 56.757812 C 66.609375 56.980469 65.957031 57.019531 65.957031 57.253906 C 65.957031 57.484375 67.09375 58.726562 69.351562 59.125 C 70.699219 59.367188 72.507812 59.550781 73.996094 58.339844 Z M 73.996094 58.347656 " fill-opacity="1" fill-rule="nonzero"/><path fill="#51761d" d="M 76.257812 62.253906 C 76.140625 61.875 76.023438 61.527344 75.878906 61.167969 C 75.480469 60.113281 74.996094 59.085938 74.460938 58.097656 C 74.109375 57.4375 73.730469 56.796875 73.324219 56.167969 C 73.324219 56.050781 73.324219 55.945312 73.304688 55.828125 C 73.226562 54.90625 73.109375 53.96875 72.78125 53.105469 C 72.828125 53.871094 72.828125 54.65625 72.828125 55.429688 C 72.148438 54.433594 71.398438 53.484375 70.601562 52.570312 C 70.351562 52.289062 70.089844 52.011719 69.816406 51.738281 C 69.660156 51.273438 69.484375 50.828125 69.28125 50.382812 C 69.046875 49.878906 68.796875 49.382812 68.476562 48.925781 C 68.660156 49.449219 68.816406 49.964844 68.960938 50.496094 C 69.007812 50.664062 69.058594 50.847656 69.105469 51.039062 C 68 49.992188 66.804688 49.042969 65.519531 48.230469 C 66.640625 49.1875 67.699219 50.214844 68.660156 51.332031 C 69.320312 52.085938 69.941406 52.871094 70.523438 53.6875 C 69.875 53.453125 69.214844 53.289062 68.535156 53.171875 C 68.164062 53.113281 67.785156 53.074219 67.417969 53.113281 C 68.707031 53.414062 69.921875 54.121094 71.15625 54.597656 C 71.699219 55.402344 72.207031 56.226562 72.671875 57.070312 C 71.769531 57.164062 70.867188 57.222656 69.960938 57.195312 C 69.574219 57.175781 69.195312 57.148438 68.804688 57.089844 C 70.164062 57.5625 71.605469 57.71875 73.042969 57.738281 C 73.867188 59.289062 74.566406 60.90625 75.148438 62.566406 C 75.238281 62.863281 75.558594 63.039062 75.859375 62.941406 C 76.160156 62.855469 76.324219 62.535156 76.238281 62.246094 Z M 76.257812 62.253906 " fill-opacity="1" fill-rule="nonzero"/><path fill="#87af26" d="M 62.324219 60.957031 C 62.324219 62.410156 61.160156 64.300781 59.226562 65.667969 C 57.699219 66.742188 55.007812 67.769531 54.714844 67.625 C 54.425781 67.476562 54.699219 66.800781 54.453125 66.710938 C 54.210938 66.625 53.609375 67.109375 51.988281 67.777344 C 51.140625 68.128906 48.984375 68.84375 48.90625 68.601562 C 48.828125 68.359375 49.03125 67.808594 48.789062 67.683594 C 48.441406 67.488281 47.207031 68.195312 44.425781 69.039062 C 42.40625 69.648438 39.734375 70.511719 39.382812 70.210938 C 39.035156 69.910156 38.832031 66.984375 40.550781 64.359375 C 43.589844 59.714844 46.136719 59.425781 46.089844 59.035156 C 46.039062 58.648438 44.542969 58.589844 44.367188 58.261719 C 44.195312 57.933594 45.4375 56.566406 47.644531 55.886719 C 51.625 54.664062 53.726562 55.441406 53.96875 55.257812 C 54.210938 55.074219 53.8125 54.316406 53.96875 54.101562 C 54.125 53.890625 56.765625 54.121094 59.128906 55.652344 C 60.671875 56.652344 62.316406 58.707031 62.316406 60.984375 Z M 62.324219 60.957031 " fill-opacity="1" fill-rule="nonzero"/><path fill="#51761d" d="M 98.207031 83.769531 C 98.1875 83.664062 98.167969 83.585938 98.140625 83.5 C 98.140625 83.5 98.070312 83.257812 98.070312 83.257812 C 96.253906 77.132812 92.386719 71.703125 87.539062 67.585938 C 86.828125 66.964844 85.992188 66.34375 85.226562 65.78125 C 83.894531 64.8125 82.398438 64.046875 80.894531 63.425781 C 74.878906 61.003906 68.339844 60.09375 61.886719 60.121094 C 61.207031 60.140625 60.527344 60.152344 59.847656 60.179688 C 59.730469 60.082031 59.605469 59.988281 59.488281 59.890625 C 58.828125 59.394531 58.117188 58.96875 57.378906 58.628906 C 56.398438 58.164062 55.328125 57.863281 54.25 57.796875 L 54.640625 57.894531 C 55.007812 57.988281 55.417969 58.144531 55.765625 58.289062 C 56.863281 58.773438 57.882812 59.445312 58.789062 60.230469 C 58.527344 60.238281 58.273438 60.257812 58.011719 60.265625 C 55.785156 60.480469 53.445312 60.976562 51.304688 61.847656 C 50.160156 61.808594 49.03125 61.925781 47.914062 62.136719 C 47.050781 62.320312 46.167969 62.566406 45.398438 63.011719 C 45.144531 63.164062 44.894531 63.351562 44.707031 63.574219 C 45.710938 62.972656 46.886719 62.863281 48.011719 62.710938 C 48.535156 62.640625 49.179688 62.582031 49.820312 62.535156 C 49.46875 62.71875 49.128906 62.914062 48.800781 63.125 C 48.253906 63.484375 47.742188 63.871094 47.292969 64.328125 C 49.371094 62.875 51.851562 62.246094 54.308594 61.828125 C 53.636719 62.457031 52.996094 63.117188 52.421875 63.835938 C 52.132812 64.203125 51.851562 64.601562 51.683594 65.035156 C 51.9375 64.640625 52.269531 64.320312 52.609375 64 C 53.523438 63.164062 54.53125 62.429688 55.503906 61.652344 C 56.378906 61.546875 57.253906 61.46875 58.128906 61.371094 C 59.378906 61.226562 60.644531 61.140625 61.90625 61.160156 C 68.195312 61.226562 74.578125 62.195312 80.386719 64.640625 C 81.816406 65.257812 83.175781 65.984375 84.417969 66.90625 C 85.148438 67.449219 85.945312 68.070312 86.617188 68.671875 C 91.230469 72.691406 94.980469 78.148438 96.488281 84.121094 C 96.761719 85.28125 98.429688 84.925781 98.21875 83.769531 Z M 98.207031 83.769531 " fill-opacity="1" fill-rule="nonzero"/><path fill="#87af26" d="M 69.515625 61.769531 C 70.390625 62.136719 71.75 64.300781 71.410156 67.179688 C 71.128906 69.523438 69.066406 71.675781 68.71875 71.714844 C 68.367188 71.753906 68.464844 71.046875 68.117188 71.046875 C 67.765625 71.046875 67.300781 71.832031 65.929688 72.839844 C 64.558594 73.847656 62.917969 74.816406 62.605469 74.554688 C 62.429688 74.398438 62.382812 73.632812 62.21875 73.4375 C 61.898438 73.082031 58.136719 76.066406 57.738281 75.84375 C 57.339844 75.621094 57.175781 74.261719 57.640625 71.78125 C 58.195312 68.816406 59.671875 67.546875 59.554688 67.265625 C 59.4375 66.984375 58.222656 67.710938 57.953125 67.566406 C 57.679688 67.421875 58.378906 65.648438 60.332031 63.929688 C 62.285156 62.214844 65.773438 60.210938 69.515625 61.761719 Z M 69.515625 61.769531 " fill-opacity="1" fill-rule="nonzero"/><path fill="#51761d" d="M 73.03125 61.121094 C 71.273438 61.0625 69.476562 61.371094 67.851562 62.078125 C 66.871094 62.496094 65.957031 63.050781 65.132812 63.707031 C 64.023438 63.648438 62.898438 63.84375 61.898438 64.328125 C 61.519531 64.511719 61.179688 64.753906 60.875 65.035156 C 61.226562 64.851562 61.605469 64.6875 61.996094 64.582031 C 62.792969 64.367188 63.605469 64.300781 64.433594 64.320312 C 63.636719 65.054688 62.925781 65.878906 62.335938 66.769531 C 61.578125 67.90625 60.945312 69.136719 60.574219 70.453125 C 61.199219 69.273438 61.976562 68.175781 62.847656 67.167969 C 63.238281 66.722656 63.636719 66.304688 64.0625 65.917969 C 63.984375 66.546875 63.917969 67.179688 63.851562 67.816406 C 63.742188 68.671875 63.664062 69.890625 63.460938 70.714844 C 63.898438 69.832031 64.082031 68.84375 64.289062 67.886719 C 64.453125 67.050781 64.589844 66.21875 64.695312 65.367188 C 65.539062 64.675781 66.453125 64.097656 67.425781 63.640625 C 67.472656 63.882812 67.511719 64.132812 67.550781 64.378906 C 67.765625 65.820312 67.960938 67.324219 67.628906 68.765625 C 68.386719 67.21875 68.328125 65.113281 68.066406 63.359375 C 69.601562 62.738281 71.265625 62.410156 73.023438 62.378906 C 73.828125 62.339844 73.839844 61.179688 73.03125 61.128906 Z M 73.03125 61.121094 " fill-opacity="1" fill-rule="nonzero"/><path fill="#87af26" d="M 91.902344 57.671875 C 91.699219 59.414062 90.164062 60.625 90.035156 60.585938 C 89.910156 60.546875 89.898438 60.179688 89.726562 60.0625 C 89.550781 59.949219 89.199219 60.867188 87.355469 62.207031 C 86.644531 62.71875 85.089844 63.535156 84.761719 63.320312 C 84.429688 63.105469 84.285156 62.011719 84.34375 60.90625 C 84.417969 59.433594 84.703125 59.25 84.613281 59.113281 C 84.527344 58.976562 84.097656 59.152344 84.070312 58.996094 C 84.039062 58.84375 84.214844 58.039062 85.148438 56.953125 C 86.449219 55.449219 87.324219 55.46875 87.382812 55.304688 C 87.441406 55.140625 87.199219 54.984375 87.238281 54.832031 C 87.277344 54.675781 89.714844 54.191406 91.066406 55.480469 C 91.570312 55.964844 92.027344 56.671875 91.910156 57.6875 Z M 91.902344 57.671875 " fill-opacity="1" fill-rule="nonzero"/><path fill="#51761d" d="M 97.03125 66.296875 C 96.671875 64.765625 96.226562 63.28125 95.671875 61.808594 C 94.941406 59.988281 94.144531 58.097656 92.6875 56.710938 C 91.699219 55.75 90.316406 55.710938 89.140625 56.351562 C 88.949219 56.457031 88.773438 56.566406 88.597656 56.679688 C 88.453125 56.699219 88.304688 56.730469 88.160156 56.757812 C 87.558594 56.894531 86.898438 57.011719 86.410156 57.410156 C 86.761719 57.175781 87.179688 57.117188 87.578125 57.058594 C 87.773438 57.03125 87.976562 57.011719 88.179688 57 C 87.265625 57.746094 86.558594 58.734375 86.011719 59.78125 C 86.316406 59.375 86.675781 58.941406 87.0625 58.511719 C 87.035156 58.988281 87.015625 59.453125 87.035156 59.929688 C 87.082031 59.375 87.179688 58.832031 87.285156 58.289062 C 88.023438 57.535156 88.898438 56.867188 89.859375 56.625 C 89.589844 57.148438 89.375 57.699219 89.21875 58.269531 C 89.160156 58.523438 89.113281 58.773438 89.113281 59.027344 C 89.328125 58.117188 89.851562 57.320312 90.335938 56.535156 C 90.523438 56.515625 90.714844 56.515625 90.910156 56.535156 C 91.8125 56.632812 92.417969 57.378906 92.921875 58.066406 C 93.777344 59.289062 94.359375 60.703125 94.835938 62.117188 C 95.3125 63.542969 95.699219 65.035156 95.992188 66.507812 C 96.148438 67.234375 97.195312 67.011719 97.0625 66.296875 Z M 97.03125 66.296875 " fill-opacity="1" fill-rule="nonzero"/><path fill="#87af26" d="M 100.21875 66.859375 C 99.847656 68.652344 100.394531 70.203125 101.460938 71.65625 C 101.871094 72.199219 103.113281 73.351562 103.40625 73.246094 C 103.699219 73.140625 103.714844 72.664062 103.980469 72.652344 C 104.242188 72.644531 104.542969 73.285156 105.515625 74.011719 C 106.105469 74.445312 107.070312 74.84375 107.242188 74.726562 C 107.417969 74.613281 107.496094 74.398438 107.652344 74.390625 C 107.808594 74.378906 108.1875 74.429688 108.945312 74.671875 C 109.703125 74.914062 110.945312 75.28125 111.277344 75.105469 C 111.605469 74.933594 111.867188 73.1875 111.636719 71.550781 C 111.140625 67.933594 109.90625 67.546875 110.0625 67.285156 C 110.21875 67.023438 110.996094 67.371094 111.109375 67.121094 C 111.226562 66.867188 110.761719 65.910156 109.496094 64.996094 C 107.300781 63.417969 105.757812 63.929688 105.621094 63.796875 C 105.484375 63.660156 106.027344 63.332031 105.960938 63.089844 C 105.902344 62.902344 104.269531 62.863281 102.6875 63.601562 C 101.296875 64.25 100.492188 65.480469 100.210938 66.867188 Z M 100.21875 66.859375 " fill-opacity="1" fill-rule="nonzero"/><path fill="#51761d" d="M 107.148438 68.226562 C 107.75 68.398438 108.332031 68.652344 108.894531 68.914062 C 108.273438 68.300781 107.476562 67.855469 106.613281 67.710938 C 106.425781 67.535156 106.234375 67.371094 106.039062 67.207031 C 105.117188 66.46875 104.230469 66.023438 103.394531 65.820312 C 103.648438 65.703125 103.890625 65.597656 104.144531 65.5 C 104.980469 65.179688 105.835938 64.96875 106.75 65.027344 C 105.347656 64.453125 103.660156 64.917969 102.367188 65.683594 C 99.324219 65.636719 96.964844 68.71875 95.757812 72.09375 C 95.621094 72.507812 95.867188 72.964844 96.292969 73.082031 C 96.703125 73.1875 97.128906 72.945312 97.246094 72.539062 C 97.265625 72.480469 97.285156 72.390625 97.3125 72.316406 C 98.207031 69.515625 100.363281 65.65625 103.871094 66.789062 C 104.007812 66.839844 104.144531 66.886719 104.269531 66.9375 C 104.339844 67.03125 104.417969 67.140625 104.472656 67.246094 C 104.816406 67.769531 105.085938 68.332031 105.28125 68.933594 C 105.339844 69.136719 105.386719 69.339844 105.4375 69.550781 C 105.457031 69.273438 105.457031 68.972656 105.417969 68.691406 C 105.339844 68.207031 105.203125 67.738281 105.007812 67.285156 C 106.476562 68.058594 107.710938 69.28125 108.894531 70.464844 C 108.371094 69.679688 107.796875 68.921875 107.148438 68.234375 Z M 107.148438 68.226562 " fill-opacity="1" fill-rule="nonzero"/><path fill="#87af26" d="M 118.222656 33.121094 C 119.59375 33.0625 121.722656 32.003906 123.140625 29.40625 C 124.316406 27.265625 124.265625 23.574219 124.023438 23.351562 C 123.78125 23.128906 123.277344 23.515625 122.992188 23.371094 C 122.710938 23.222656 122.992188 22.867188 122.371094 20.617188 C 122.070312 19.523438 121.097656 17.640625 120.835938 17.640625 C 120.574219 17.640625 120.253906 18.378906 119.941406 18.425781 C 119.632812 18.476562 118.601562 16.148438 115.714844 14.644531 C 113.878906 13.695312 109.304688 13.367188 108.984375 13.773438 C 108.664062 14.179688 108.625 15.363281 108.671875 17.117188 C 108.75 19.96875 109.363281 20.558594 108.964844 20.695312 C 108.691406 20.792969 108.359375 20.511719 108.097656 20.722656 C 107.855469 20.917969 107.914062 21.683594 108.605469 23.371094 C 109.253906 24.957031 110.011719 25.539062 109.742188 25.96875 C 109.46875 26.394531 108.644531 26.179688 108.410156 26.507812 C 108.175781 26.839844 108.972656 28.777344 111.363281 30.890625 C 112.851562 32.199219 115.035156 33.226562 118.214844 33.089844 Z M 118.222656 33.121094 " fill-opacity="1" fill-rule="nonzero"/><path fill="#51761d" d="M 120.417969 24.066406 C 120.410156 23.914062 120.390625 23.746094 120.371094 23.59375 C 120.136719 24.785156 119.652344 25.890625 119 26.90625 C 119 26.800781 119 26.695312 119 26.585938 C 118.941406 24.863281 118.59375 23.097656 117.796875 21.558594 C 117.765625 20.859375 117.679688 20.179688 117.542969 19.503906 C 117.398438 18.785156 117.210938 18.058594 116.851562 17.417969 C 117.164062 18.496094 117.25 19.609375 117.300781 20.722656 C 117.269531 20.683594 117.25 20.644531 117.222656 20.605469 C 116.679688 19.839844 115.980469 19.152344 115.203125 18.640625 C 116.425781 19.773438 117.25 21.238281 117.640625 22.835938 C 117.679688 22.992188 117.707031 23.15625 117.746094 23.320312 C 117.210938 22.902344 116.660156 22.527344 116.085938 22.167969 C 115.242188 21.644531 114.355469 21.179688 113.441406 20.800781 C 113.859375 21.074219 114.277344 21.335938 114.675781 21.625 C 115.804688 22.410156 116.871094 23.292969 117.894531 24.210938 C 118.066406 25.628906 118.019531 27.089844 117.835938 28.554688 C 117.105469 27.925781 116.320312 27.390625 115.492188 26.886719 C 114.84375 26.5 114.152344 26.152344 113.441406 25.898438 C 113.871094 26.160156 114.289062 26.441406 114.6875 26.742188 C 115.753906 27.535156 116.726562 28.449219 117.71875 29.339844 C 117.398438 31.335938 116.84375 33.304688 116.269531 35.097656 C 116.039062 35.792969 117.019531 36.183594 117.328125 35.523438 C 117.484375 35.15625 117.621094 34.804688 117.746094 34.449219 C 118.464844 32.363281 118.914062 30.171875 118.992188 27.972656 C 119.039062 27.90625 119.089844 27.847656 119.128906 27.796875 C 119.515625 27.285156 119.828125 26.714844 120.050781 26.113281 C 120.234375 25.609375 120.351562 25.085938 120.398438 24.550781 C 120.398438 24.453125 120.398438 24.175781 120.398438 24.078125 Z M 120.417969 24.066406 " fill-opacity="1" fill-rule="nonzero"/><g clip-path="url(#07f31a1bd7)"><path fill="#87af26" d="M 93.855469 21.691406 C 95.242188 22.777344 96.964844 22.921875 98.703125 22.738281 C 102.375 22.34375 103.765625 21.5 103.679688 21.179688 C 103.589844 20.859375 103.015625 20.867188 103.027344 20.566406 C 103.035156 20.269531 103.882812 20.289062 105.378906 18.785156 C 106.097656 18.066406 107.128906 16.527344 106.921875 16.3125 C 106.71875 16.101562 105.902344 16.304688 105.84375 16.050781 C 105.757812 15.703125 106.300781 15.644531 107.710938 13.65625 C 108.378906 12.71875 109.351562 10.0625 109.109375 9.617188 C 108.867188 9.171875 106.816406 8.558594 103.988281 8.871094 C 99.945312 9.316406 98.886719 10.324219 98.644531 10.070312 C 98.402344 9.820312 98.808594 9.402344 98.558594 9.285156 C 98.304688 9.171875 97.128906 9.480469 95.835938 10.855469 C 94.332031 12.457031 94.03125 13.6875 93.746094 13.65625 C 93.464844 13.628906 93.554688 12.824219 93.261719 12.660156 C 92.96875 12.496094 91.746094 14.367188 91.6875 16.914062 C 91.648438 18.601562 92.320312 20.308594 93.582031 21.449219 C 93.667969 21.527344 93.765625 21.605469 93.855469 21.683594 Z M 93.855469 21.691406 " fill-opacity="1" fill-rule="nonzero"/></g><path fill="#51761d" d="M 98.148438 16.945312 C 98.867188 16.234375 99.65625 15.597656 100.5 15.035156 C 101.988281 14.066406 103.648438 13.375 105.378906 12.960938 C 104.589844 13.078125 103.804688 13.222656 103.035156 13.464844 C 102.445312 13.636719 101.871094 13.851562 101.316406 14.09375 C 101.386719 13.996094 101.453125 13.898438 101.519531 13.8125 C 101.976562 13.183594 102.484375 12.574219 103.105469 12.097656 C 103.414062 11.863281 103.753906 11.660156 104.144531 11.527344 C 102.597656 11.699219 101.238281 13.125 100.550781 14.472656 C 98.402344 15.578125 96.554688 17.207031 95.070312 19.132812 C 94.875 18.289062 94.816406 17.429688 94.902344 16.566406 C 94.992188 15.605469 95.292969 14.703125 95.710938 13.832031 C 95.632812 13.949219 95.546875 14.054688 95.46875 14.171875 C 94.332031 15.800781 94.03125 17.941406 94.542969 19.851562 C 93.339844 21.578125 92.40625 23.496094 91.804688 25.472656 C 91.601562 26.34375 92.855469 26.65625 93.085938 25.800781 C 93.476562 24.328125 94.078125 22.886719 94.789062 21.527344 C 95.488281 20.191406 96.34375 18.929688 97.34375 17.796875 C 97.652344 17.679688 98.003906 17.574219 98.3125 17.484375 C 99.5 17.167969 100.753906 17.039062 101.976562 17.167969 C 100.761719 16.699219 99.421875 16.671875 98.148438 16.945312 Z M 98.148438 16.945312 " fill-opacity="1" fill-rule="nonzero"/><path fill="#87af26" d="M 86.789062 21.402344 C 88.21875 20.421875 88.714844 18.320312 88.355469 16.324219 C 88.082031 14.820312 86.34375 12.464844 86.121094 12.523438 C 85.898438 12.582031 85.972656 13.230469 85.75 13.300781 C 85.527344 13.367188 84.914062 12.496094 83.226562 11.671875 C 82.378906 11.265625 80.457031 10.730469 80.320312 10.867188 C 80.183594 11.003906 80.328125 11.320312 80.210938 11.46875 C 80.097656 11.613281 78.832031 10.554688 76.355469 10.722656 C 73.3125 10.925781 72.109375 11.980469 71.847656 12.359375 C 71.566406 12.765625 72.0625 13.746094 73.402344 15.035156 C 74.355469 15.945312 75.984375 16.632812 75.917969 16.980469 C 75.851562 17.332031 75.257812 17.5625 75.132812 17.804688 C 75.003906 18.046875 75.78125 18.707031 77.308594 19.628906 C 78.988281 20.636719 80.40625 20.625 80.457031 20.859375 C 80.503906 21.089844 80.136719 21.207031 80.066406 21.488281 C 80 21.769531 81.785156 22.324219 83.828125 22.207031 C 84.90625 22.148438 86.042969 21.925781 86.808594 21.390625 Z M 86.789062 21.402344 " fill-opacity="1" fill-rule="nonzero"/><path fill="#51761d" d="M 90.675781 24.222656 C 89.628906 22.332031 88.238281 20.625 86.636719 19.152344 C 86.636719 18.300781 86.539062 17.449219 86.382812 16.613281 C 86.316406 16.292969 86.238281 15.964844 86.082031 15.671875 C 86.167969 15.984375 86.1875 16.3125 86.21875 16.632812 C 86.257812 17.320312 86.246094 18.066406 86.246094 18.792969 C 85.769531 18.378906 85.285156 17.988281 84.78125 17.621094 C 83.964844 17.03125 83.097656 16.496094 82.203125 16.042969 C 82.039062 15.605469 81.816406 15.1875 81.574219 14.792969 C 81.292969 14.355469 80.980469 13.9375 80.589844 13.601562 C 80.988281 14.199219 81.40625 15.074219 81.757812 15.808594 C 80.183594 15.0625 78.503906 14.53125 76.792969 14.25 C 78.902344 14.761719 80.894531 15.636719 82.679688 16.835938 C 83.207031 17.195312 83.710938 17.574219 84.195312 17.972656 C 83.757812 18.085938 83.3125 18.183594 82.875 18.28125 C 82.320312 18.398438 81.523438 18.523438 80.949219 18.621094 C 82.175781 18.6875 83.417969 18.648438 84.613281 18.328125 C 86.65625 20.113281 88.335938 22.3125 89.460938 24.773438 C 89.851562 25.636719 91.105469 25.066406 90.707031 24.210938 Z M 90.675781 24.222656 " fill-opacity="1" fill-rule="nonzero"/><path fill="#87af26" d="M 78.394531 22.546875 C 79.300781 23.515625 79.085938 25.472656 77.917969 27.089844 C 77.140625 28.175781 75.132812 29.582031 74.957031 29.425781 C 74.789062 29.273438 74.90625 29.105469 74.675781 28.914062 C 74.441406 28.71875 74.160156 29.097656 72.535156 29.71875 C 71.417969 30.144531 69.902344 30.375 69.730469 30.203125 C 69.554688 30.027344 69.953125 29.574219 69.804688 29.425781 C 69.660156 29.28125 68.667969 29.84375 67.171875 30.164062 C 66.347656 30.339844 64.890625 30.523438 64.65625 30.242188 C 64.421875 29.960938 64.597656 27.769531 66.28125 25.628906 C 67.765625 23.726562 68.777344 23.28125 68.726562 23.117188 C 68.679688 22.953125 68.367188 22.921875 68.347656 22.75 C 68.320312 22.46875 69.542969 21.894531 71.777344 21.285156 C 73.730469 20.742188 76.65625 20.695312 78.394531 22.554688 Z M 78.394531 22.546875 " fill-opacity="1" fill-rule="nonzero"/><path fill="#51761d" d="M 102.636719 31.753906 C 102.6875 31.695312 102.746094 31.636719 102.792969 31.589844 C 103.503906 30.832031 104.328125 30.210938 105.183594 29.582031 C 104.484375 29.816406 103.832031 30.164062 103.222656 30.609375 C 103.445312 30.144531 103.679688 29.679688 103.96875 29.273438 C 103.355469 29.726562 102.949219 30.414062 102.609375 31.09375 C 100.152344 33.246094 98.519531 36.898438 97.761719 39.730469 C 97.613281 40.242188 98.023438 40.777344 98.558594 40.757812 C 99.003906 40.757812 99.363281 40.378906 99.363281 39.933594 C 99.363281 39.449219 99.433594 38.933594 99.507812 38.449219 C 99.878906 36.183594 100.773438 33.964844 102.25 32.1875 C 102.589844 32.113281 102.9375 32.035156 103.28125 31.976562 C 103.6875 31.910156 104.105469 31.859375 104.511719 31.910156 C 103.910156 31.703125 103.261719 31.695312 102.628906 31.753906 Z M 102.636719 31.753906 " fill-opacity="1" fill-rule="nonzero"/><path fill="#51761d" d="M 99.859375 96.429688 C 99.304688 88.492188 98.410156 80.300781 98.011719 72.375 C 97.664062 66.171875 97.898438 60.015625 98.644531 53.832031 C 99.0625 50.246094 99.597656 46.667969 99.636719 43.042969 C 99.675781 39.605469 99.335938 36.074219 98.1875 32.800781 C 96.722656 28.507812 93.535156 25.074219 89.296875 23.390625 C 87.160156 22.546875 84.875 22.101562 82.582031 22.003906 C 80.550781 21.90625 78.503906 22.128906 76.550781 22.691406 C 75.773438 22.515625 75.003906 22.476562 74.207031 22.515625 C 73.410156 22.554688 72.625 22.691406 71.875 22.941406 C 72.265625 22.875 72.652344 22.828125 73.042969 22.808594 C 73.898438 22.757812 74.769531 22.828125 75.617188 22.992188 C 75.265625 23.117188 74.917969 23.253906 74.578125 23.398438 C 73.898438 23.660156 73.234375 23.960938 72.585938 24.289062 C 71.632812 24.347656 70.679688 24.492188 69.765625 24.753906 C 69.457031 24.851562 69.144531 24.957031 68.863281 25.125 C 69.824219 24.773438 70.867188 24.707031 71.886719 24.660156 C 71.175781 25.046875 70.476562 25.464844 69.796875 25.898438 C 70.214844 25.722656 70.621094 25.550781 71.039062 25.367188 C 71.769531 25.046875 72.769531 24.609375 73.5 24.28125 C 73.519531 24.28125 73.539062 24.261719 73.558594 24.25 C 73.140625 24.785156 72.78125 25.367188 72.46875 25.957031 C 72.324219 26.238281 72.195312 26.527344 72.117188 26.828125 C 72.664062 25.734375 73.539062 24.871094 74.285156 23.921875 C 75.023438 23.621094 75.792969 23.371094 76.570312 23.175781 C 76.609375 23.175781 76.648438 23.175781 76.675781 23.144531 C 80.398438 22.246094 84.410156 22.613281 87.984375 23.96875 C 92.367188 25.675781 95.410156 29.097656 96.652344 33.613281 C 98.546875 40.59375 96.953125 47.84375 96.011719 54.847656 C 95.351562 59.78125 95.070312 64.785156 95.148438 69.757812 C 95.273438 76.851562 95.855469 84.1875 96.371094 91.273438 C 98.363281 117.957031 97.082031 144.765625 94.195312 171.339844 C 94.085938 172.269531 94.769531 173.113281 95.699219 173.21875 C 96.644531 173.328125 97.488281 172.65625 97.605469 171.71875 C 99.257812 157.449219 100.34375 143.105469 100.636719 128.734375 C 100.851562 117.957031 100.636719 107.160156 99.859375 96.398438 Z M 99.859375 96.429688 " fill-opacity="1" fill-rule="nonzero"/><path fill="#51761d" d="M 140.824219 31.742188 C 141.097656 31.742188 141.308594 31.742188 141.308594 31.742188 C 142.386719 31.742188 143.476562 31.742188 144.554688 31.792969 C 145.097656 31.8125 145.644531 31.851562 146.175781 31.878906 C 144.058594 31.421875 141.882812 31.296875 139.726562 31.375 C 139.164062 31.199219 138.597656 31.035156 138.027344 30.910156 C 137.304688 30.734375 136.585938 30.589844 135.878906 30.472656 C 136.382812 30.085938 136.9375 29.746094 137.519531 29.496094 C 138.296875 29.15625 139.132812 28.960938 139.976562 28.902344 C 139.550781 28.875 139.113281 28.84375 138.6875 28.902344 C 137.382812 29.03125 136.09375 29.515625 135.089844 30.367188 C 124.761719 29.078125 115.210938 34.28125 107.738281 41.308594 C 103.242188 45.566406 99.296875 50.421875 96.097656 55.710938 C 95.769531 56.273438 95.972656 57.011719 96.546875 57.320312 C 97.109375 57.632812 97.820312 57.417969 98.128906 56.855469 C 98.703125 55.828125 99.335938 54.800781 99.984375 53.804688 C 105.175781 45.914062 112.460938 37.78125 121.226562 33.644531 C 121.625 33.703125 122.03125 33.777344 122.421875 33.867188 C 124.140625 34.261719 125.820312 34.894531 127.289062 35.863281 C 127.394531 35.929688 127.492188 36 127.589844 36.074219 C 127.714844 36.28125 127.832031 36.503906 127.949219 36.714844 C 128.347656 37.472656 128.667969 38.265625 128.832031 39.109375 C 128.863281 38.527344 128.785156 37.9375 128.648438 37.375 C 128.601562 37.179688 128.550781 36.988281 128.492188 36.804688 C 129.4375 37.65625 130.222656 38.664062 130.835938 39.816406 C 130.699219 39.246094 130.496094 38.671875 130.222656 38.140625 C 130.15625 38.003906 130.078125 37.867188 130 37.734375 C 130.796875 38.316406 131.5625 38.953125 132.273438 39.640625 C 131.4375 38.429688 130.359375 37.394531 129.171875 36.523438 C 129.164062 36.523438 129.144531 36.503906 129.136719 36.503906 C 128.699219 35.988281 128.210938 35.523438 127.675781 35.117188 C 128 35.136719 128.320312 35.15625 128.648438 35.175781 C 129.164062 35.203125 129.882812 35.222656 130.378906 35.300781 C 129.863281 35.007812 129.261719 34.894531 128.6875 34.785156 C 128.113281 34.691406 127.542969 34.621094 126.96875 34.613281 C 125.753906 33.816406 124.375 33.246094 122.964844 32.898438 C 127.394531 31.113281 132.300781 30.570312 137.375 31.394531 C 137.460938 31.519531 137.550781 31.65625 137.628906 31.78125 C 138.269531 32.820312 138.785156 33.914062 139.238281 35.039062 C 139.425781 35.496094 139.589844 35.949219 139.773438 36.414062 C 139.734375 36.171875 139.6875 35.929688 139.636719 35.6875 C 139.308594 34.226562 138.804688 32.800781 138.042969 31.5 C 139.824219 31.8125 141.523438 32.140625 143.214844 32.808594 C 143.71875 32.992188 144.390625 33.304688 144.90625 33.515625 C 144.410156 33.285156 143.769531 32.925781 143.261719 32.722656 C 142.484375 32.363281 141.679688 32.042969 140.851562 31.742188 Z M 140.824219 31.742188 " fill-opacity="1" fill-rule="nonzero"/><path fill="#e34440" d="M 112.644531 81.097656 C 109.808594 81.222656 107.070312 82.335938 105.738281 84.984375 C 104.523438 87.394531 104.855469 90.402344 106.273438 92.648438 C 107.796875 95.070312 110.625 96.324219 113.453125 96.195312 C 117.757812 96.011719 121.195312 92.144531 120.847656 88.160156 C 120.496094 84.179688 117.105469 80.902344 112.644531 81.097656 Z M 112.644531 81.097656 " fill-opacity="1" fill-rule="nonzero"/><path fill="#cf3b36" d="M 112.644531 81.097656 C 111.324219 81.152344 110.023438 81.433594 108.875 81.976562 C 111.070312 82.277344 113.402344 83.316406 114.734375 85.207031 C 116.949219 88.335938 115.335938 93.492188 111.449219 94.34375 C 110.160156 94.636719 108.867188 94.605469 107.640625 94.25 C 109.214844 95.613281 111.324219 96.285156 113.441406 96.195312 C 117.746094 96.011719 121.1875 92.144531 120.835938 88.160156 C 120.488281 84.179688 117.085938 80.902344 112.636719 81.097656 Z M 112.644531 81.097656 " fill-opacity="1" fill-rule="nonzero"/><path fill="#fbc9ab" d="M 106.59375 87.9375 C 107.039062 88.519531 107.75 88.558594 108.398438 88.347656 C 109.554688 87.96875 110.683594 87.074219 111.015625 85.875 C 111.296875 84.855469 110.976562 83.730469 109.78125 83.625 C 108.515625 83.519531 107.058594 84.429688 106.496094 85.554688 C 106.136719 86.28125 106.066406 87.261719 106.582031 87.929688 Z M 106.59375 87.9375 " fill-opacity="1" fill-rule="nonzero"/><path fill="#51761d" d="M 110.878906 82.113281 C 111.585938 82.78125 112.0625 82.367188 112.394531 82.570312 C 112.722656 82.773438 113.101562 82.773438 113.402344 82.742188 C 113.707031 82.714844 114.511719 82.386719 115.105469 82.433594 C 115.832031 82.492188 115.609375 82.152344 116.785156 81.582031 C 117.269531 81.347656 117.738281 81.320312 117.738281 81.25 C 117.738281 81.085938 117.328125 81.039062 116.71875 81 C 116.210938 80.96875 115.792969 81.105469 115.695312 81.085938 C 115.523438 81.058594 115.582031 80.71875 115.902344 80.234375 C 116.367188 79.527344 116.851562 79.253906 116.785156 79.148438 C 116.71875 79.042969 115.753906 79.351562 114.957031 80.144531 C 114.578125 80.515625 114.355469 81.039062 114.308594 80.96875 C 114.257812 80.902344 114.484375 80.105469 114.335938 79.214844 C 114.230469 78.59375 113.9375 77.976562 113.839844 78.035156 C 113.742188 78.089844 113.6875 78.894531 113.492188 79.566406 C 113.230469 80.476562 113.054688 80.496094 113.015625 80.496094 C 112.929688 80.496094 112.957031 80.40625 112.683594 79.960938 C 112.558594 79.757812 112.207031 79.429688 112.191406 79.46875 C 112.171875 79.507812 112.246094 79.640625 112.355469 79.933594 C 112.441406 80.164062 112.480469 80.464844 112.355469 80.496094 C 112.226562 80.523438 111.859375 79.902344 111.042969 79.535156 C 110.742188 79.398438 109.945312 79.175781 109.972656 79.359375 C 109.984375 79.449219 110.238281 79.613281 110.546875 79.980469 C 110.75 80.222656 111.015625 80.523438 111.128906 80.835938 C 111.199219 81.019531 111.082031 81.085938 110.984375 81.046875 C 110.78125 80.96875 110.351562 80.601562 109.808594 80.4375 C 109.214844 80.261719 108.226562 80.273438 108.226562 80.378906 C 108.226562 80.484375 108.789062 80.5625 109.574219 81.066406 C 109.972656 81.320312 110.421875 81.65625 110.878906 82.085938 Z M 110.878906 82.113281 " fill-opacity="1" fill-rule="nonzero"/><path fill="#e34440" d="M 72.273438 70.085938 C 67.929688 70.28125 63.734375 71.996094 61.703125 76.035156 C 59.847656 79.730469 60.351562 84.332031 62.527344 87.785156 C 64.871094 91.496094 69.195312 93.40625 73.519531 93.210938 C 80.105469 92.921875 85.382812 87.007812 84.835938 80.902344 C 84.292969 74.796875 79.105469 69.777344 72.285156 70.085938 Z M 72.273438 70.085938 " fill-opacity="1" fill-rule="nonzero"/><path fill="#cf3b36" d="M 72.273438 70.085938 C 70.253906 70.171875 68.261719 70.597656 66.503906 71.433594 C 69.863281 71.886719 73.429688 73.476562 75.480469 76.367188 C 78.871094 81.152344 76.402344 89.054688 70.449219 90.371094 C 68.464844 90.808594 66.492188 90.769531 64.617188 90.226562 C 67.027344 92.320312 70.261719 93.347656 73.507812 93.210938 C 80.097656 92.921875 85.371094 87.007812 84.828125 80.902344 C 84.285156 74.804688 79.09375 69.777344 72.273438 70.085938 Z M 72.273438 70.085938 " fill-opacity="1" fill-rule="nonzero"/><path fill="#fbc9ab" d="M 63.003906 80.554688 C 63.695312 81.445312 64.761719 81.503906 65.773438 81.171875 C 67.542969 80.601562 69.273438 79.234375 69.785156 77.394531 C 70.214844 75.832031 69.730469 74.109375 67.890625 73.953125 C 65.949219 73.789062 63.722656 75.195312 62.867188 76.910156 C 62.316406 78.023438 62.21875 79.527344 63.015625 80.554688 Z M 63.003906 80.554688 " fill-opacity="1" fill-rule="nonzero"/><path fill="#51761d" d="M 69.5625 71.625 C 70.652344 72.644531 71.378906 72.015625 71.886719 72.324219 C 72.390625 72.632812 72.972656 72.632812 73.441406 72.597656 C 73.90625 72.558594 75.140625 72.042969 76.035156 72.121094 C 77.140625 72.21875 76.8125 71.695312 78.609375 70.824219 C 79.347656 70.464844 80.066406 70.425781 80.066406 70.316406 C 80.066406 70.066406 79.433594 70 78.503906 69.941406 C 77.734375 69.890625 77.09375 70.09375 76.9375 70.074219 C 76.675781 70.027344 76.761719 69.503906 77.25 68.777344 C 77.96875 67.691406 78.714844 67.273438 78.609375 67.109375 C 78.503906 66.945312 77.035156 67.429688 75.800781 68.640625 C 75.21875 69.214844 74.867188 70.007812 74.808594 69.902344 C 74.753906 69.796875 75.082031 68.582031 74.847656 67.21875 C 74.683594 66.257812 74.238281 65.328125 74.089844 65.414062 C 73.945312 65.5 73.847656 66.730469 73.558594 67.757812 C 73.160156 69.15625 72.886719 69.195312 72.828125 69.195312 C 72.703125 69.195312 72.742188 69.066406 72.324219 68.371094 C 72.128906 68.050781 71.59375 67.554688 71.566406 67.613281 C 71.535156 67.671875 71.644531 67.886719 71.816406 68.332031 C 71.953125 68.691406 72.023438 69.144531 71.816406 69.195312 C 71.613281 69.242188 71.058594 68.292969 69.804688 67.730469 C 69.339844 67.527344 68.125 67.179688 68.175781 67.46875 C 68.195312 67.605469 68.574219 67.855469 69.046875 68.429688 C 69.367188 68.804688 69.757812 69.261719 69.941406 69.738281 C 70.050781 70.019531 69.875 70.113281 69.71875 70.054688 C 69.40625 69.941406 68.757812 69.367188 67.921875 69.125 C 67.019531 68.855469 65.492188 68.875 65.492188 69.027344 C 65.492188 69.183594 66.367188 69.308594 67.570312 70.085938 C 68.175781 70.472656 68.863281 70.988281 69.5625 71.644531 Z M 69.5625 71.625 " fill-opacity="1" fill-rule="nonzero"/><path fill="#e34440" d="M 83.128906 27.625 C 79.261719 27.796875 75.511719 29.320312 73.691406 32.925781 C 72.042969 36.222656 72.488281 40.332031 74.421875 43.402344 C 76.511719 46.71875 80.367188 48.414062 84.226562 48.25 C 90.105469 47.996094 94.808594 42.714844 94.320312 37.269531 C 93.835938 31.832031 89.199219 27.34375 83.117188 27.625 Z M 83.128906 27.625 " fill-opacity="1" fill-rule="nonzero"/><path fill="#cf3b36" d="M 83.128906 27.625 C 81.320312 27.703125 79.542969 28.078125 77.976562 28.824219 C 80.980469 29.234375 84.15625 30.65625 85.984375 33.226562 C 89.015625 37.5 86.800781 44.546875 81.496094 45.71875 C 79.726562 46.105469 77.96875 46.078125 76.296875 45.59375 C 78.445312 47.453125 81.328125 48.386719 84.226562 48.25 C 90.105469 47.996094 94.808594 42.714844 94.320312 37.269531 C 93.835938 31.820312 89.199219 27.34375 83.117188 27.625 Z M 83.128906 27.625 " fill-opacity="1" fill-rule="nonzero"/><path fill="#fbc9ab" d="M 74.859375 36.96875 C 75.472656 37.761719 76.433594 37.820312 77.328125 37.519531 C 78.902344 37.007812 80.445312 35.785156 80.902344 34.148438 C 81.292969 32.75 80.84375 31.21875 79.210938 31.085938 C 77.480469 30.9375 75.492188 32.1875 74.734375 33.71875 C 74.238281 34.71875 74.148438 36.054688 74.859375 36.96875 Z M 74.859375 36.96875 " fill-opacity="1" fill-rule="nonzero"/><path fill="#51761d" d="M 80.707031 29 C 81.679688 29.910156 82.332031 29.347656 82.789062 29.621094 C 83.246094 29.890625 83.757812 29.890625 84.167969 29.863281 C 84.574219 29.835938 85.683594 29.367188 86.480469 29.4375 C 87.472656 29.523438 87.167969 29.050781 88.78125 28.273438 C 89.441406 27.953125 90.074219 27.914062 90.074219 27.816406 C 90.074219 27.59375 89.511719 27.527344 88.683594 27.480469 C 87.996094 27.441406 87.421875 27.613281 87.296875 27.59375 C 87.0625 27.554688 87.140625 27.089844 87.566406 26.433594 C 88.210938 25.464844 88.871094 25.09375 88.78125 24.949219 C 88.695312 24.804688 87.382812 25.230469 86.285156 26.316406 C 85.769531 26.820312 85.460938 27.535156 85.402344 27.441406 C 85.34375 27.34375 85.644531 26.265625 85.441406 25.046875 C 85.292969 24.191406 84.894531 23.359375 84.769531 23.4375 C 84.644531 23.515625 84.554688 24.609375 84.292969 25.53125 C 83.945312 26.769531 83.691406 26.808594 83.640625 26.808594 C 83.527344 26.808594 83.566406 26.695312 83.195312 26.074219 C 83.019531 25.792969 82.542969 25.347656 82.515625 25.40625 C 82.484375 25.464844 82.59375 25.648438 82.738281 26.042969 C 82.855469 26.363281 82.914062 26.769531 82.738281 26.808594 C 82.5625 26.847656 82.070312 26.003906 80.941406 25.5 C 80.523438 25.316406 79.445312 25.007812 79.484375 25.269531 C 79.503906 25.386719 79.832031 25.617188 80.261719 26.121094 C 80.542969 26.460938 80.902344 26.859375 81.058594 27.285156 C 81.15625 27.527344 81 27.625 80.855469 27.574219 C 80.570312 27.480469 80 26.964844 79.25 26.742188 C 78.445312 26.5 77.082031 26.519531 77.082031 26.65625 C 77.082031 26.789062 77.859375 26.90625 78.941406 27.605469 C 79.472656 27.953125 80.085938 28.410156 80.71875 29 Z M 80.707031 29 " fill-opacity="1" fill-rule="nonzero"/></svg>