<svg xmlns="http://www.w3.org/2000/svg" xmlns:xlink="http://www.w3.org/1999/xlink" width="100" zoomAndPan="magnify" viewBox="0 0 192 191.999996" height="100" preserveAspectRatio="xMidYMid meet" version="1.0"><defs><clipPath id="c5c8844a0f"><path d="M 10.121094 11.214844 L 186.371094 11.214844 L 186.371094 185.214844 L 10.121094 185.214844 Z M 10.121094 11.214844 " clip-rule="nonzero"/></clipPath></defs><path fill="#fdbc67" d="M 157.960938 81.484375 C 157.484375 82.960938 156.859375 84.386719 156.328125 85.84375 C 155.980469 86.804688 155.671875 87.785156 155.347656 88.757812 C 154.71875 90.625 153.84375 92.382812 152.882812 94.097656 C 151.984375 95.710938 151.128906 97.351562 150.191406 98.941406 C 149.375 100.316406 148.570312 101.695312 147.527344 102.945312 C 146.621094 104.027344 145.914062 105.289062 145.199219 106.519531 C 144.335938 108 143.441406 109.433594 142.320312 110.761719 C 141.4375 111.804688 140.675781 112.960938 139.730469 113.964844 C 138.113281 115.6875 136.375 117.277344 134.691406 118.929688 C 133.828125 119.785156 132.90625 120.582031 132.160156 121.566406 C 131.589844 122.316406 130.773438 122.871094 130.121094 123.566406 C 129.363281 124.375 128.5 125.070312 127.695312 125.832031 C 126.746094 126.734375 125.691406 127.523438 124.726562 128.417969 C 123.960938 129.125 123.1875 129.851562 122.359375 130.460938 C 121.507812 131.089844 120.804688 131.917969 119.851562 132.398438 C 119.496094 132.574219 119.246094 132.867188 118.980469 133.125 C 118.015625 134.066406 116.867188 134.777344 115.777344 135.523438 C 113.203125 137.28125 110.847656 139.339844 108.128906 140.90625 C 106.664062 141.746094 105.335938 142.835938 103.863281 143.679688 C 101.753906 144.886719 99.644531 146.085938 97.480469 147.195312 C 94.769531 148.582031 92.050781 149.941406 89.207031 151.003906 C 87.324219 151.707031 85.496094 152.53125 83.59375 153.175781 C 82.875 153.421875 82.167969 153.699219 81.464844 153.984375 C 80.503906 154.375 80.351562 154.429688 80.097656 153.515625 C 79.875 152.714844 79.4375 152.09375 79.046875 151.417969 C 79.914062 151.421875 80.867188 150.636719 80.957031 149.851562 C 81.089844 148.675781 80.15625 147.148438 79.105469 146.605469 C 77.71875 145.890625 76.296875 145.78125 74.808594 146.105469 C 73.570312 145.214844 72.375 144.265625 71.082031 143.464844 C 70.425781 143.058594 69.730469 142.664062 68.9375 142.464844 C 68.234375 142.285156 67.585938 141.902344 66.898438 141.648438 C 66.125 141.363281 65.296875 141.253906 64.507812 141.042969 C 63.78125 140.84375 63.054688 140.652344 62.3125 140.605469 C 61.171875 140.527344 60.027344 140.460938 58.878906 140.449219 C 57.410156 140.4375 55.964844 140.933594 54.488281 140.601562 C 54.246094 140.546875 53.898438 140.703125 53.675781 140.871094 C 53.238281 141.199219 53.140625 140.921875 53.09375 140.585938 C 52.921875 139.410156 52.4375 138.3125 52.023438 137.230469 C 51.414062 135.640625 51.074219 133.964844 50.386719 132.417969 C 49.894531 131.308594 49.523438 130.15625 49.136719 129.019531 C 48.882812 128.285156 48.570312 127.550781 48.417969 126.789062 C 48.296875 126.183594 47.90625 125.691406 47.816406 125.097656 C 47.632812 123.851562 47.21875 122.667969 46.742188 121.519531 C 46.363281 120.617188 46.148438 119.679688 45.875 118.75 C 45.683594 118.089844 45.296875 117.46875 45.097656 116.785156 C 44.835938 115.878906 44.390625 115.042969 44.171875 114.113281 C 44.070312 113.675781 43.898438 113.226562 43.621094 112.8125 C 43.148438 112.101562 43.105469 111.210938 42.800781 110.417969 C 42.589844 109.863281 42.542969 109.242188 42.148438 108.757812 C 42.105469 108.710938 42.066406 108.636719 42.070312 108.574219 C 42.136719 107.796875 41.605469 107.1875 41.460938 106.496094 C 41.273438 105.578125 40.886719 104.738281 40.667969 103.839844 C 40.398438 102.722656 39.953125 101.648438 39.714844 100.527344 C 39.378906 98.917969 38.574219 97.464844 38.234375 95.882812 C 38.007812 94.820312 37.75 93.730469 37.378906 92.769531 C 36.9375 91.628906 36.679688 90.429688 36.179688 89.304688 C 35.765625 88.375 35.425781 87.355469 35.410156 86.296875 C 35.40625 86.089844 35.351562 85.945312 35.207031 85.835938 C 34.988281 85.664062 34.878906 85.472656 35 85.195312 C 35.203125 84.726562 34.664062 84.542969 34.582031 84.144531 C 34.472656 83.628906 34.394531 83.085938 34.234375 82.566406 C 33.910156 81.515625 33.40625 80.492188 33.273438 79.421875 C 33.144531 78.414062 32.625 77.558594 32.480469 76.550781 C 32.335938 75.542969 31.832031 74.550781 31.503906 73.546875 C 31.226562 72.691406 30.75 71.902344 30.714844 70.960938 C 30.699219 70.503906 30.332031 70.152344 30.199219 69.691406 C 30.0625 69.21875 29.964844 68.710938 29.839844 68.238281 C 29.660156 67.5625 29.210938 67.042969 29.042969 66.355469 C 28.757812 65.191406 28.414062 64.039062 28.148438 62.867188 C 27.964844 62.046875 27.605469 61.261719 27.261719 60.492188 C 27.066406 60.054688 26.945312 59.585938 26.898438 59.144531 C 26.828125 58.515625 26.488281 58.011719 26.285156 57.460938 C 26.078125 56.898438 25.832031 56.351562 25.691406 55.761719 C 25.507812 54.964844 25.191406 54.210938 24.875 53.460938 C 24.804688 53.292969 24.710938 53.128906 24.867188 52.960938 C 26.382812 52.128906 27.390625 50.804688 28.335938 49.414062 C 28.355469 49.382812 28.339844 49.328125 28.339844 49.28125 C 28.289062 48.847656 28.652344 48.648438 28.863281 48.371094 C 29.867188 47.050781 30.453125 45.515625 31.144531 44.035156 C 32.011719 42.183594 32.097656 40.253906 32.003906 38.25 C 31.914062 36.410156 31.234375 34.738281 30.589844 33.097656 C 30.0625 31.761719 29.28125 30.484375 28.554688 29.210938 C 27.9375 28.132812 27.128906 27.226562 26.210938 26.457031 C 25.523438 25.886719 24.800781 25.324219 24.015625 24.839844 C 23.160156 24.308594 22.308594 23.777344 21.382812 23.421875 C 19.679688 22.769531 17.882812 22.675781 16.082031 22.820312 C 15.558594 22.859375 15.359375 22.710938 15.269531 22.21875 C 15.082031 21.179688 14.703125 20.191406 14.375 19.1875 C 14.117188 18.390625 13.785156 17.585938 13.734375 16.722656 C 14.378906 16.898438 14.90625 17.3125 15.515625 17.570312 C 16.453125 17.96875 17.457031 18.140625 18.375 18.589844 C 19.394531 19.085938 20.433594 19.601562 21.519531 19.882812 C 23.007812 20.269531 24.371094 20.964844 25.828125 21.433594 C 27.757812 22.054688 29.53125 23.082031 31.472656 23.710938 C 32.773438 24.128906 33.964844 24.863281 35.289062 25.242188 C 36.042969 25.457031 36.710938 25.847656 37.40625 26.183594 C 37.804688 26.375 38.332031 26.136719 38.636719 26.585938 C 37.820312 28.195312 37.703125 29.925781 37.808594 31.679688 C 37.886719 32.921875 38.234375 33.242188 39.488281 33.394531 C 39.707031 33.421875 39.945312 33.46875 40.128906 33.582031 C 40.699219 33.921875 41.292969 33.84375 41.769531 33.519531 C 42.339844 33.125 42.40625 32.476562 42.359375 31.78125 C 42.269531 30.484375 41.757812 29.210938 42.09375 27.886719 C 43.394531 28.304688 44.699219 28.707031 45.992188 29.140625 C 46.386719 29.273438 46.746094 29.511719 47.136719 29.652344 C 48.171875 30.023438 49.246094 30.292969 50.246094 30.738281 C 51.546875 31.328125 52.929688 31.710938 54.222656 32.304688 C 56.117188 33.175781 58.136719 33.722656 60.011719 34.636719 C 60.421875 34.835938 60.921875 34.859375 61.328125 35.0625 C 62.046875 35.425781 62.832031 35.738281 63.5625 35.917969 C 64.542969 36.152344 65.375 36.710938 66.347656 36.933594 C 66.675781 37.011719 67.058594 37 67.40625 37.222656 C 67.992188 37.601562 68.644531 37.996094 69.316406 38.105469 C 70.535156 38.300781 71.609375 38.886719 72.722656 39.304688 C 74.472656 39.964844 76.1875 40.75 77.90625 41.503906 C 78.226562 41.644531 78.605469 41.65625 78.914062 41.8125 C 80.675781 42.722656 82.566406 43.335938 84.363281 44.164062 C 84.703125 44.320312 85.160156 44.289062 85.5 44.496094 C 86.632812 45.195312 87.960938 45.386719 89.152344 45.941406 C 90.078125 46.375 91.132812 46.582031 92.050781 46.980469 C 93.136719 47.449219 94.199219 47.953125 95.339844 48.289062 C 95.578125 48.355469 95.785156 48.570312 95.675781 48.859375 C 95.464844 49.4375 95.515625 50.054688 95.472656 50.636719 C 95.296875 53.199219 95.640625 55.679688 96.917969 57.972656 C 97.183594 58.449219 97.570312 58.820312 97.84375 59.273438 C 98.679688 60.652344 99.777344 61.820312 100.847656 63 C 102.558594 64.890625 104.835938 66.03125 106.96875 67.328125 C 108.597656 68.320312 110.300781 69.242188 112.144531 69.785156 C 113.492188 70.183594 114.847656 70.652344 116.292969 70.617188 C 116.828125 70.605469 117.359375 70.523438 117.886719 70.507812 C 119.457031 70.460938 121.023438 70.269531 122.46875 69.726562 C 124.164062 69.085938 125.867188 68.429688 127.429688 67.445312 C 128.703125 66.644531 129.859375 65.761719 130.792969 64.578125 C 130.925781 64.410156 131.03125 64.261719 130.992188 64.042969 C 130.910156 63.886719 131 63.804688 131.117188 63.730469 C 131.363281 63.746094 131.628906 63.699219 131.851562 63.78125 C 133.289062 64.320312 134.71875 64.875 136.144531 65.445312 C 136.851562 65.722656 137.574219 65.941406 138.265625 66.28125 C 139.058594 66.667969 139.953125 66.835938 140.726562 67.308594 C 141.1875 67.585938 141.722656 67.777344 142.21875 67.945312 C 143.164062 68.261719 144.144531 68.527344 144.957031 69.074219 C 145.753906 69.613281 146.667969 69.863281 147.5 70.277344 C 148.3125 70.675781 149.222656 70.9375 150.035156 71.378906 C 150.707031 71.742188 151.566406 71.636719 152.152344 72.117188 C 152.992188 72.796875 154.011719 73.023438 154.953125 73.449219 C 156.148438 73.988281 157.484375 74.21875 158.535156 75.078125 C 158.691406 75.203125 158.875 75.308594 158.882812 75.539062 C 158.917969 76.519531 158.828125 77.488281 158.621094 78.449219 C 158.402344 79.460938 158.035156 80.441406 157.960938 81.484375 Z M 77.378906 73.175781 C 77.628906 73.125 77.390625 72.8125 77.613281 72.746094 C 78.132812 71.886719 78.726562 71.078125 79.261719 70.226562 C 80.121094 68.847656 80.675781 67.363281 81.101562 65.816406 C 81.292969 65.109375 81.320312 64.347656 81.554688 63.65625 C 81.832031 62.839844 81.800781 62.003906 81.78125 61.191406 C 81.75 60.046875 81.699219 58.894531 81.425781 57.765625 C 81.28125 57.164062 81.402344 56.425781 81.171875 55.941406 C 80.789062 55.136719 80.738281 54.253906 80.359375 53.441406 C 79.980469 52.636719 79.570312 51.8125 79.179688 51.015625 C 78.523438 49.671875 77.429688 48.550781 76.371094 47.523438 C 74.984375 46.183594 73.703125 44.695312 71.890625 43.808594 C 70.449219 43.101562 69.019531 42.386719 67.480469 41.972656 C 65.800781 41.519531 64.140625 40.992188 62.332031 41.011719 C 60.457031 41.035156 58.679688 41.390625 56.902344 41.867188 C 55.867188 42.148438 54.921875 42.714844 53.910156 43 C 52.464844 43.40625 51.296875 44.183594 50.207031 45.140625 C 50 45.324219 49.808594 45.539062 49.796875 45.816406 C 49.75 46.863281 48.996094 47.527344 48.433594 48.273438 C 47.453125 49.582031 46.601562 50.960938 45.835938 52.402344 C 45.210938 53.578125 44.941406 54.882812 44.390625 56.085938 C 43.828125 57.105469 43.589844 58.210938 43.582031 59.371094 C 43.570312 60.433594 43.578125 61.492188 43.578125 62.554688 C 43.582031 63.882812 43.738281 65.167969 44.050781 66.484375 C 44.425781 68.042969 44.964844 69.519531 45.597656 70.964844 C 45.992188 71.867188 46.472656 72.761719 47.070312 73.542969 C 47.59375 74.226562 48.019531 74.980469 48.605469 75.636719 C 49.257812 76.367188 50.128906 76.855469 50.683594 77.664062 C 51.015625 78.140625 51.5 78.4375 51.949219 78.757812 C 52.984375 79.496094 54.09375 80.140625 55.277344 80.597656 C 55.796875 80.796875 56.265625 81.121094 56.882812 81.152344 C 57.644531 81.195312 58.453125 81.300781 59.144531 81.609375 C 59.859375 81.925781 60.605469 81.902344 61.273438 81.878906 C 62.566406 81.832031 63.875 81.820312 65.164062 81.433594 C 66.242188 81.113281 67.277344 80.695312 68.3125 80.285156 C 69.503906 79.8125 70.621094 79.15625 71.808594 78.6875 C 72.449219 78.433594 72.875 77.914062 73.460938 77.597656 C 73.734375 77.453125 74.15625 77.335938 74.375 77.039062 C 74.75 76.527344 75.101562 76 75.460938 75.480469 C 75.949219 75.097656 76.402344 74.683594 76.6875 74.109375 C 76.769531 73.945312 76.964844 73.816406 77.136719 73.726562 C 77.390625 73.59375 77.402344 73.390625 77.386719 73.160156 Z M 53.824219 104.847656 L 53.835938 104.835938 C 53.46875 104.917969 53.578125 105.261719 53.492188 105.492188 C 52.988281 106.832031 52.742188 108.246094 52.769531 109.65625 C 52.796875 111.035156 53.0625 112.414062 53.15625 113.800781 C 53.1875 114.300781 53.359375 114.867188 53.539062 115.25 C 53.917969 116.039062 53.824219 116.90625 54.199219 117.671875 C 54.429688 118.136719 54.457031 118.703125 54.726562 119.171875 C 55.265625 120.121094 55.6875 121.121094 56.308594 122.042969 C 56.867188 122.875 57.5625 123.5625 58.269531 124.1875 C 59.015625 124.851562 60.039062 125.1875 60.898438 125.738281 C 62.371094 126.683594 64.0625 127.03125 65.675781 127.597656 C 67.128906 128.105469 68.667969 127.878906 70.15625 127.929688 C 71.277344 127.96875 72.417969 127.535156 73.570312 127.476562 C 73.9375 127.457031 74 127.03125 74.414062 127.039062 C 75.085938 127.050781 75.757812 126.976562 76.394531 126.601562 C 76.675781 126.441406 77.007812 126.101562 77.308594 126.15625 C 77.957031 126.269531 78.371094 125.796875 78.910156 125.660156 C 79.363281 125.542969 79.855469 125.242188 80.132812 124.871094 C 80.550781 124.3125 81.472656 124.5 81.679688 123.71875 C 81.6875 123.695312 81.808594 123.691406 81.871094 123.699219 C 82.210938 123.742188 82.351562 123.527344 82.460938 123.265625 C 82.578125 122.988281 82.757812 122.734375 83.035156 122.640625 C 83.429688 122.511719 83.460938 122.242188 83.4375 121.914062 L 83.421875 121.925781 C 84.019531 121.785156 85.050781 120.550781 85.058594 119.917969 C 85.429688 119.292969 85.886719 118.738281 86.167969 118.035156 C 86.589844 116.980469 86.917969 115.890625 87.347656 114.839844 C 87.707031 113.960938 87.941406 113.019531 87.941406 112.082031 C 87.945312 111.296875 87.964844 110.496094 88.140625 109.765625 C 88.351562 108.882812 88.082031 108.050781 88.125 107.195312 C 88.15625 106.648438 88.261719 106.03125 88.144531 105.507812 C 87.605469 103.082031 87.351562 100.566406 86.222656 98.308594 C 85.90625 97.667969 85.738281 96.855469 85.113281 96.453125 C 84.433594 96.015625 83.972656 95.382812 83.472656 94.820312 C 82.542969 93.777344 81.355469 93.179688 80.175781 92.585938 C 77.714844 91.351562 75 91.375 72.34375 91.304688 C 70.796875 91.265625 69.226562 91.476562 67.6875 91.71875 C 66.488281 91.90625 65.226562 91.976562 64.117188 92.546875 C 62.652344 93.300781 61.183594 94.066406 59.875 95.074219 C 59.015625 95.738281 58.113281 96.34375 57.324219 97.125 C 56.746094 97.699219 56.667969 98.417969 56.320312 99.046875 C 55.886719 99.828125 55.507812 100.632812 55.132812 101.445312 C 54.683594 102.417969 54.398438 103.449219 53.945312 104.417969 C 53.796875 104.53125 53.863281 104.703125 53.824219 104.847656 Z M 131.945312 108.425781 C 132.429688 107.480469 133.085938 106.628906 133.652344 105.738281 C 134.472656 104.449219 134.875 102.984375 135.65625 101.691406 C 136.21875 100.765625 136.367188 99.640625 136.679688 98.597656 C 136.929688 97.757812 136.617188 96.992188 136.671875 96.191406 C 136.722656 95.429688 136.613281 94.664062 136.382812 93.890625 C 135.894531 92.242188 135.175781 90.691406 134.230469 89.308594 C 133.367188 88.042969 132.570312 86.671875 131.125 85.816406 C 129.929688 85.113281 128.945312 84.066406 127.832031 83.214844 C 127.183594 82.722656 126.554688 82.191406 125.785156 81.875 C 125.101562 81.59375 124.394531 81.363281 123.730469 81.054688 C 122.199219 80.339844 120.585938 80.371094 118.980469 80.449219 C 118.09375 80.496094 117.191406 80.753906 116.34375 81.046875 C 114.859375 81.5625 113.339844 82.042969 112.179688 83.199219 C 111.488281 83.894531 110.804688 84.597656 110.105469 85.285156 C 108.679688 86.683594 107.402344 88.191406 106.402344 89.9375 C 105.800781 90.988281 105.433594 92.128906 104.992188 93.242188 C 103.976562 95.054688 103.726562 97.066406 103.839844 99.058594 C 103.945312 100.863281 104.4375 102.617188 105.21875 104.304688 C 105.726562 105.414062 106.261719 106.488281 106.859375 107.550781 C 107.589844 108.847656 108.734375 109.746094 109.683594 110.816406 C 110.726562 112 112.324219 112.46875 113.667969 113.269531 C 114.40625 113 114.867188 113.777344 115.574219 113.761719 C 116.058594 113.75 116.558594 113.988281 117.039062 114.148438 C 118.046875 114.488281 119.085938 114.617188 120.140625 114.679688 C 121.300781 114.746094 122.453125 114.382812 123.625 114.636719 C 123.871094 114.691406 124.21875 114.570312 124.429688 114.410156 C 124.726562 114.1875 125.085938 114.140625 125.378906 113.976562 C 126.140625 113.550781 127.050781 113.445312 127.730469 112.867188 C 127.929688 112.699219 128.046875 112.394531 128.265625 112.292969 C 129.015625 111.941406 129.636719 111.539062 130.113281 110.785156 C 130.480469 110.207031 131.242188 109.882812 131.492188 109.144531 C 131.507812 109.09375 131.585938 109.046875 131.648438 109.027344 C 131.960938 108.929688 131.957031 108.679688 131.945312 108.425781 Z M 92.890625 126.949219 C 92.644531 127.796875 93.195312 128.820312 93.375 129.886719 C 93.527344 130.792969 93.5 131.753906 93.964844 132.609375 C 94.28125 133.199219 94.554688 133.921875 95.0625 134.246094 C 95.835938 134.738281 96.796875 134.765625 97.710938 134.398438 C 98.375 134.128906 98.878906 133.675781 99.4375 133.253906 C 100.042969 132.792969 100.191406 132.324219 100.179688 131.671875 C 100.167969 131.160156 99.988281 130.6875 99.871094 130.210938 C 99.621094 129.152344 99.042969 128.234375 98.820312 127.152344 C 98.617188 126.171875 98.171875 125.21875 98.03125 124.199219 C 97.964844 123.691406 97.671875 123.554688 97.195312 123.558594 C 96.289062 123.566406 95.433594 123.734375 94.589844 124.078125 C 93.039062 124.714844 92.816406 125.011719 92.890625 126.949219 Z M 89.53125 76.953125 C 88.203125 76.914062 87.511719 78.003906 88.03125 79.1875 C 88.15625 79.476562 88.265625 79.769531 88.40625 80.046875 C 88.550781 80.320312 88.511719 80.507812 88.300781 80.753906 C 86.675781 82.664062 86.410156 84.832031 87.160156 87.167969 C 87.441406 88.039062 88.214844 88.519531 88.960938 88.753906 C 90.578125 89.257812 92.570312 87.921875 92.699219 86.261719 C 92.851562 84.289062 93.472656 82.347656 93.160156 80.34375 C 92.980469 79.210938 92.914062 77.972656 91.414062 77.671875 C 91.183594 77.625 90.957031 77.480469 90.761719 77.335938 C 90.371094 77.039062 89.949219 76.871094 89.53125 76.953125 Z M 144.671875 83.910156 C 144.828125 83.917969 144.984375 83.941406 145.140625 83.933594 C 145.917969 83.898438 146.589844 83.585938 146.972656 82.914062 C 147.390625 82.183594 147.390625 81.308594 147.390625 80.503906 C 147.390625 79.984375 147.40625 79.316406 146.722656 78.957031 C 146.3125 78.746094 145.921875 78.722656 145.503906 78.699219 C 145.171875 78.679688 144.847656 78.738281 144.523438 78.5625 C 143.066406 77.777344 141.511719 77.625 139.914062 77.992188 C 139.554688 78.074219 139.191406 78.160156 138.871094 78.414062 C 137.910156 79.167969 137.847656 80.242188 138.074219 81.230469 C 138.28125 82.125 139.171875 82.695312 139.960938 83.070312 C 141.429688 83.765625 143.027344 84.039062 144.671875 83.910156 Z M 46.792969 88.925781 C 46.820312 87.636719 46.40625 86.378906 45.515625 85.429688 C 44.558594 84.414062 43.269531 83.78125 41.949219 83.296875 C 41.066406 82.972656 40.125 83.335938 39.648438 84.074219 C 39.417969 84.4375 39.402344 84.773438 39.566406 85.152344 C 39.699219 85.460938 39.882812 85.769531 39.925781 86.089844 C 40.097656 87.429688 40.4375 88.707031 41.09375 89.902344 C 41.5625 90.753906 42.132812 91.335938 43.1875 91.40625 C 43.691406 91.4375 44.191406 91.328125 44.65625 91.394531 C 46.132812 91.609375 46.960938 90.195312 46.792969 88.925781 Z M 46.792969 88.925781 " fill-opacity="1" fill-rule="nonzero"/><path fill="#fdd8a9" d="M 143.9375 113.097656 C 144.695312 111.914062 145.441406 110.722656 146.21875 109.554688 C 146.992188 108.394531 147.882812 107.300781 148.554688 106.089844 C 149.074219 105.160156 149.769531 104.367188 150.304688 103.449219 C 150.753906 102.671875 151.144531 101.808594 151.832031 101.121094 C 152.363281 100.585938 152.632812 99.757812 152.976562 99.054688 C 153.570312 97.832031 154.363281 96.738281 154.960938 95.527344 C 155.570312 94.289062 156.265625 93.09375 156.78125 91.796875 C 157.347656 90.371094 157.824219 88.917969 158.296875 87.46875 C 158.808594 85.882812 159.371094 84.308594 159.972656 82.765625 C 160.71875 80.863281 161.125 78.882812 161.675781 76.933594 C 161.894531 76.15625 161.667969 75.292969 161.984375 74.511719 C 162.210938 74.492188 162.390625 74.730469 162.625 74.648438 C 163.175781 74.445312 163.714844 74.550781 164.269531 74.640625 C 164.875 74.734375 165.503906 74.851562 166.085938 74.867188 C 167.304688 74.898438 168.464844 75.230469 169.640625 75.402344 C 170.8125 75.578125 171.996094 75.875 173.148438 76.289062 C 174.8125 76.890625 176.441406 77.5625 177.976562 78.421875 C 179.414062 79.230469 180.746094 80.226562 182.199219 81.019531 C 182.445312 81.15625 182.792969 81.339844 182.839844 81.664062 C 182.984375 82.664062 183.007812 83.679688 183.078125 84.683594 C 183.132812 85.433594 183.058594 86.195312 183.105469 86.960938 C 183.148438 87.722656 183.183594 88.527344 183.058594 89.261719 C 182.886719 90.273438 182.742188 91.269531 182.769531 92.292969 C 182.195312 92.648438 182.472656 93.1875 182.472656 93.664062 C 182.472656 93.664062 182.476562 93.648438 182.476562 93.648438 C 182.367188 93.699219 182.355469 93.800781 182.339844 93.902344 C 182.335938 93.996094 182.332031 94.09375 182.324219 94.1875 C 182.109375 94.320312 181.929688 94.472656 181.925781 94.761719 C 181.921875 94.980469 181.9375 95.195312 181.839844 95.417969 C 181.34375 96.582031 181.226562 97.835938 181 99.066406 C 180.875 99.453125 181.164062 99.941406 180.714844 100.25 C 180.324219 100.699219 180.117188 101.214844 180.1875 101.820312 C 179.914062 102.101562 179.824219 102.480469 179.71875 102.832031 C 179.402344 103.890625 178.902344 104.898438 178.386719 105.832031 C 177.6875 107.097656 177.101562 108.421875 176.351562 109.664062 C 175.769531 110.628906 175.199219 111.613281 174.625 112.585938 C 174.304688 113.132812 173.914062 113.675781 173.484375 114.179688 C 172.925781 114.832031 172.53125 115.625 172.101562 116.378906 C 171.914062 116.707031 171.777344 117.0625 171.46875 117.304688 C 170.953125 117.710938 170.984375 118.429688 170.5625 118.890625 C 169.628906 119.898438 169.007812 121.140625 168.144531 122.179688 C 167.429688 123.035156 167.027344 124.164062 166 124.765625 C 165.644531 124.976562 165.851562 125.472656 165.535156 125.765625 C 164.75 126.492188 164.035156 127.289062 163.363281 128.128906 C 163.210938 128.320312 163.109375 128.539062 163.007812 128.726562 C 162.625 129.445312 161.992188 129.996094 161.46875 130.539062 C 160.601562 131.4375 159.863281 132.460938 158.917969 133.292969 C 158.261719 133.871094 157.710938 134.566406 157.121094 135.214844 C 156.398438 136.015625 155.605469 136.738281 154.839844 137.492188 C 154.273438 138.046875 153.699219 138.601562 153.210938 139.257812 C 152.800781 139.804688 152.167969 140.207031 151.726562 140.757812 C 151.074219 141.570312 150.191406 142.128906 149.476562 142.886719 C 148.65625 143.757812 147.6875 144.507812 146.769531 145.296875 C 145.933594 146.019531 145.035156 146.671875 144.25 147.464844 C 143.660156 148.058594 142.816406 148.402344 142.234375 149 C 140.875 150.40625 139.203125 151.417969 137.738281 152.683594 C 136.324219 153.910156 134.941406 155.15625 133.339844 156.164062 C 132.40625 156.75 131.667969 157.644531 130.746094 158.261719 C 129.867188 158.851562 129.117188 159.601562 128.210938 160.160156 C 127.042969 160.878906 126 161.796875 124.820312 162.5 C 123.71875 163.15625 122.726562 163.972656 121.558594 164.550781 C 120.539062 165.058594 119.660156 165.851562 118.691406 166.476562 C 117.347656 167.339844 116.011719 168.242188 114.46875 168.746094 C 113.929688 168.921875 113.597656 169.410156 113.082031 169.640625 C 111.539062 170.320312 109.980469 170.976562 108.488281 171.753906 C 106.839844 172.605469 105.121094 173.292969 103.449219 174.082031 C 102.03125 174.75 100.613281 175.441406 99.15625 176.011719 C 97.75 176.558594 96.382812 177.335938 94.863281 177.5 C 93.9375 177.601562 93.226562 178.164062 92.355469 178.328125 C 91.988281 178.398438 91.628906 178.574219 91.242188 178.414062 C 91.199219 178.398438 91.132812 178.375 91.113281 178.394531 C 90.425781 179.019531 89.523438 178.882812 88.71875 179.082031 C 87.9375 179.273438 87.160156 179.480469 86.390625 179.714844 C 85.472656 179.996094 84.570312 180.324219 83.65625 180.605469 C 82.871094 180.847656 82.082031 181.195312 81.285156 181.238281 C 80.496094 181.28125 79.785156 181.710938 79.019531 181.617188 C 77.726562 181.460938 76.492188 182.003906 75.203125 181.871094 C 74.984375 181.847656 74.746094 182.074219 74.511719 182.082031 C 73.117188 182.109375 71.738281 182.320312 70.332031 182.300781 C 69.558594 182.292969 68.789062 181.925781 68 182.234375 C 67.707031 182.347656 67.449219 182.039062 67.132812 181.988281 C 66.132812 181.816406 64.933594 181.835938 64.46875 180.542969 C 64.027344 179.324219 63.371094 178.191406 62.828125 177.015625 C 62.1875 175.632812 61.628906 174.226562 61.234375 172.78125 C 60.933594 171.664062 60.546875 170.550781 60.203125 169.460938 C 59.746094 168.019531 59.75 166.503906 59.234375 165.097656 C 59.164062 164.910156 59.0625 164.667969 59.3125 164.5 C 60.097656 164.5625 60.898438 164.507812 61.625 164.265625 C 62.800781 163.875 63.988281 163.589844 65.210938 163.4375 C 65.453125 163.40625 65.683594 163.34375 65.914062 163.296875 C 66.675781 163.136719 67.378906 162.699219 68.125 162.664062 C 69.085938 162.617188 69.863281 162.089844 70.761719 161.90625 C 71.355469 161.78125 71.910156 161.480469 72.492188 161.289062 C 73.5625 160.933594 74.71875 160.847656 75.695312 160.191406 C 75.984375 159.996094 76.347656 159.910156 76.71875 159.925781 C 76.894531 159.933594 77.082031 159.96875 77.242188 159.851562 C 77.980469 159.296875 78.882812 159.105469 79.714844 158.761719 C 79.890625 158.6875 80.0625 158.847656 80.222656 158.703125 C 81.042969 157.945312 82.261719 158.175781 83.144531 157.519531 C 83.503906 157.253906 84.023438 157.285156 84.464844 157.007812 C 85.304688 156.480469 86.351562 156.386719 87.238281 155.890625 C 87.890625 155.53125 88.671875 155.40625 89.332031 155.050781 C 89.816406 154.792969 90.390625 154.816406 90.816406 154.554688 C 91.835938 153.9375 92.992188 153.648438 94.027344 153.082031 C 94.898438 152.605469 95.835938 152.257812 96.695312 151.746094 C 97.046875 151.535156 97.332031 151.21875 97.800781 151.15625 C 98.585938 151.050781 99.347656 150.816406 99.84375 150.105469 C 99.902344 150.019531 100.023438 149.9375 100.121094 149.929688 C 101.144531 149.828125 101.773438 148.953125 102.6875 148.617188 C 102.90625 148.539062 103.183594 148.578125 103.355469 148.386719 C 103.960938 147.71875 104.8125 147.398438 105.511719 146.859375 C 105.726562 146.691406 106.066406 146.6875 106.304688 146.539062 C 107.21875 145.964844 107.980469 145.183594 108.96875 144.6875 C 109.722656 144.3125 110.339844 143.679688 111.007812 143.164062 C 111.667969 142.65625 112.457031 142.25 113.132812 141.742188 C 113.601562 141.386719 114.128906 141.089844 114.582031 140.683594 C 115.210938 140.125 116.042969 139.785156 116.578125 139.078125 C 116.609375 139.039062 116.714844 139.070312 116.773438 139.042969 C 117.191406 138.847656 117.671875 138.734375 117.917969 138.292969 C 118.210938 137.777344 118.667969 137.4375 119.183594 137.238281 C 119.808594 136.996094 120.289062 136.597656 120.746094 136.148438 C 120.964844 135.929688 121.191406 135.738281 121.429688 135.542969 C 121.960938 135.097656 122.664062 134.824219 122.980469 134.132812 C 123.074219 133.917969 123.261719 133.796875 123.515625 133.792969 C 123.6875 133.792969 123.847656 133.808594 124.007812 133.65625 C 125.058594 132.65625 125.957031 131.496094 127.175781 130.664062 C 127.398438 130.511719 127.738281 130.347656 127.8125 130.136719 C 128.140625 129.195312 129.132812 128.96875 129.75 128.355469 C 130.417969 127.691406 130.945312 126.9375 131.566406 126.253906 C 132.492188 125.828125 132.90625 124.792969 133.828125 124.363281 C 134.019531 124.277344 133.972656 124.050781 134.074219 123.90625 C 134.261719 123.644531 134.414062 123.410156 134.753906 123.242188 C 135.25 123.003906 135.773438 122.621094 136.03125 122.15625 C 136.253906 121.757812 136.433594 121.472656 136.875 121.34375 C 136.992188 121.308594 137.078125 121.121094 137.144531 120.984375 C 137.257812 120.757812 137.390625 120.519531 137.609375 120.425781 C 138.5625 120.023438 139.070312 119.113281 139.792969 118.460938 C 140.472656 117.847656 141.164062 117.132812 141.652344 116.324219 C 141.980469 115.785156 142.777344 115.542969 142.675781 114.738281 L 142.707031 114.769531 C 142.707031 114.769531 142.667969 114.742188 142.667969 114.742188 C 143.269531 114.792969 143.21875 114.347656 143.261719 113.972656 C 143.261719 113.972656 143.25 113.984375 143.25 113.984375 C 143.925781 114.039062 143.835938 113.496094 143.9375 113.097656 Z M 143.9375 113.097656 " fill-opacity="1" fill-rule="nonzero"/><g clip-path="url(#c5c8844a0f)"><path fill="#080706" d="M 185.96875 81.285156 C 186.160156 82.332031 186.164062 83.636719 186.253906 84.929688 C 186.347656 86.269531 186.183594 87.636719 186.070312 88.984375 C 186.003906 89.769531 185.960938 90.59375 185.746094 91.320312 C 185.460938 92.277344 185.25 93.25 185.0625 94.222656 C 184.878906 95.195312 184.394531 96.09375 184.386719 97.105469 C 184.386719 97.125 184.398438 97.152344 184.390625 97.171875 C 183.734375 98.289062 183.824219 99.625 183.300781 100.8125 C 182.933594 101.648438 182.441406 102.5 182.402344 103.492188 C 182.386719 103.910156 182.046875 104.308594 181.816406 104.675781 C 181.382812 105.371094 181.292969 106.238281 180.65625 106.835938 C 180.332031 107.140625 180.398438 107.667969 180.164062 108.066406 C 178.960938 110.074219 177.789062 112.105469 176.613281 114.132812 C 175.746094 115.628906 174.746094 117.039062 173.84375 118.507812 C 173.140625 119.648438 172.335938 120.722656 171.679688 121.894531 C 171.382812 122.425781 170.960938 122.910156 170.5625 123.382812 C 169.796875 124.285156 169.171875 125.292969 168.421875 126.195312 C 167.359375 127.464844 166.492188 128.890625 165.296875 130.0625 C 164.523438 130.820312 163.816406 131.664062 163.148438 132.519531 C 162.40625 133.472656 161.542969 134.3125 160.730469 135.191406 C 158.472656 137.640625 156.179688 140.058594 153.828125 142.417969 C 152.402344 143.847656 150.851562 145.160156 149.335938 146.5 C 147.851562 147.8125 146.375 149.140625 144.828125 150.371094 C 143.320312 151.574219 141.816406 152.777344 140.324219 153.992188 C 138.75 155.277344 137.207031 156.605469 135.597656 157.839844 C 133.347656 159.566406 131.160156 161.386719 128.777344 162.933594 C 125.367188 165.148438 122.054688 167.507812 118.539062 169.554688 C 115.949219 171.066406 113.261719 172.398438 110.527344 173.632812 C 108.0625 174.746094 105.636719 175.9375 103.160156 177.023438 C 100.589844 178.148438 98.054688 179.359375 95.320312 180.097656 C 93.027344 180.71875 90.714844 181.277344 88.421875 181.898438 C 86.5 182.421875 84.597656 183.03125 82.675781 183.558594 C 80.960938 184.03125 79.203125 184.226562 77.425781 184.339844 C 76.273438 184.410156 75.121094 184.5625 73.976562 184.738281 C 72.476562 184.964844 70.957031 184.789062 69.457031 184.960938 C 67.949219 185.128906 66.550781 184.808594 65.167969 184.226562 C 64.746094 184.046875 64.253906 184.082031 63.808594 183.816406 C 63.316406 183.519531 62.960938 183.199219 63.0625 182.617188 C 63.121094 182.269531 62.972656 182.070312 62.804688 181.835938 C 62.140625 180.914062 61.707031 179.882812 61.316406 178.820312 C 61.085938 178.1875 60.628906 177.664062 60.417969 176.992188 C 59.847656 175.183594 59.003906 173.476562 58.515625 171.625 C 58.222656 170.519531 58.027344 169.378906 57.652344 168.285156 C 57.449219 167.699219 57.269531 167.039062 57.335938 166.386719 C 57.398438 165.761719 57.039062 165.226562 57.035156 164.609375 C 57.03125 163.691406 57.179688 162.757812 57.09375 161.871094 C 57.023438 161.136719 57.09375 160.371094 56.746094 159.597656 C 56.324219 158.664062 56.015625 157.644531 55.742188 156.632812 C 55.285156 154.933594 54.605469 153.316406 53.988281 151.675781 C 53.511719 150.414062 53.136719 149.09375 52.675781 147.824219 C 51.75 145.273438 51.242188 142.601562 50.203125 140.082031 C 49.558594 138.519531 49.105469 136.863281 48.605469 135.234375 C 48.363281 134.453125 47.945312 133.726562 47.828125 132.914062 C 47.691406 131.933594 47.183594 131.089844 46.886719 130.171875 C 46.519531 129.058594 46.164062 127.925781 45.75 126.820312 C 45.535156 126.246094 45.285156 125.660156 45.140625 125.039062 C 44.988281 124.371094 44.6875 123.726562 44.492188 123.054688 C 44.285156 122.332031 44.28125 121.558594 43.90625 120.882812 C 43.257812 119.714844 43.054688 118.382812 42.484375 117.175781 C 42.050781 116.265625 41.789062 115.25 41.527344 114.269531 C 41.242188 113.210938 40.757812 112.238281 40.4375 111.203125 C 40.117188 110.15625 39.734375 109.128906 39.449219 108.070312 C 39.15625 106.992188 38.769531 105.933594 38.441406 104.863281 C 37.96875 103.316406 37.355469 101.804688 36.96875 100.238281 C 36.519531 98.410156 35.945312 96.625 35.351562 94.851562 C 34.875 93.425781 34.613281 91.941406 34.011719 90.550781 C 33.808594 90.078125 33.714844 89.527344 33.605469 89.007812 C 33.378906 87.945312 32.734375 87.023438 32.585938 85.949219 C 32.421875 84.734375 31.882812 83.625 31.675781 82.417969 C 31.566406 81.78125 31.285156 81.175781 31.09375 80.554688 C 30.984375 80.195312 30.855469 79.835938 30.800781 79.46875 C 30.640625 78.34375 30.1875 77.285156 29.859375 76.222656 C 29.484375 75.011719 29.175781 73.757812 28.707031 72.558594 C 28.347656 71.632812 28.09375 70.628906 27.730469 69.707031 C 27.214844 68.398438 27.019531 67.015625 26.527344 65.703125 C 26.007812 64.316406 25.480469 62.925781 25.179688 61.453125 C 24.957031 60.355469 24.382812 59.335938 24.089844 58.246094 C 23.632812 56.527344 22.933594 54.890625 22.386719 53.207031 C 21.886719 51.679688 21.476562 50.113281 20.800781 48.636719 C 20.519531 48.011719 20.359375 47.324219 20.199219 46.664062 C 19.691406 44.605469 18.949219 42.621094 18.460938 40.554688 C 17.972656 38.507812 17.265625 36.515625 16.746094 34.472656 C 16.359375 32.957031 15.800781 31.5 15.371094 29.996094 C 14.957031 28.535156 14.46875 27.085938 14.035156 25.625 C 13.914062 25.21875 13.863281 24.796875 13.765625 24.386719 C 13.429688 22.921875 12.761719 21.550781 12.574219 20.046875 C 12.519531 19.605469 12.285156 19.210938 12.167969 18.777344 C 11.789062 17.359375 11.347656 15.960938 10.921875 14.558594 C 10.878906 14.410156 10.800781 14.273438 10.71875 14.140625 C 10.101562 13.160156 10.152344 12.449219 10.867188 11.578125 C 11.070312 11.332031 11.25 11.289062 11.492188 11.453125 C 12.1875 11.929688 12.96875 12.175781 13.789062 12.324219 C 14.554688 12.460938 15.15625 13.011719 15.894531 13.210938 C 16.527344 13.378906 17.085938 13.714844 17.738281 13.863281 C 18.648438 14.074219 19.46875 14.59375 20.378906 14.859375 C 21.238281 15.113281 22.089844 15.398438 22.914062 15.75 C 23.753906 16.105469 24.628906 16.476562 25.464844 16.730469 C 26.507812 17.042969 27.386719 17.789062 28.535156 17.832031 C 28.929688 17.84375 29.261719 18.277344 29.683594 18.453125 C 30.640625 18.859375 31.710938 18.921875 32.621094 19.4375 C 33.757812 20.085938 35.089844 20.332031 36.1875 20.957031 C 37.488281 21.699219 39.035156 21.644531 40.277344 22.535156 C 40.605469 22.769531 41.285156 22.894531 41.816406 23.023438 C 42.328125 23.152344 42.839844 23.414062 43.371094 23.558594 C 44 23.726562 44.554688 24.109375 45.242188 24.128906 C 45.546875 24.136719 45.878906 24.273438 46.148438 24.4375 C 46.984375 24.957031 47.96875 25.019531 48.847656 25.367188 C 49.949219 25.800781 51.128906 26.066406 52.136719 26.714844 C 52.332031 26.839844 52.527344 26.773438 52.710938 26.847656 C 53.660156 27.238281 54.582031 27.78125 55.570312 27.972656 C 56.449219 28.144531 57.03125 28.886719 58.003906 28.890625 C 58.480469 28.894531 59.046875 29.367188 59.578125 29.617188 C 59.96875 29.804688 60.363281 29.851562 60.75 29.972656 C 61.34375 30.15625 61.929688 30.324219 62.394531 30.792969 C 62.550781 30.949219 62.84375 30.976562 63.097656 30.9375 C 63.410156 30.890625 63.671875 30.953125 63.84375 31.238281 C 63.953125 31.417969 64.15625 31.488281 64.308594 31.441406 C 64.882812 31.261719 65.320312 31.5625 65.691406 31.882812 C 65.964844 32.117188 66.269531 32.050781 66.546875 32.132812 C 67.554688 32.425781 68.496094 32.890625 69.507812 33.199219 C 70.246094 33.425781 71.050781 33.601562 71.730469 34.066406 C 72.019531 34.265625 72.425781 34.296875 72.78125 34.386719 C 73.480469 34.566406 74.019531 35.105469 74.710938 35.289062 C 76.300781 35.710938 77.785156 36.429688 79.308594 37.011719 C 80.175781 37.34375 81.121094 37.648438 81.910156 38.257812 C 82.257812 38.527344 82.753906 38.886719 83.320312 38.644531 C 83.488281 38.574219 83.570312 38.707031 83.640625 38.804688 C 83.808594 39.035156 84.019531 39.101562 84.285156 39.039062 C 84.480469 38.996094 84.621094 39.058594 84.757812 39.210938 C 85.078125 39.574219 85.4375 39.875 85.976562 39.683594 C 86.285156 39.570312 86.410156 39.886719 86.582031 40.003906 C 87.140625 40.375 87.816406 40.332031 88.402344 40.601562 C 88.664062 40.722656 88.902344 40.816406 89.125 41.019531 C 89.425781 41.289062 89.832031 41.4375 90.226562 41.472656 C 91.285156 41.566406 92.214844 42 93.117188 42.492188 C 93.453125 42.675781 93.773438 42.886719 94.144531 42.820312 C 94.664062 42.726562 94.972656 43.160156 95.335938 43.328125 C 96.425781 43.835938 97.539062 44.246094 98.667969 44.640625 C 99.058594 44.777344 99.464844 44.929688 99.804688 45.164062 C 100.816406 45.878906 102.015625 46.195312 103.113281 46.722656 C 103.808594 47.0625 104.550781 47.324219 105.265625 47.648438 C 105.820312 47.902344 106.425781 48.234375 107.085938 48.253906 C 107.25 48.261719 107.398438 48.300781 107.515625 48.414062 C 108.386719 49.253906 109.539062 49.46875 110.625 49.835938 C 111.144531 50.007812 111.707031 50.421875 112.125 50.4375 C 113.039062 50.46875 113.617188 51.144531 114.460938 51.328125 C 115.398438 51.53125 116.453125 51.839844 117.238281 52.558594 C 117.289062 52.605469 117.34375 52.660156 117.402344 52.667969 C 118.699219 52.8125 119.796875 53.519531 120.992188 53.933594 C 121.394531 54.074219 121.550781 54.554688 121.992188 54.675781 C 122.679688 54.863281 123.410156 54.992188 124.027344 55.324219 C 124.859375 55.777344 125.742188 56.117188 126.566406 56.574219 C 126.863281 56.738281 127.160156 56.828125 127.511719 56.855469 C 128.066406 56.898438 128.464844 57.363281 128.980469 57.554688 C 129.179688 57.625 129.363281 57.714844 129.574219 57.773438 C 129.882812 57.859375 130.285156 57.863281 130.449219 58.257812 C 130.476562 58.332031 130.589844 58.4375 130.644531 58.425781 C 131.382812 58.257812 131.925781 58.777344 132.539062 58.992188 C 133.339844 59.269531 134.21875 59.371094 134.917969 59.945312 C 135.300781 60.261719 135.859375 60.265625 136.324219 60.457031 C 137.054688 60.75 137.835938 60.902344 138.550781 61.296875 C 138.957031 61.515625 139.480469 61.550781 139.921875 61.789062 C 140.433594 62.058594 140.988281 62.253906 141.53125 62.460938 C 141.949219 62.617188 142.25 63.113281 142.804688 62.898438 C 142.855469 62.878906 142.96875 62.960938 143.03125 63.019531 C 143.652344 63.570312 144.484375 63.738281 145.191406 64.097656 C 145.742188 64.378906 146.34375 65.082031 147.164062 64.722656 C 147.226562 64.699219 147.359375 64.746094 147.410156 64.800781 C 148.109375 65.578125 149.351562 65.367188 150.015625 66.242188 C 150.140625 66.40625 150.511719 66.417969 150.773438 66.433594 C 151.058594 66.449219 151.304688 66.480469 151.445312 66.765625 C 151.476562 66.820312 151.53125 66.890625 151.585938 66.902344 C 152.636719 67.136719 153.433594 68.003906 154.488281 68.140625 C 155.136719 68.226562 155.59375 68.535156 156.089844 68.867188 C 156.179688 68.929688 156.34375 68.890625 156.476562 68.894531 C 156.609375 68.902344 156.839844 68.859375 156.863281 68.914062 C 157.28125 69.828125 158.3125 69.449219 158.988281 69.890625 C 159.34375 70.125 159.675781 70.539062 160.234375 70.648438 C 160.914062 70.785156 161.511719 70.59375 162.132812 70.546875 C 163.648438 70.4375 165.152344 70.566406 166.652344 70.707031 C 168.195312 70.851562 169.75 71.027344 171.246094 71.40625 C 172.53125 71.734375 173.847656 71.90625 175.109375 72.382812 C 176.59375 72.9375 178.078125 73.492188 179.445312 74.265625 C 180.171875 74.675781 180.917969 75.101562 181.589844 75.613281 C 182.050781 75.957031 182.585938 76.195312 183.035156 76.53125 C 183.886719 77.164062 184.984375 77.582031 185.378906 78.683594 C 185.652344 79.445312 185.992188 80.203125 185.96875 81.285156 Z M 143.257812 113.972656 C 142.902344 114.109375 142.960938 114.5625 142.664062 114.746094 L 142.703125 114.773438 C 142.703125 114.773438 142.671875 114.738281 142.671875 114.738281 C 141.796875 115.660156 140.972656 116.628906 140.027344 117.472656 C 139.664062 117.800781 139.46875 118.304688 138.992188 118.488281 C 138.234375 118.789062 138.089844 119.78125 137.253906 119.988281 C 137.214844 119.996094 137.195312 120.097656 137.171875 120.160156 C 136.921875 120.8125 136.324219 121.152344 135.800781 121.492188 C 135.5 121.6875 135.25 121.863281 135.140625 122.171875 C 135 122.5625 134.703125 122.78125 134.386719 122.96875 C 134 123.191406 133.695312 123.488281 133.390625 123.808594 C 132.648438 124.597656 131.898438 125.375 131.257812 126.253906 C 130.679688 126.480469 130.445312 127.105469 129.925781 127.417969 C 129.625 127.597656 129.144531 127.628906 129.042969 127.976562 C 128.777344 128.871094 127.902344 129.222656 127.308594 129.664062 C 126.738281 130.085938 126.515625 130.804688 125.78125 131.109375 C 125.328125 131.296875 125.074219 132.011719 124.394531 132.074219 C 124.238281 132.089844 124.085938 132.253906 124.050781 132.453125 C 124.023438 132.617188 123.964844 132.765625 123.796875 132.820312 C 123.101562 133.03125 122.664062 133.648438 122.132812 134.058594 C 121.40625 134.625 120.753906 135.269531 119.890625 135.664062 C 119.578125 135.808594 119.28125 136.066406 119.082031 136.347656 C 118.925781 136.570312 118.804688 136.84375 118.566406 136.929688 C 117.851562 137.1875 117.222656 137.527344 116.839844 138.222656 C 116.753906 138.386719 116.597656 138.5 116.398438 138.480469 C 115.917969 138.441406 115.65625 138.71875 115.464844 139.105469 C 115.390625 139.253906 115.289062 139.390625 115.132812 139.40625 C 114.496094 139.472656 113.933594 139.972656 113.667969 140.308594 C 113.074219 141.058594 112.109375 141.136719 111.519531 141.933594 C 110.816406 142.875 109.453125 143.125 108.519531 143.96875 C 107.898438 144.53125 107.097656 145.03125 106.222656 145.269531 C 106.046875 145.320312 105.898438 145.421875 105.789062 145.574219 C 105.398438 146.117188 104.707031 146.207031 104.222656 146.65625 C 103.820312 147.027344 103.125 147.015625 102.683594 147.484375 C 102.394531 147.789062 102 148 101.535156 148.046875 C 101.328125 148.070312 101.011719 148.179688 100.953125 148.332031 C 100.695312 148.992188 99.9375 149.121094 99.542969 149.199219 C 98.425781 149.421875 97.65625 150.203125 96.671875 150.601562 C 95.910156 150.910156 95.195312 151.378906 94.433594 151.65625 C 93.285156 152.078125 92.210938 152.660156 91.035156 153.042969 C 89.597656 153.507812 88.257812 154.261719 86.796875 154.699219 C 85.855469 154.984375 85.09375 155.726562 84.050781 155.761719 C 83.890625 155.765625 83.734375 155.863281 83.679688 156.015625 C 83.578125 156.292969 83.375 156.304688 83.140625 156.277344 C 82.765625 156.230469 82.410156 156.316406 82.109375 156.519531 C 81.304688 157.058594 80.320312 157.132812 79.449219 157.535156 C 78.683594 157.890625 77.878906 158.421875 76.929688 158.339844 C 76.832031 158.332031 76.703125 158.402344 76.628906 158.476562 C 75.878906 159.207031 74.808594 159.238281 73.914062 159.464844 C 72.882812 159.726562 71.871094 160.121094 70.910156 160.464844 C 69.871094 160.835938 68.785156 160.980469 67.75 161.308594 C 66.382812 161.742188 64.921875 162.035156 63.472656 162.222656 C 63.027344 162.28125 62.75 162.65625 62.308594 162.667969 C 61.617188 162.6875 60.929688 162.738281 60.238281 162.777344 C 59.179688 162.832031 58.941406 163.191406 59.308594 164.171875 C 59.34375 164.269531 59.3125 164.390625 59.3125 164.5 C 59.058594 164.671875 59.160156 164.914062 59.230469 165.101562 C 59.746094 166.507812 59.742188 168.023438 60.199219 169.464844 C 60.542969 170.554688 60.929688 171.664062 61.234375 172.785156 C 61.625 174.226562 62.1875 175.636719 62.824219 177.019531 C 63.367188 178.195312 64.027344 179.328125 64.464844 180.546875 C 64.929688 181.839844 66.128906 181.820312 67.128906 181.988281 C 67.445312 182.042969 67.703125 182.351562 67.996094 182.238281 C 68.785156 181.929688 69.554688 182.296875 70.328125 182.304688 C 71.734375 182.320312 73.113281 182.113281 74.507812 182.082031 C 74.742188 182.078125 74.980469 181.847656 75.199219 181.871094 C 76.488281 182.007812 77.722656 181.464844 79.019531 181.621094 C 79.78125 181.714844 80.496094 181.285156 81.28125 181.242188 C 82.082031 181.199219 82.867188 180.851562 83.652344 180.609375 C 84.570312 180.328125 85.46875 180 86.386719 179.71875 C 87.15625 179.484375 87.933594 179.277344 88.714844 179.085938 C 89.523438 178.886719 90.421875 179.023438 91.109375 178.398438 C 91.128906 178.378906 91.199219 178.402344 91.238281 178.417969 C 91.625 178.578125 91.988281 178.402344 92.355469 178.332031 C 93.222656 178.167969 93.9375 177.605469 94.859375 177.503906 C 96.382812 177.339844 97.746094 176.5625 99.15625 176.011719 C 100.609375 175.445312 102.027344 174.753906 103.445312 174.085938 C 105.117188 173.296875 106.835938 172.609375 108.484375 171.753906 C 109.980469 170.980469 111.539062 170.324219 113.082031 169.644531 C 113.597656 169.414062 113.929688 168.925781 114.46875 168.75 C 116.011719 168.242188 117.34375 167.34375 118.691406 166.480469 C 119.660156 165.855469 120.535156 165.0625 121.558594 164.554688 C 122.722656 163.976562 123.714844 163.160156 124.816406 162.5 C 125.996094 161.800781 127.039062 160.882812 128.210938 160.164062 C 129.117188 159.605469 129.863281 158.855469 130.742188 158.265625 C 131.664062 157.648438 132.402344 156.753906 133.339844 156.164062 C 134.9375 155.160156 136.324219 153.914062 137.738281 152.6875 C 139.199219 151.421875 140.871094 150.410156 142.234375 149.003906 C 142.8125 148.40625 143.65625 148.0625 144.246094 147.46875 C 145.03125 146.675781 145.929688 146.019531 146.769531 145.300781 C 147.683594 144.511719 148.652344 143.761719 149.476562 142.890625 C 150.1875 142.132812 151.070312 141.574219 151.722656 140.761719 C 152.167969 140.207031 152.796875 139.808594 153.207031 139.261719 C 153.695312 138.605469 154.269531 138.050781 154.835938 137.496094 C 155.605469 136.742188 156.394531 136.019531 157.117188 135.21875 C 157.707031 134.570312 158.261719 133.875 158.914062 133.296875 C 159.859375 132.464844 160.597656 131.441406 161.464844 130.542969 C 161.992188 130 162.621094 129.449219 163.003906 128.730469 C 163.105469 128.542969 163.207031 128.324219 163.359375 128.132812 C 164.035156 127.292969 164.746094 126.496094 165.53125 125.769531 C 165.851562 125.476562 165.640625 124.976562 166 124.769531 C 167.027344 124.167969 167.425781 123.039062 168.140625 122.183594 C 169.003906 121.144531 169.628906 119.902344 170.558594 118.890625 C 170.984375 118.433594 170.949219 117.714844 171.464844 117.308594 C 171.773438 117.066406 171.910156 116.710938 172.097656 116.382812 C 172.53125 115.628906 172.925781 114.835938 173.480469 114.183594 C 173.910156 113.679688 174.300781 113.136719 174.625 112.589844 C 175.195312 111.617188 175.769531 110.632812 176.347656 109.667969 C 177.097656 108.425781 177.683594 107.097656 178.382812 105.835938 C 178.902344 104.902344 179.398438 103.894531 179.714844 102.832031 C 179.820312 102.484375 179.910156 102.101562 180.1875 101.820312 C 180.625 101.386719 180.613281 100.800781 180.710938 100.253906 C 181.160156 99.945312 180.875 99.457031 180.996094 99.070312 C 181.101562 98.660156 181.355469 98.304688 181.5 97.902344 C 181.722656 97.285156 181.746094 96.636719 181.980469 96.023438 C 182.199219 95.453125 182.214844 94.804688 182.324219 94.191406 C 182.328125 94.09375 182.332031 94 182.335938 93.90625 C 182.4375 93.851562 182.523438 93.789062 182.476562 93.652344 C 182.476562 93.652344 182.46875 93.667969 182.46875 93.667969 C 182.839844 93.28125 182.707031 92.753906 182.851562 92.304688 C 183.234375 92.082031 183.148438 91.710938 183.144531 91.367188 C 183.171875 91.230469 183.199219 91.09375 183.226562 90.957031 C 183.390625 90.820312 183.28125 90.617188 183.347656 90.453125 C 183.761719 89.40625 183.683594 88.265625 183.84375 87.183594 C 183.949219 86.464844 183.886719 85.570312 183.855469 84.765625 C 183.804688 83.53125 183.753906 82.28125 183.6875 81.042969 C 183.652344 80.417969 183.824219 79.652344 183.039062 79.242188 C 182.226562 78.820312 181.417969 78.386719 180.652344 77.890625 C 179.6875 77.265625 178.746094 76.625 177.707031 76.101562 C 176.175781 75.328125 174.589844 74.742188 172.976562 74.210938 C 171.507812 73.726562 169.945312 73.660156 168.445312 73.289062 C 167.824219 73.132812 167.132812 73.023438 166.480469 73.019531 C 165.582031 73.007812 164.714844 72.632812 163.8125 72.84375 C 163.546875 72.90625 163.308594 72.878906 163.039062 72.847656 C 162.65625 72.800781 162.097656 72.648438 161.980469 73.257812 C 161.902344 73.664062 161.976562 74.09375 161.980469 74.511719 C 161.667969 75.296875 161.890625 76.15625 161.671875 76.933594 C 161.121094 78.882812 160.71875 80.863281 159.972656 82.765625 C 159.367188 84.308594 158.808594 85.882812 158.292969 87.46875 C 157.824219 88.921875 157.34375 90.371094 156.78125 91.796875 C 156.265625 93.09375 155.570312 94.289062 154.957031 95.527344 C 154.363281 96.738281 153.566406 97.835938 152.972656 99.054688 C 152.628906 99.757812 152.363281 100.585938 151.832031 101.121094 C 151.144531 101.808594 150.753906 102.671875 150.300781 103.449219 C 149.769531 104.367188 149.070312 105.160156 148.554688 106.089844 C 147.878906 107.300781 146.988281 108.394531 146.21875 109.554688 C 145.441406 110.726562 144.695312 111.917969 143.933594 113.097656 C 143.703125 113.394531 143.476562 113.691406 143.246094 113.988281 Z M 17.824219 24.800781 C 17.421875 24.796875 17.019531 24.789062 16.617188 24.789062 C 16.074219 24.792969 15.910156 25.074219 16.15625 25.558594 C 16.253906 25.757812 16.503906 25.863281 16.507812 26.113281 C 16.519531 27.089844 16.96875 27.945312 17.253906 28.84375 C 17.503906 29.625 17.820312 30.40625 18.035156 31.179688 C 18.335938 32.265625 18.753906 33.332031 18.929688 34.457031 C 18.984375 34.808594 19.21875 35.085938 19.339844 35.417969 C 19.566406 36.050781 19.472656 36.78125 19.84375 37.324219 C 20.257812 37.929688 20.316406 38.671875 20.464844 39.285156 C 20.753906 40.515625 21.277344 41.691406 21.421875 42.949219 C 21.46875 43.355469 21.875 43.625 21.855469 43.9375 C 21.792969 44.789062 22.230469 45.480469 22.433594 46.238281 C 22.71875 47.300781 23.136719 48.324219 23.460938 49.375 C 23.589844 49.789062 23.84375 49.65625 24.019531 49.527344 C 25.011719 48.808594 26.019531 48 26.617188 46.992188 C 27.695312 45.191406 28.914062 43.421875 29.308594 41.277344 C 29.574219 39.828125 29.492188 38.410156 29.261719 36.957031 C 29.140625 36.195312 28.796875 35.53125 28.589844 34.824219 C 28.425781 34.253906 28.269531 33.628906 27.972656 33.089844 C 27.492188 32.210938 26.96875 31.351562 26.496094 30.46875 C 26.015625 29.574219 25.429688 28.777344 24.660156 28.097656 C 24.285156 27.761719 23.820312 27.535156 23.496094 27.15625 C 22.703125 26.234375 21.757812 25.570312 20.582031 25.246094 C 19.695312 24.882812 18.785156 24.691406 17.824219 24.800781 Z M 13.734375 16.726562 C 13.785156 17.589844 14.117188 18.394531 14.378906 19.191406 C 14.703125 20.195312 15.082031 21.179688 15.269531 22.222656 C 15.359375 22.714844 15.5625 22.863281 16.082031 22.820312 C 17.882812 22.679688 19.679688 22.769531 21.382812 23.425781 C 22.3125 23.78125 23.160156 24.3125 24.015625 24.839844 C 24.800781 25.328125 25.523438 25.890625 26.210938 26.460938 C 27.128906 27.226562 27.9375 28.132812 28.554688 29.214844 C 29.28125 30.488281 30.066406 31.765625 30.589844 33.101562 C 31.234375 34.742188 31.914062 36.410156 32.003906 38.253906 C 32.097656 40.257812 32.011719 42.1875 31.144531 44.039062 C 30.453125 45.519531 29.867188 47.054688 28.863281 48.375 C 28.652344 48.652344 28.289062 48.851562 28.339844 49.285156 C 27.886719 49.484375 27.605469 49.894531 27.238281 50.195312 C 26.53125 50.777344 25.949219 51.570312 24.941406 51.71875 C 24.765625 51.746094 24.488281 51.671875 24.445312 51.949219 C 24.410156 52.1875 24.410156 52.449219 24.605469 52.636719 C 24.707031 52.738281 24.898438 52.753906 24.867188 52.960938 C 24.710938 53.132812 24.804688 53.296875 24.875 53.460938 C 25.191406 54.214844 25.507812 54.964844 25.691406 55.765625 C 25.832031 56.355469 26.078125 56.898438 26.285156 57.460938 C 26.488281 58.015625 26.828125 58.519531 26.898438 59.148438 C 26.945312 59.589844 27.066406 60.054688 27.261719 60.492188 C 27.605469 61.265625 27.964844 62.050781 28.148438 62.867188 C 28.414062 64.042969 28.757812 65.191406 29.042969 66.359375 C 29.207031 67.042969 29.660156 67.566406 29.839844 68.242188 C 29.964844 68.714844 30.0625 69.222656 30.199219 69.695312 C 30.332031 70.152344 30.699219 70.507812 30.714844 70.964844 C 30.75 71.90625 31.226562 72.695312 31.503906 73.550781 C 31.832031 74.554688 32.335938 75.546875 32.480469 76.550781 C 32.625 77.5625 33.144531 78.414062 33.273438 79.425781 C 33.40625 80.496094 33.910156 81.519531 34.234375 82.570312 C 34.394531 83.089844 34.472656 83.628906 34.582031 84.148438 C 34.664062 84.546875 35.203125 84.730469 35 85.199219 C 34.878906 85.472656 34.988281 85.667969 35.207031 85.835938 C 35.351562 85.949219 35.40625 86.09375 35.410156 86.300781 C 35.425781 87.359375 35.765625 88.378906 36.179688 89.308594 C 36.679688 90.433594 36.9375 91.632812 37.378906 92.769531 C 37.75 93.734375 38.007812 94.824219 38.234375 95.882812 C 38.574219 97.46875 39.378906 98.921875 39.714844 100.527344 C 39.953125 101.648438 40.398438 102.726562 40.667969 103.839844 C 40.886719 104.742188 41.273438 105.582031 41.460938 106.5 C 41.605469 107.1875 42.136719 107.796875 42.070312 108.578125 C 42.066406 108.636719 42.105469 108.710938 42.148438 108.761719 C 42.542969 109.246094 42.589844 109.867188 42.800781 110.421875 C 43.105469 111.210938 43.148438 112.105469 43.621094 112.816406 C 43.898438 113.230469 44.070312 113.679688 44.171875 114.117188 C 44.390625 115.046875 44.835938 115.882812 45.097656 116.789062 C 45.296875 117.46875 45.683594 118.09375 45.875 118.753906 C 46.148438 119.683594 46.363281 120.617188 46.742188 121.523438 C 47.21875 122.671875 47.632812 123.855469 47.816406 125.101562 C 47.90625 125.695312 48.296875 126.1875 48.417969 126.789062 C 48.570312 127.554688 48.882812 128.289062 49.136719 129.023438 C 49.523438 130.160156 49.894531 131.3125 50.386719 132.421875 C 51.074219 133.96875 51.414062 135.644531 52.023438 137.234375 C 52.4375 138.3125 52.921875 139.414062 53.09375 140.589844 C 53.140625 140.925781 53.238281 141.203125 53.675781 140.871094 C 53.898438 140.707031 54.246094 140.550781 54.488281 140.605469 C 55.964844 140.933594 57.410156 140.4375 58.878906 140.453125 C 60.027344 140.464844 61.171875 140.53125 62.3125 140.605469 C 63.054688 140.65625 63.78125 140.847656 64.507812 141.042969 C 65.296875 141.257812 66.125 141.367188 66.898438 141.652344 C 67.585938 141.902344 68.234375 142.289062 68.9375 142.464844 C 69.730469 142.664062 70.425781 143.058594 71.082031 143.46875 C 72.375 144.269531 73.570312 145.21875 74.808594 146.105469 C 75.097656 146.5 75.527344 146.746094 75.871094 147.078125 C 77.191406 148.34375 78.367188 149.695312 79.042969 151.421875 C 79.4375 152.097656 79.875 152.71875 80.097656 153.519531 C 80.351562 154.433594 80.503906 154.378906 81.464844 153.988281 C 82.167969 153.703125 82.875 153.425781 83.59375 153.179688 C 85.492188 152.535156 87.324219 151.710938 89.203125 151.007812 C 92.050781 149.945312 94.769531 148.585938 97.476562 147.199219 C 99.644531 146.089844 101.753906 144.886719 103.863281 143.683594 C 105.335938 142.839844 106.664062 141.75 108.128906 140.90625 C 110.847656 139.34375 113.203125 137.285156 115.777344 135.527344 C 116.867188 134.78125 118.015625 134.066406 118.980469 133.128906 C 119.246094 132.871094 119.496094 132.578125 119.847656 132.402344 C 120.804688 131.921875 121.507812 131.09375 122.359375 130.464844 C 123.1875 129.855469 123.960938 129.128906 124.726562 128.421875 C 125.691406 127.527344 126.746094 126.734375 127.695312 125.835938 C 128.5 125.074219 129.363281 124.378906 130.121094 123.566406 C 130.769531 122.875 131.589844 122.320312 132.15625 121.570312 C 132.90625 120.585938 133.828125 119.785156 134.691406 118.933594 C 136.371094 117.28125 138.113281 115.6875 139.730469 113.96875 C 140.675781 112.964844 141.4375 111.804688 142.320312 110.761719 C 143.441406 109.4375 144.335938 108.003906 145.199219 106.523438 C 145.914062 105.292969 146.621094 104.03125 147.527344 102.949219 C 148.570312 101.699219 149.375 100.320312 150.191406 98.941406 C 151.128906 97.355469 151.980469 95.714844 152.882812 94.101562 C 153.84375 92.386719 154.71875 90.628906 155.347656 88.761719 C 155.671875 87.789062 155.980469 86.808594 156.328125 85.847656 C 156.859375 84.390625 157.484375 82.964844 157.960938 81.484375 C 158.007812 81.414062 158.074219 81.347656 158.101562 81.269531 C 158.835938 79.171875 159.421875 77.03125 159.667969 74.8125 C 159.710938 74.429688 159.902344 73.957031 159.636719 73.640625 C 159.175781 73.089844 158.542969 72.644531 157.886719 72.464844 C 157 72.222656 156.183594 71.847656 155.332031 71.53125 C 154.386719 71.179688 153.539062 70.535156 152.613281 70.242188 C 151.269531 69.820312 150.058594 69.117188 148.730469 68.683594 C 147.050781 68.128906 145.582031 67.082031 143.90625 66.480469 C 143.5625 66.359375 143.167969 66.375 142.863281 66.152344 C 142.285156 65.734375 141.597656 65.511719 140.960938 65.257812 C 139.8125 64.804688 138.632812 64.382812 137.511719 63.886719 C 136.21875 63.316406 134.835938 63.015625 133.578125 62.351562 C 132.679688 61.878906 132.566406 61.96875 131.953125 62.726562 C 131.914062 62.777344 131.835938 62.800781 131.804688 62.855469 C 131.613281 63.183594 131.246094 63.367188 131.117188 63.738281 C 131 63.8125 130.90625 63.894531 130.992188 64.050781 C 130.4375 64.171875 130.148438 64.683594 129.707031 64.933594 C 128.789062 65.453125 127.921875 66.046875 126.964844 66.515625 C 125.492188 67.238281 124.003906 67.941406 122.410156 68.273438 C 119.976562 68.78125 117.503906 69.199219 115.007812 68.585938 C 113.960938 68.328125 112.867188 68.191406 111.898438 67.6875 C 110.121094 66.765625 108.316406 65.902344 106.59375 64.851562 C 104.480469 63.5625 102.445312 62.238281 100.824219 60.339844 C 99.820312 59.167969 98.828125 57.976562 98.011719 56.679688 C 97.082031 55.203125 96.460938 53.585938 96.367188 51.796875 C 96.296875 50.519531 96.117188 49.253906 96.390625 47.96875 C 96.613281 46.9375 96.464844 46.761719 95.523438 46.382812 C 95.460938 46.355469 95.40625 46.316406 95.34375 46.292969 C 94.496094 45.976562 93.683594 45.453125 92.867188 45.226562 C 91.300781 44.789062 89.859375 44.070312 88.332031 43.566406 C 86.667969 43.011719 85.019531 42.386719 83.421875 41.660156 C 82.191406 41.105469 80.867188 40.777344 79.710938 40.058594 C 79.621094 40 79.511719 39.949219 79.40625 39.933594 C 78.296875 39.761719 77.34375 39.167969 76.328125 38.75 C 75.90625 38.574219 75.488281 38.339844 75.046875 38.199219 C 74.144531 37.910156 73.292969 37.488281 72.417969 37.148438 C 71.261719 36.699219 70.070312 36.339844 68.921875 35.855469 C 68.570312 35.707031 68.265625 35.457031 67.871094 35.382812 C 66.578125 35.140625 65.425781 34.492188 64.179688 34.097656 C 63.339844 33.835938 62.472656 33.472656 61.628906 33.191406 C 60.429688 32.789062 59.363281 32.109375 58.132812 31.773438 C 57.652344 31.644531 57.140625 31.507812 56.664062 31.25 C 55.589844 30.671875 54.421875 30.253906 53.277344 29.859375 C 52.335938 29.539062 51.417969 29.136719 50.46875 28.820312 C 49.21875 28.40625 47.976562 27.914062 46.757812 27.386719 C 46.003906 27.058594 45.136719 26.992188 44.40625 26.636719 C 43.660156 26.269531 42.867188 26.042969 42.09375 25.8125 C 40.773438 25.414062 39.527344 24.839844 38.253906 24.355469 C 36.855469 23.820312 35.425781 23.335938 34.054688 22.710938 C 33.015625 22.238281 31.953125 21.804688 30.863281 21.46875 C 30.128906 21.242188 29.546875 20.746094 28.824219 20.527344 C 27.117188 20.019531 25.523438 19.203125 23.820312 18.667969 C 22.84375 18.359375 21.855469 18.003906 20.929688 17.570312 C 19.453125 16.878906 17.898438 16.414062 16.390625 15.8125 C 15.441406 15.429688 14.5 15.015625 13.5625 14.597656 C 13.269531 14.46875 13.105469 14.609375 13.230469 14.824219 C 13.578125 15.421875 13.339844 16.15625 13.734375 16.726562 Z M 118.191406 66.15625 C 118.195312 66.183594 118.195312 66.207031 118.199219 66.234375 C 119.253906 66.097656 120.332031 66.054688 121.359375 65.800781 C 122.660156 65.480469 123.925781 65.066406 125.140625 64.40625 C 126.078125 63.898438 127.109375 63.515625 127.996094 62.894531 C 128.628906 62.449219 129.3125 62.050781 129.777344 61.398438 C 129.949219 61.152344 130.03125 60.921875 129.699219 60.808594 C 128.207031 60.292969 126.796875 59.597656 125.371094 58.925781 C 124.292969 58.417969 123.128906 58.101562 122.066406 57.546875 C 120.980469 56.976562 119.765625 56.71875 118.683594 56.15625 C 118.070312 55.839844 117.335938 55.742188 116.792969 55.421875 C 115.429688 54.621094 113.910156 54.230469 112.511719 53.546875 C 111.492188 53.054688 110.417969 52.679688 109.386719 52.203125 C 108.070312 51.59375 106.730469 51.035156 105.363281 50.558594 C 104.503906 50.261719 103.65625 49.910156 102.875 49.492188 C 101.628906 48.832031 100.269531 48.449219 99.039062 47.769531 C 98.832031 47.65625 98.59375 47.667969 98.550781 48.007812 C 98.445312 48.769531 98.421875 49.519531 98.507812 50.296875 C 98.597656 51.121094 98.757812 51.933594 98.863281 52.753906 C 98.957031 53.46875 99.085938 54.160156 99.539062 54.820312 C 99.898438 55.347656 100.363281 55.8125 100.652344 56.359375 C 101.089844 57.1875 101.773438 57.792969 102.332031 58.5 C 103.53125 60.015625 105.066406 61.183594 106.761719 62.101562 C 107.667969 62.589844 108.472656 63.242188 109.425781 63.652344 C 110.367188 64.054688 111.199219 64.667969 112.144531 65.078125 C 113.128906 65.503906 114.101562 65.984375 115.152344 66.128906 C 116.152344 66.261719 117.179688 66.15625 118.191406 66.15625 Z M 60.34375 160.269531 C 60.785156 160.203125 61.25 160.203125 61.667969 160.0625 C 64.46875 159.117188 67.414062 158.730469 70.230469 157.832031 C 72.699219 157.042969 75.15625 156.226562 77.601562 155.371094 C 78.191406 155.164062 78.164062 154.863281 77.925781 154.40625 C 77.636719 153.84375 77.230469 153.308594 77.035156 152.734375 C 76.761719 151.925781 76.320312 151.214844 75.8125 150.621094 C 74.707031 149.328125 73.503906 148.121094 72.152344 147.050781 C 70.421875 145.683594 68.570312 144.535156 66.503906 143.847656 C 65.660156 143.566406 64.722656 143.394531 63.84375 143.152344 C 62.796875 142.863281 61.722656 142.699219 60.671875 142.632812 C 59.976562 142.585938 59.234375 142.582031 58.519531 142.574219 C 57.03125 142.554688 55.601562 142.859375 54.152344 143.097656 C 53.835938 143.148438 53.8125 143.265625 53.933594 143.554688 C 54.191406 144.179688 54.441406 144.8125 54.617188 145.464844 C 54.96875 146.738281 55.359375 148.007812 55.8125 149.238281 C 56.433594 150.921875 57.011719 152.613281 57.5 154.335938 C 57.582031 154.617188 57.621094 154.910156 57.898438 155.082031 C 58.023438 155.15625 58.078125 155.253906 58.070312 155.414062 C 58.019531 156.234375 58.511719 156.933594 58.59375 157.746094 C 58.648438 158.265625 58.964844 158.835938 59.128906 159.371094 C 59.347656 160.070312 59.566406 160.457031 60.34375 160.269531 Z M 44.390625 56.082031 C 44.941406 54.882812 45.210938 53.578125 45.835938 52.402344 C 46.601562 50.957031 47.449219 49.578125 48.433594 48.273438 C 48.996094 47.523438 49.746094 46.863281 49.796875 45.816406 C 49.808594 45.539062 50 45.324219 50.207031 45.140625 C 51.296875 44.183594 52.460938 43.40625 53.90625 43 C 54.921875 42.714844 55.867188 42.148438 56.902344 41.867188 C 58.679688 41.386719 60.457031 41.035156 62.332031 41.011719 C 64.140625 40.992188 65.800781 41.519531 67.480469 41.972656 C 69.015625 42.386719 70.449219 43.101562 71.886719 43.808594 C 73.703125 44.695312 74.984375 46.183594 76.367188 47.523438 C 77.429688 48.550781 78.519531 49.671875 79.179688 51.015625 C 79.570312 51.8125 79.980469 52.632812 80.359375 53.441406 C 80.738281 54.253906 80.789062 55.136719 81.171875 55.941406 C 81.398438 56.421875 81.277344 57.164062 81.425781 57.765625 C 81.695312 58.894531 81.75 60.046875 81.777344 61.1875 C 81.800781 62.003906 81.832031 62.839844 81.554688 63.65625 C 81.320312 64.347656 81.292969 65.109375 81.097656 65.816406 C 80.675781 67.363281 80.121094 68.847656 79.261719 70.226562 C 78.726562 71.078125 78.132812 71.886719 77.609375 72.746094 C 77.308594 72.765625 77.394531 72.996094 77.375 73.175781 C 77.375 73.175781 77.382812 73.160156 77.382812 73.160156 C 76.996094 73.253906 76.730469 73.496094 76.503906 73.816406 C 76.015625 74.503906 75.527344 75.199219 74.746094 75.605469 C 74.667969 76.074219 74.085938 75.871094 73.945312 76.15625 C 73.542969 76.976562 72.398438 76.648438 72.007812 77.460938 C 72 77.480469 71.84375 77.429688 71.757812 77.414062 C 71.585938 77.375 71.46875 77.460938 71.335938 77.558594 C 70.660156 78.066406 69.855469 78.511719 69.109375 78.6875 C 68.292969 78.878906 67.625 79.359375 66.800781 79.539062 C 65.914062 79.734375 65.003906 79.925781 64.109375 80.09375 C 63.792969 80.148438 63.402344 80.289062 63.117188 80.207031 C 62.566406 80.046875 61.953125 80.0625 61.480469 80.097656 C 60.457031 80.179688 59.605469 79.648438 58.625 79.613281 C 57.90625 79.582031 57.101562 79.296875 56.367188 78.960938 C 54.941406 78.308594 53.585938 77.582031 52.328125 76.640625 C 51.71875 76.183594 51.304688 75.546875 50.738281 75.09375 C 49.917969 74.4375 49.253906 73.671875 48.636719 72.847656 C 47.714844 71.617188 46.894531 70.316406 46.265625 68.921875 C 45.800781 67.882812 45.335938 66.824219 45.066406 65.703125 C 44.714844 64.234375 44.324219 62.777344 44.371094 61.234375 C 44.421875 59.519531 44.386719 57.800781 44.390625 56.082031 Z M 79.296875 59.460938 C 79.273438 59.171875 79.273438 58.878906 79.214844 58.597656 C 78.921875 57.191406 78.652344 55.800781 78.128906 54.4375 C 77.589844 53.042969 76.875 51.796875 76.019531 50.605469 C 75.324219 49.644531 74.367188 48.929688 73.5625 48.074219 C 72.15625 46.582031 70.527344 45.441406 68.65625 44.632812 C 67.910156 44.3125 67.125 44.113281 66.371094 43.8125 C 65.644531 43.519531 64.835938 43.425781 64.058594 43.28125 C 62.3125 42.953125 60.585938 42.976562 58.839844 43.410156 C 57.746094 43.683594 56.691406 44.0625 55.605469 44.351562 C 54.925781 44.53125 54.109375 44.71875 53.796875 45.375 C 53.449219 46.097656 52.808594 46.542969 52.375 47.175781 C 52.019531 47.695312 51.589844 48.277344 51.332031 48.792969 C 50.914062 49.625 50.257812 50.25 49.726562 50.917969 C 48.617188 52.316406 47.882812 53.835938 47.320312 55.492188 C 46.566406 57.738281 46.988281 60.03125 47.121094 62.277344 C 47.214844 63.949219 47.863281 65.605469 48.558594 67.160156 C 49.015625 68.183594 49.332031 69.300781 50.183594 70.113281 C 50.566406 70.476562 50.605469 71.0625 50.964844 71.425781 C 51.964844 72.433594 52.835938 73.554688 54.011719 74.402344 C 55.164062 75.238281 56.417969 75.871094 57.683594 76.472656 C 58.304688 76.769531 59.027344 76.957031 59.707031 77.050781 C 60.460938 77.15625 61.203125 77.4375 61.992188 77.339844 C 62.941406 77.21875 63.914062 77.601562 64.84375 77.304688 C 67.070312 76.601562 69.28125 75.84375 71.328125 74.683594 C 72.449219 74.046875 73.558594 73.40625 74.46875 72.453125 C 75.511719 71.359375 76.359375 70.140625 77.199219 68.886719 C 78.402344 67.089844 78.996094 65.097656 79.253906 63 C 79.398438 61.832031 79.46875 60.644531 79.296875 59.460938 Z M 53.945312 104.417969 C 54.398438 103.449219 54.683594 102.417969 55.132812 101.445312 C 55.507812 100.632812 55.890625 99.828125 56.320312 99.046875 C 56.667969 98.417969 56.75 97.699219 57.328125 97.125 C 58.113281 96.34375 59.015625 95.738281 59.878906 95.074219 C 61.183594 94.066406 62.65625 93.300781 64.121094 92.546875 C 65.226562 91.976562 66.488281 91.90625 67.691406 91.71875 C 69.226562 91.472656 70.796875 91.265625 72.34375 91.304688 C 75 91.375 77.714844 91.351562 80.175781 92.585938 C 81.355469 93.179688 82.542969 93.777344 83.472656 94.820312 C 83.972656 95.378906 84.4375 96.015625 85.113281 96.449219 C 85.738281 96.851562 85.90625 97.667969 86.226562 98.308594 C 87.355469 100.566406 87.605469 103.082031 88.148438 105.507812 C 88.265625 106.03125 88.15625 106.648438 88.128906 107.191406 C 88.082031 108.050781 88.351562 108.882812 88.140625 109.765625 C 87.964844 110.492188 87.945312 111.296875 87.941406 112.082031 C 87.941406 113.015625 87.707031 113.957031 87.347656 114.839844 C 86.917969 115.890625 86.589844 116.980469 86.167969 118.035156 C 85.886719 118.738281 85.429688 119.292969 85.058594 119.914062 C 84.535156 120.253906 84.28125 120.867188 83.722656 121.1875 C 83.496094 121.320312 83.414062 121.632812 83.425781 121.925781 C 83.425781 121.925781 83.441406 121.910156 83.441406 121.910156 C 83.113281 121.9375 82.671875 121.753906 82.539062 122.203125 C 82.429688 122.566406 82.25 122.644531 81.917969 122.652344 C 81.664062 122.660156 81.441406 122.824219 81.292969 123.011719 C 80.914062 123.5 80.339844 123.683594 79.828125 123.945312 C 79.3125 124.207031 78.59375 124.253906 78.199219 124.523438 C 77.089844 125.269531 75.777344 125.152344 74.613281 125.628906 C 73.90625 125.921875 73.011719 126.0625 72.140625 126.015625 C 71.535156 125.984375 70.925781 126.152344 70.28125 126.128906 C 69.785156 126.109375 69.183594 126.179688 68.667969 126.179688 C 67.152344 126.179688 65.757812 125.460938 64.273438 125.195312 C 63.367188 125.035156 62.699219 124.335938 61.820312 124.054688 C 61.339844 123.898438 60.796875 123.707031 60.488281 123.175781 C 60.386719 123.003906 60.070312 122.933594 59.835938 122.875 C 59.339844 122.75 58.976562 122.453125 58.671875 122.070312 C 58.558594 121.929688 58.496094 121.726562 58.355469 121.640625 C 57.308594 120.988281 56.855469 119.875 56.273438 118.886719 C 55.632812 117.796875 55.085938 116.625 54.863281 115.367188 C 54.617188 113.960938 53.964844 112.652344 53.917969 111.195312 C 53.894531 110.507812 53.820312 109.820312 53.699219 109.140625 C 53.441406 107.691406 53.695312 106.265625 53.835938 104.835938 C 53.835938 104.835938 53.824219 104.847656 53.824219 104.847656 C 54.042969 104.753906 53.917969 104.5625 53.945312 104.417969 Z M 68.398438 93.652344 C 67.824219 93.726562 67.226562 93.71875 66.683594 93.882812 C 65.226562 94.316406 63.753906 94.753906 62.476562 95.597656 C 61.757812 96.078125 60.800781 96.375 60.621094 97.472656 C 60.566406 97.796875 60.246094 98.144531 59.953125 98.347656 C 59.691406 98.535156 59.589844 98.757812 59.433594 99 C 59.101562 99.515625 58.734375 99.992188 58.457031 100.558594 C 58.203125 101.078125 57.746094 101.542969 57.566406 102.097656 C 57.035156 103.75 56.101562 105.292969 56.285156 107.160156 C 56.324219 107.554688 56.492188 107.984375 56.421875 108.328125 C 56.21875 109.351562 56.578125 110.234375 56.902344 111.144531 C 56.96875 111.332031 57.054688 111.539062 57.03125 111.726562 C 56.917969 112.625 57.054688 113.519531 57.492188 114.265625 C 57.910156 114.972656 58.035156 115.769531 58.164062 116.484375 C 58.328125 117.402344 59.015625 117.902344 59.398438 118.601562 C 59.828125 119.378906 60.558594 120.085938 61.449219 120.53125 C 61.804688 120.710938 62.164062 120.890625 62.519531 121.074219 C 63.890625 121.78125 65.195312 122.609375 66.773438 122.863281 C 68.042969 123.066406 69.289062 123.265625 70.589844 123.195312 C 72.347656 123.105469 74.089844 123.027344 75.722656 122.28125 C 75.835938 122.230469 75.988281 122.238281 76.117188 122.253906 C 76.445312 122.292969 76.714844 122.171875 77.003906 122.023438 C 77.539062 121.746094 78.109375 121.546875 78.652344 121.292969 C 79.230469 121.019531 79.84375 120.789062 80.339844 120.40625 C 80.789062 120.0625 81.253906 119.671875 81.710938 119.414062 C 82.601562 118.910156 83.113281 118.160156 83.628906 117.359375 C 84.304688 116.3125 84.652344 115.140625 84.976562 113.945312 C 85.464844 112.140625 85.730469 110.304688 85.726562 108.449219 C 85.722656 107.300781 85.636719 106.144531 85.503906 104.996094 C 85.285156 103.082031 84.90625 101.226562 84.066406 99.484375 C 83.425781 98.15625 82.417969 97.179688 81.289062 96.230469 C 79.328125 94.574219 77.097656 93.855469 74.605469 93.628906 C 73.957031 93.570312 73.296875 93.597656 72.660156 93.574219 C 72.054688 93.554688 71.421875 93.34375 70.824219 93.515625 C 70.019531 93.746094 69.1875 93.40625 68.398438 93.652344 Z M 104.992188 93.242188 C 105.433594 92.128906 105.800781 90.988281 106.402344 89.9375 C 107.402344 88.191406 108.679688 86.683594 110.105469 85.285156 C 110.804688 84.597656 111.488281 83.894531 112.183594 83.199219 C 113.339844 82.042969 114.859375 81.5625 116.34375 81.046875 C 117.195312 80.753906 118.09375 80.496094 118.984375 80.449219 C 120.585938 80.371094 122.199219 80.339844 123.730469 81.054688 C 124.394531 81.363281 125.101562 81.59375 125.785156 81.875 C 126.554688 82.191406 127.1875 82.722656 127.832031 83.214844 C 128.945312 84.066406 129.933594 85.113281 131.125 85.816406 C 132.570312 86.671875 133.367188 88.042969 134.230469 89.308594 C 135.175781 90.691406 135.898438 92.242188 136.386719 93.890625 C 136.613281 94.664062 136.722656 95.429688 136.671875 96.191406 C 136.617188 96.992188 136.929688 97.757812 136.679688 98.597656 C 136.367188 99.640625 136.21875 100.765625 135.660156 101.691406 C 134.875 102.984375 134.472656 104.449219 133.652344 105.738281 C 133.085938 106.628906 132.429688 107.480469 131.945312 108.425781 C 131.519531 108.527344 131.253906 108.839844 131.054688 109.175781 C 130.808594 109.585938 130.488281 109.851562 130.097656 110.125 C 129.730469 110.382812 129.265625 110.488281 128.957031 110.933594 C 128.75 111.234375 128.308594 111.523438 127.828125 111.652344 C 127.085938 111.855469 126.355469 112.152344 125.679688 112.519531 C 125.253906 112.75 124.820312 112.925781 124.394531 112.84375 C 123.355469 112.636719 122.328125 112.898438 121.300781 112.914062 C 120.253906 112.929688 119.226562 112.839844 118.285156 112.542969 C 116.828125 112.078125 115.238281 111.945312 113.941406 111.015625 C 113.921875 111.003906 113.894531 111.007812 113.875 111.003906 C 112.734375 110.824219 111.917969 110.039062 110.980469 109.472656 C 110.320312 109.074219 109.980469 108.367188 109.382812 107.886719 C 108.488281 107.167969 107.796875 106.191406 107.242188 105.214844 C 106.363281 103.671875 105.628906 102.023438 105.183594 100.292969 C 104.886719 99.136719 104.585938 97.960938 104.605469 96.753906 C 104.625 95.574219 104.746094 94.402344 104.992188 93.242188 Z M 123.992188 83.371094 C 123.929688 83.359375 123.863281 83.347656 123.796875 83.335938 C 123.730469 83.15625 123.582031 83.058594 123.417969 82.988281 C 122.269531 82.484375 121.082031 82.203125 119.816406 82.339844 C 119.554688 82.34375 119.28125 82.382812 119.042969 82.421875 C 118.175781 82.554688 117.203125 82.613281 116.507812 83.066406 C 115.3125 83.839844 114 84.539062 113.148438 85.746094 C 112.539062 86.613281 111.550781 87.058594 110.917969 87.921875 C 110.578125 88.378906 110.332031 88.917969 109.917969 89.320312 C 108.273438 90.917969 107.523438 92.910156 107.234375 95.144531 C 107.148438 95.808594 107.433594 96.414062 107.34375 97.058594 C 107.148438 98.410156 107.828125 99.597656 108.175781 100.824219 C 108.40625 101.628906 108.910156 102.367188 109.058594 103.230469 C 109.074219 103.332031 109.128906 103.460938 109.210938 103.519531 C 109.808594 103.945312 110.140625 104.609375 110.566406 105.164062 C 111.644531 106.585938 112.964844 107.664062 114.53125 108.476562 C 115.316406 108.886719 116.179688 109.097656 117.015625 109.386719 C 119.058594 110.101562 121.140625 110.425781 123.289062 110.207031 C 124.296875 110.101562 125.371094 110.253906 126.261719 109.566406 C 126.472656 109.402344 126.671875 109.195312 126.914062 109.101562 C 128.542969 108.488281 129.667969 107.261719 130.734375 105.96875 C 131.550781 104.972656 132.019531 103.773438 132.632812 102.65625 C 133.65625 100.792969 134.554688 98.917969 134.457031 96.660156 C 134.386719 95.058594 134.21875 93.539062 133.304688 92.214844 C 132.039062 90.367188 131.097656 88.285156 129.148438 86.933594 C 127.65625 85.894531 126.375 84.5625 124.707031 83.769531 C 124.527344 83.53125 124.375 83.246094 123.992188 83.371094 Z M 123.992188 83.371094 " fill-opacity="1" fill-rule="nonzero"/></g><path fill="#4f7822" d="M 74.808594 146.105469 C 76.296875 145.78125 77.722656 145.890625 79.105469 146.605469 C 80.160156 147.148438 81.089844 148.675781 80.957031 149.851562 C 80.871094 150.636719 79.914062 151.421875 79.046875 151.417969 C 78.371094 149.691406 77.195312 148.339844 75.875 147.074219 C 75.527344 146.742188 75.097656 146.496094 74.808594 146.105469 Z M 93.375 129.886719 C 93.527344 130.792969 93.5 131.753906 93.960938 132.609375 C 94.28125 133.199219 94.554688 133.921875 95.0625 134.246094 C 95.835938 134.738281 96.796875 134.765625 97.710938 134.398438 C 98.375 134.128906 98.878906 133.675781 99.4375 133.253906 C 100.039062 132.792969 100.191406 132.324219 100.175781 131.671875 C 100.167969 131.160156 99.984375 130.6875 99.871094 130.210938 C 99.621094 129.152344 99.039062 128.234375 98.820312 127.152344 C 98.617188 126.171875 98.171875 125.21875 98.03125 124.199219 C 97.964844 123.691406 97.667969 123.554688 97.195312 123.558594 C 96.289062 123.566406 95.433594 123.734375 94.589844 124.078125 C 93.039062 124.714844 92.816406 125.011719 92.890625 126.949219 C 92.644531 127.796875 93.195312 128.820312 93.375 129.886719 Z M 88.03125 79.1875 C 88.15625 79.476562 88.265625 79.769531 88.40625 80.046875 C 88.550781 80.320312 88.511719 80.507812 88.300781 80.753906 C 86.675781 82.664062 86.410156 84.832031 87.160156 87.167969 C 87.441406 88.039062 88.214844 88.519531 88.960938 88.753906 C 90.578125 89.257812 92.570312 87.921875 92.699219 86.261719 C 92.851562 84.289062 93.472656 82.347656 93.160156 80.34375 C 92.980469 79.210938 92.914062 77.972656 91.414062 77.671875 C 91.183594 77.625 90.957031 77.480469 90.761719 77.335938 C 90.367188 77.042969 89.949219 76.871094 89.53125 76.953125 C 88.203125 76.914062 87.511719 78.003906 88.03125 79.1875 Z M 145.140625 83.933594 C 145.917969 83.898438 146.589844 83.585938 146.972656 82.914062 C 147.390625 82.183594 147.390625 81.308594 147.390625 80.503906 C 147.390625 79.984375 147.40625 79.316406 146.722656 78.957031 C 146.3125 78.746094 145.921875 78.722656 145.503906 78.699219 C 145.171875 78.679688 144.847656 78.738281 144.523438 78.5625 C 143.066406 77.777344 141.511719 77.625 139.914062 77.992188 C 139.554688 78.074219 139.191406 78.160156 138.871094 78.414062 C 137.910156 79.167969 137.847656 80.242188 138.074219 81.230469 C 138.28125 82.125 139.171875 82.695312 139.960938 83.070312 C 141.429688 83.765625 143.027344 84.039062 144.671875 83.914062 C 144.828125 83.917969 144.984375 83.941406 145.140625 83.933594 Z M 45.515625 85.429688 C 44.558594 84.414062 43.269531 83.78125 41.949219 83.296875 C 41.066406 82.972656 40.125 83.335938 39.648438 84.074219 C 39.417969 84.4375 39.402344 84.773438 39.566406 85.152344 C 39.699219 85.460938 39.882812 85.769531 39.925781 86.089844 C 40.097656 87.429688 40.4375 88.707031 41.09375 89.902344 C 41.5625 90.753906 42.132812 91.335938 43.1875 91.40625 C 43.691406 91.4375 44.191406 91.328125 44.65625 91.394531 C 46.132812 91.609375 46.960938 90.195312 46.792969 88.925781 C 46.820312 87.636719 46.40625 86.378906 45.515625 85.429688 Z M 37.808594 31.683594 C 37.886719 32.921875 38.234375 33.246094 39.488281 33.398438 C 39.707031 33.425781 39.945312 33.472656 40.128906 33.585938 C 40.699219 33.925781 41.292969 33.847656 41.769531 33.523438 C 42.339844 33.128906 42.40625 32.480469 42.359375 31.785156 C 42.269531 30.488281 41.757812 29.214844 42.09375 27.890625 C 41.738281 27.019531 40.664062 26.917969 40.21875 26.140625 C 40.183594 26.082031 40.058594 26.074219 39.980469 26.039062 C 39.328125 25.730469 39.03125 26.273438 38.636719 26.589844 C 37.820312 28.199219 37.703125 29.925781 37.808594 31.683594 Z M 37.808594 31.683594 " fill-opacity="1" fill-rule="nonzero"/><path fill="#e9451c" d="M 118.191406 66.15625 C 117.179688 66.15625 116.148438 66.261719 115.152344 66.128906 C 114.101562 65.984375 113.128906 65.503906 112.144531 65.078125 C 111.199219 64.667969 110.367188 64.054688 109.425781 63.652344 C 108.472656 63.242188 107.667969 62.589844 106.761719 62.101562 C 105.0625 61.183594 103.53125 60.019531 102.332031 58.5 C 101.773438 57.792969 101.089844 57.1875 100.652344 56.359375 C 100.363281 55.8125 99.898438 55.347656 99.539062 54.820312 C 99.085938 54.160156 98.953125 53.46875 98.863281 52.753906 C 98.757812 51.933594 98.597656 51.121094 98.507812 50.296875 C 98.425781 49.519531 98.445312 48.769531 98.550781 48.007812 C 98.59375 47.667969 98.832031 47.65625 99.039062 47.769531 C 100.269531 48.449219 101.628906 48.832031 102.875 49.492188 C 103.65625 49.910156 104.503906 50.261719 105.363281 50.558594 C 106.730469 51.035156 108.070312 51.59375 109.386719 52.203125 C 110.417969 52.679688 111.492188 53.054688 112.511719 53.546875 C 113.910156 54.230469 115.429688 54.621094 116.792969 55.421875 C 117.335938 55.742188 118.070312 55.839844 118.683594 56.15625 C 119.765625 56.71875 120.980469 56.976562 122.066406 57.546875 C 123.128906 58.101562 124.292969 58.417969 125.371094 58.925781 C 126.796875 59.597656 128.207031 60.292969 129.699219 60.808594 C 130.03125 60.921875 129.949219 61.152344 129.777344 61.398438 C 129.3125 62.050781 128.628906 62.449219 127.996094 62.894531 C 127.109375 63.515625 126.078125 63.898438 125.140625 64.40625 C 123.925781 65.066406 122.660156 65.480469 121.359375 65.800781 C 120.332031 66.054688 119.253906 66.097656 118.199219 66.234375 C 118.195312 66.207031 118.195312 66.183594 118.191406 66.15625 Z M 61.667969 160.0625 C 64.46875 159.117188 67.414062 158.730469 70.230469 157.832031 C 72.699219 157.042969 75.15625 156.226562 77.601562 155.371094 C 78.191406 155.164062 78.164062 154.863281 77.925781 154.40625 C 77.636719 153.84375 77.230469 153.308594 77.035156 152.734375 C 76.761719 151.925781 76.320312 151.214844 75.8125 150.621094 C 74.707031 149.328125 73.503906 148.121094 72.152344 147.050781 C 70.421875 145.683594 68.570312 144.535156 66.503906 143.847656 C 65.660156 143.566406 64.722656 143.394531 63.84375 143.152344 C 62.796875 142.863281 61.722656 142.699219 60.671875 142.632812 C 59.976562 142.585938 59.234375 142.582031 58.519531 142.574219 C 57.03125 142.554688 55.601562 142.859375 54.152344 143.097656 C 53.835938 143.148438 53.8125 143.265625 53.933594 143.554688 C 54.191406 144.179688 54.441406 144.8125 54.617188 145.464844 C 54.96875 146.738281 55.359375 148.007812 55.8125 149.238281 C 56.433594 150.921875 57.011719 152.613281 57.5 154.335938 C 57.582031 154.617188 57.621094 154.910156 57.898438 155.082031 C 58.023438 155.15625 58.078125 155.253906 58.070312 155.414062 C 58.019531 156.234375 58.511719 156.933594 58.59375 157.746094 C 58.648438 158.265625 58.964844 158.835938 59.128906 159.371094 C 59.34375 160.070312 59.5625 160.457031 60.339844 160.269531 C 60.785156 160.203125 61.25 160.203125 61.667969 160.0625 Z M 19.402344 25.113281 C 18.875 25.007812 18.371094 24.808594 17.824219 24.800781 C 17.421875 24.796875 17.019531 24.789062 16.617188 24.792969 C 16.074219 24.796875 15.910156 25.074219 16.15625 25.558594 C 16.253906 25.757812 16.503906 25.867188 16.507812 26.117188 C 16.519531 27.089844 16.96875 27.945312 17.253906 28.84375 C 17.503906 29.625 17.820312 30.40625 18.035156 31.179688 C 18.335938 32.269531 18.753906 33.332031 18.929688 34.457031 C 18.984375 34.808594 19.21875 35.085938 19.339844 35.417969 C 19.566406 36.050781 19.472656 36.78125 19.84375 37.324219 C 20.257812 37.929688 20.316406 38.671875 20.464844 39.285156 C 20.753906 40.515625 21.277344 41.691406 21.421875 42.949219 C 21.46875 43.355469 21.875 43.625 21.855469 43.941406 C 21.792969 44.789062 22.230469 45.480469 22.433594 46.242188 C 22.71875 47.300781 23.136719 48.324219 23.460938 49.375 C 23.589844 49.789062 23.84375 49.65625 24.019531 49.527344 C 25.011719 48.8125 26.019531 48 26.617188 46.992188 C 27.695312 45.191406 28.914062 43.425781 29.308594 41.277344 C 29.574219 39.828125 29.492188 38.414062 29.261719 36.957031 C 29.140625 36.195312 28.796875 35.535156 28.589844 34.824219 C 28.425781 34.257812 28.269531 33.632812 27.972656 33.089844 C 27.492188 32.210938 26.96875 31.355469 26.496094 30.46875 C 26.015625 29.574219 25.429688 28.777344 24.660156 28.097656 C 24.285156 27.761719 23.820312 27.535156 23.496094 27.160156 C 22.703125 26.234375 21.757812 25.570312 20.582031 25.25 C 20.152344 25.519531 19.789062 25.1875 19.402344 25.113281 Z M 79.214844 58.597656 C 78.921875 57.191406 78.652344 55.800781 78.125 54.4375 C 77.589844 53.042969 76.871094 51.796875 76.015625 50.605469 C 75.324219 49.644531 74.367188 48.929688 73.5625 48.074219 C 72.15625 46.582031 70.527344 45.441406 68.652344 44.632812 C 67.910156 44.3125 67.125 44.113281 66.371094 43.8125 C 65.644531 43.519531 64.835938 43.425781 64.058594 43.28125 C 62.3125 42.953125 60.585938 42.976562 58.839844 43.410156 C 57.746094 43.683594 56.691406 44.0625 55.605469 44.351562 C 54.925781 44.53125 54.109375 44.71875 53.792969 45.375 C 53.449219 46.097656 52.808594 46.542969 52.375 47.175781 C 52.019531 47.695312 51.589844 48.277344 51.332031 48.792969 C 50.914062 49.625 50.257812 50.25 49.726562 50.917969 C 48.613281 52.316406 47.878906 53.835938 47.320312 55.492188 C 46.566406 57.738281 46.988281 60.03125 47.121094 62.277344 C 47.214844 63.949219 47.863281 65.605469 48.558594 67.160156 C 49.015625 68.183594 49.332031 69.300781 50.183594 70.113281 C 50.566406 70.476562 50.601562 71.0625 50.964844 71.425781 C 51.964844 72.433594 52.835938 73.554688 54.007812 74.402344 C 55.164062 75.238281 56.414062 75.871094 57.683594 76.472656 C 58.300781 76.769531 59.023438 76.957031 59.703125 77.050781 C 60.460938 77.15625 61.203125 77.4375 61.992188 77.339844 C 62.941406 77.21875 63.914062 77.601562 64.84375 77.304688 C 67.070312 76.601562 69.28125 75.84375 71.328125 74.683594 C 72.449219 74.046875 73.558594 73.40625 74.46875 72.453125 C 75.507812 71.359375 76.359375 70.140625 77.199219 68.886719 C 78.402344 67.089844 78.996094 65.097656 79.253906 63 C 79.398438 61.832031 79.46875 60.644531 79.296875 59.460938 C 79.273438 59.171875 79.273438 58.878906 79.214844 58.597656 Z M 66.683594 93.882812 C 65.226562 94.316406 63.753906 94.753906 62.476562 95.597656 C 61.757812 96.078125 60.800781 96.375 60.621094 97.472656 C 60.566406 97.796875 60.246094 98.144531 59.953125 98.347656 C 59.691406 98.535156 59.589844 98.757812 59.433594 99 C 59.101562 99.515625 58.734375 99.992188 58.457031 100.558594 C 58.203125 101.078125 57.746094 101.542969 57.566406 102.097656 C 57.035156 103.75 56.101562 105.292969 56.285156 107.160156 C 56.324219 107.554688 56.492188 107.984375 56.421875 108.328125 C 56.21875 109.351562 56.578125 110.234375 56.902344 111.144531 C 56.96875 111.332031 57.054688 111.539062 57.03125 111.726562 C 56.917969 112.625 57.054688 113.519531 57.492188 114.265625 C 57.910156 114.972656 58.035156 115.769531 58.164062 116.484375 C 58.328125 117.402344 59.015625 117.902344 59.398438 118.601562 C 59.828125 119.378906 60.558594 120.085938 61.449219 120.53125 C 61.804688 120.710938 62.164062 120.890625 62.519531 121.074219 C 63.890625 121.78125 65.195312 122.609375 66.773438 122.863281 C 68.042969 123.066406 69.289062 123.265625 70.589844 123.195312 C 72.347656 123.105469 74.089844 123.027344 75.722656 122.28125 C 75.835938 122.230469 75.988281 122.238281 76.117188 122.253906 C 76.445312 122.292969 76.714844 122.171875 77.003906 122.023438 C 77.539062 121.746094 78.109375 121.546875 78.652344 121.292969 C 79.230469 121.019531 79.84375 120.789062 80.339844 120.40625 C 80.789062 120.0625 81.253906 119.671875 81.710938 119.414062 C 82.601562 118.910156 83.113281 118.160156 83.628906 117.359375 C 84.304688 116.3125 84.652344 115.140625 84.976562 113.945312 C 85.464844 112.140625 85.730469 110.304688 85.726562 108.449219 C 85.722656 107.300781 85.636719 106.144531 85.503906 104.996094 C 85.285156 103.082031 84.90625 101.226562 84.066406 99.484375 C 83.425781 98.15625 82.417969 97.179688 81.289062 96.230469 C 79.328125 94.574219 77.097656 93.855469 74.605469 93.628906 C 73.957031 93.570312 73.296875 93.597656 72.660156 93.574219 C 72.054688 93.554688 71.421875 93.34375 70.824219 93.515625 C 70.019531 93.746094 69.191406 93.40625 68.398438 93.652344 C 67.824219 93.726562 67.226562 93.71875 66.683594 93.882812 Z M 123.992188 83.371094 C 123.929688 83.359375 123.863281 83.347656 123.796875 83.335938 C 122.523438 82.792969 121.1875 82.503906 119.816406 82.339844 C 119.554688 82.34375 119.28125 82.382812 119.042969 82.421875 C 118.175781 82.554688 117.203125 82.613281 116.507812 83.066406 C 115.3125 83.839844 114 84.539062 113.148438 85.746094 C 112.539062 86.613281 111.550781 87.058594 110.917969 87.921875 C 110.578125 88.378906 110.332031 88.917969 109.917969 89.320312 C 108.273438 90.917969 107.523438 92.910156 107.234375 95.144531 C 107.148438 95.808594 107.433594 96.414062 107.34375 97.058594 C 107.148438 98.410156 107.828125 99.597656 108.175781 100.824219 C 108.40625 101.628906 108.910156 102.367188 109.058594 103.230469 C 109.074219 103.332031 109.128906 103.460938 109.210938 103.519531 C 109.808594 103.945312 110.140625 104.609375 110.566406 105.164062 C 111.644531 106.585938 112.964844 107.664062 114.53125 108.476562 C 115.316406 108.886719 116.179688 109.097656 117.015625 109.386719 C 119.058594 110.101562 121.140625 110.425781 123.289062 110.207031 C 124.296875 110.101562 125.371094 110.253906 126.261719 109.566406 C 126.472656 109.402344 126.671875 109.195312 126.914062 109.101562 C 128.542969 108.488281 129.667969 107.261719 130.734375 105.96875 C 131.550781 104.972656 132.019531 103.773438 132.632812 102.65625 C 133.65625 100.792969 134.554688 98.917969 134.457031 96.660156 C 134.386719 95.058594 134.21875 93.539062 133.304688 92.214844 C 132.039062 90.367188 131.097656 88.285156 129.148438 86.933594 C 127.65625 85.894531 126.375 84.5625 124.707031 83.769531 C 124.394531 83.769531 124.191406 83.574219 123.992188 83.371094 Z M 123.992188 83.371094 " fill-opacity="1" fill-rule="nonzero"/></svg>