<svg xmlns="http://www.w3.org/2000/svg" xmlns:xlink="http://www.w3.org/1999/xlink" width="100" zoomAndPan="magnify" viewBox="0 0 192 191.999996" height="100" preserveAspectRatio="xMidYMid meet" version="1.0"><defs><clipPath id="df34181e1a"><path d="M 28.328125 5.46875 L 163.328125 5.46875 L 163.328125 186 L 28.328125 186 Z M 28.328125 5.46875 " clip-rule="nonzero"/></clipPath></defs><g clip-path="url(#df34181e1a)"><path fill="#000000" d="M 163.160156 82.992188 C 162.839844 99.492188 162.832031 113.488281 162.234375 127.460938 C 161.667969 140.585938 160.515625 153.679688 159.515625 166.78125 C 159.304688 169.578125 158.707031 172.34375 158.191406 175.113281 C 157.304688 179.84375 153.855469 183.390625 149.121094 184.234375 C 146.175781 184.757812 143.183594 185.113281 140.191406 185.289062 C 127.070312 186.074219 113.941406 186.226562 100.8125 185.660156 C 92.199219 185.289062 83.570312 184.9375 74.980469 184.195312 C 62.945312 183.15625 50.90625 182.050781 39.089844 179.28125 C 36.480469 178.675781 34.867188 177.425781 34.460938 174.742188 C 33.800781 170.382812 32.988281 166.042969 32.480469 161.667969 C 29.976562 140.015625 28.980469 118.265625 28.703125 96.480469 C 28.460938 77.980469 28.847656 59.488281 30.277344 41.042969 C 30.882812 33.289062 32.035156 25.578125 32.945312 17.84375 C 32.988281 17.472656 33.101562 17.109375 33.132812 16.734375 C 33.480469 12.234375 36.488281 9.707031 40.125 7.964844 C 41.824219 7.152344 43.929688 7.0625 45.875 6.933594 C 64.609375 5.667969 83.367188 5.5 102.117188 6.417969 C 118.132812 7.199219 134.085938 8.675781 149.828125 11.90625 C 151.835938 12.316406 153.789062 13.019531 155.75 13.628906 C 158.449219 14.453125 159.902344 16.191406 160.105469 19.117188 C 160.5625 25.855469 161.378906 32.574219 161.667969 39.324219 C 162.3125 54.722656 162.726562 70.105469 163.160156 82.992188 Z M 163.160156 82.992188 " fill-opacity="1" fill-rule="nonzero"/></g><path fill="#e8e8e8" d="M 160.515625 96.769531 C 160.265625 109.058594 160.199219 121.371094 159.492188 133.640625 C 158.691406 147.6875 157.296875 161.699219 156.113281 175.71875 C 155.910156 178.191406 153.234375 180.925781 150.160156 181.816406 C 151.457031 179.222656 152.242188 176.410156 152.894531 173.589844 C 152.949219 173.597656 152.992188 173.609375 153.046875 173.617188 C 153.296875 172.898438 153.652344 172.199219 153.78125 171.457031 C 154.085938 169.699219 154.386719 167.933594 154.5 166.160156 C 155.425781 151.828125 156.53125 137.507812 157.144531 123.160156 C 158.347656 95.011719 158.386719 66.84375 157.175781 38.691406 C 156.96875 33.925781 156.242188 29.179688 155.691406 24.425781 C 155.621094 23.824219 155.175781 23.273438 154.894531 22.695312 C 154.71875 22.757812 154.539062 22.824219 154.363281 22.886719 C 154.378906 23.074219 154.386719 23.265625 154.402344 23.453125 C 154.136719 22.171875 153.773438 20.980469 152.894531 20.078125 C 153.199219 19.988281 153.476562 19.761719 153.699219 19.277344 C 152.667969 18.0625 151.097656 17.941406 149.714844 17.617188 C 141.394531 15.636719 132.894531 14.902344 124.402344 14.234375 C 116.835938 13.644531 109.261719 13.113281 101.675781 12.890625 C 87.164062 12.5 72.632812 12.234375 58.109375 12.125 C 53.34375 12.089844 48.574219 12.65625 43.824219 13.097656 C 42.527344 13.21875 41.140625 13.386719 39.90625 14.347656 C 38.542969 14.613281 37.203125 14.984375 35.90625 15.546875 C 36.582031 12.308594 39.46875 9.820312 42.859375 9.640625 C 50.816406 9.222656 58.777344 8.625 66.738281 8.585938 C 79.019531 8.539062 91.3125 8.652344 103.585938 9.15625 C 120.554688 9.84375 137.378906 11.929688 154.03125 15.378906 C 154.667969 15.507812 155.289062 15.734375 156.097656 15.96875 C 155.46875 16.820312 155.039062 17.402344 154.667969 17.902344 C 154.902344 18.859375 155.234375 18.898438 157.804688 18.304688 C 158.191406 22.710938 158.699219 27.085938 158.925781 31.46875 C 160.089844 53.21875 160.957031 74.980469 160.515625 96.769531 Z M 160.515625 96.769531 " fill-opacity="1" fill-rule="nonzero"/><path fill="#939598" d="M 101.941406 131.222656 C 101.539062 131.289062 101.140625 131.351562 100.746094 131.410156 C 100.011719 130.523438 99.410156 129.523438 98.925781 128.484375 C 99.039062 128.574219 99.148438 128.660156 99.246094 128.757812 C 99.527344 128.378906 99.746094 128.195312 99.714844 128.105469 C 96.253906 118.429688 96.222656 108.429688 96.875 98.363281 C 96.957031 97.050781 96.917969 95.714844 97.167969 94.433594 C 97.730469 91.605469 96.769531 89.308594 95.011719 87.195312 C 91.65625 83.152344 88.3125 79.097656 84.988281 75.03125 C 83.148438 72.789062 81.34375 70.527344 79.578125 68.339844 C 81.585938 64 83.503906 59.847656 85.554688 55.394531 C 86.164062 56.207031 86.707031 56.890625 87.191406 57.609375 C 90.488281 62.515625 93.738281 67.449219 97.085938 72.324219 C 98.132812 73.851562 99.417969 75.199219 100.925781 77.035156 C 102.199219 75.167969 103.109375 73.835938 104.402344 71.9375 C 105.964844 92.226562 104.648438 111.691406 101.941406 131.222656 Z M 101.941406 131.222656 " fill-opacity="1" fill-rule="nonzero"/><path fill="#ffffff" d="M 152.113281 173.421875 C 155.855469 123.480469 157.839844 73.515625 154.402344 23.46875 C 154.136719 22.1875 153.773438 20.996094 152.894531 20.09375 C 152.449219 20.230469 151.941406 20.066406 151.464844 19.996094 C 146.835938 19.320312 142.214844 18.519531 137.570312 17.988281 C 130.683594 17.199219 123.789062 16.402344 116.882812 15.957031 C 97.417969 14.6875 77.933594 14.105469 58.4375 14.210938 C 52.542969 14.242188 46.625 14.28125 40.800781 15.449219 C 40.351562 15.539062 39.84375 15.289062 39.082031 15.152344 C 39.34375 14.839844 39.617188 14.574219 39.90625 14.355469 C 38.542969 14.621094 37.203125 14.992188 35.90625 15.554688 C 35.890625 15.605469 35.882812 15.667969 35.867188 15.71875 C 35.222656 19.222656 34.558594 22.734375 34.148438 26.265625 C 32.46875 40.914062 31.609375 55.625 31.308594 70.355469 C 30.726562 98.710938 31.246094 127.042969 34.101562 155.285156 C 34.722656 161.441406 35.542969 167.582031 36.414062 173.710938 C 36.839844 176.726562 37.542969 177.226562 40.609375 177.613281 C 45.445312 178.222656 50.269531 178.894531 55.109375 179.402344 C 65.738281 180.503906 76.351562 181.792969 87.003906 182.488281 C 103.667969 183.582031 120.375 183.589844 137.0625 183.105469 C 141.085938 182.988281 145.105469 182.589844 149.09375 182.035156 C 149.449219 181.980469 149.804688 181.90625 150.160156 181.808594 C 151.457031 179.214844 152.242188 176.402344 152.894531 173.582031 C 152.636719 173.535156 152.378906 173.476562 152.113281 173.421875 Z M 110.511719 114.269531 C 110.183594 120.046875 109.03125 125.785156 108.183594 131.53125 C 108.039062 132.539062 107.660156 133.527344 107.269531 134.472656 C 106.335938 136.710938 104.714844 138.160156 102.238281 138.445312 C 95.78125 139.183594 89.335938 139.320312 82.925781 138.039062 C 82.019531 137.855469 81.148438 137.460938 80.277344 137.121094 C 78.269531 136.339844 76.921875 134.914062 76.835938 132.738281 C 76.683594 128.984375 75.230469 125.730469 73.570312 122.449219 C 71.519531 118.386719 70.65625 113.90625 70.3125 109.421875 C 69.828125 103.085938 69.351562 96.6875 71.550781 90.332031 C 70.15625 88.742188 68.707031 87.15625 67.328125 85.511719 C 63.472656 80.917969 59.4375 76.441406 55.859375 71.644531 C 51.359375 65.609375 52.09375 66.199219 55.367188 61.113281 C 57.335938 58.050781 59.648438 55.199219 61.816406 52.257812 C 62.519531 51.300781 63.40625 50.753906 64.679688 50.839844 C 70.753906 51.234375 76.828125 51.550781 82.898438 51.953125 C 85.175781 52.105469 86.851562 53.195312 88.078125 55.238281 C 89.664062 57.882812 91.527344 60.371094 93.433594 63.175781 C 94.230469 63.175781 95.148438 63.136719 96.0625 63.183594 C 99.804688 63.371094 103.546875 63.613281 107.289062 63.773438 C 108.78125 63.835938 109.425781 64.425781 109.539062 65.972656 C 110.023438 72.984375 110.941406 79.992188 111.070312 87.003906 C 111.222656 96.070312 111.023438 105.191406 110.511719 114.269531 Z M 96.789062 68.253906 C 96.132812 67.230469 95.503906 66.246094 94.527344 64.722656 C 99.269531 65.101562 103.410156 65.433594 107.78125 65.789062 C 108.167969 69.839844 108.652344 73.644531 108.882812 77.464844 C 109.652344 90.796875 109.691406 104.132812 108.289062 117.414062 C 107.722656 122.804688 106.480469 128.128906 105.601562 133.496094 C 105.367188 134.90625 104.601562 135.703125 103.273438 135.945312 C 101.527344 136.261719 99.769531 136.574219 98.003906 136.71875 C 92.835938 137.144531 87.675781 137.027344 82.625 135.785156 C 79.414062 134.996094 78.675781 133.964844 78.625 130.84375 C 79.875 131.59375 80.957031 132.539062 82.222656 132.925781 C 84.085938 133.496094 86.070312 133.941406 88.003906 133.957031 C 92.214844 133.980469 96.425781 133.800781 100.632812 133.496094 C 102.789062 133.34375 103.511719 132.503906 103.875 130.28125 C 106.523438 114.207031 107.691406 98.042969 106.882812 81.757812 C 106.714844 78.382812 106.433594 75.015625 106.109375 71.652344 C 105.867188 69.15625 105.011719 68.421875 102.511719 68.300781 C 101.570312 68.253906 100.632812 68.261719 99.699219 68.253906 C 98.761719 68.246094 97.828125 68.253906 96.789062 68.253906 Z M 96.789062 68.253906 " fill-opacity="1" fill-rule="nonzero"/><path fill="#a7a9ac" d="M 97.996094 127.515625 C 97.261719 125.695312 96.464844 123.859375 96.054688 121.949219 C 94.054688 112.578125 94.117188 103.125 95.296875 93.667969 C 95.511719 91.949219 95.253906 90.726562 94.109375 89.355469 C 88.957031 83.152344 83.933594 76.828125 78.914062 70.523438 C 78.269531 69.71875 77.65625 69.375 76.578125 69.375 C 73.867188 69.363281 71.15625 69.179688 68.449219 68.960938 C 64.359375 68.617188 60.285156 68.1875 55.867188 67.761719 C 56.414062 68.597656 56.753906 69.234375 57.207031 69.777344 C 61.9375 75.601562 66.671875 81.425781 71.457031 87.203125 C 72.800781 88.816406 73.3125 90.484375 73.035156 92.628906 C 72.0625 100.015625 71.914062 107.40625 73.457031 114.753906 C 74.519531 119.78125 76.375 124.449219 79.625 128.476562 C 80.691406 129.796875 81.90625 131.015625 83.691406 131.296875 C 89.351562 132.199219 95.003906 132.246094 100.746094 131.394531 C 100.011719 130.507812 99.410156 129.507812 98.925781 128.46875 C 98.546875 128.171875 98.148438 127.894531 97.996094 127.515625 Z M 92.238281 91.949219 C 89.535156 91.976562 86.820312 91.933594 84.117188 91.902344 C 82.535156 91.878906 80.933594 91.917969 79.359375 91.726562 C 78.335938 91.605469 77.042969 91.757812 76.433594 90.210938 C 78.828125 89.378906 91.253906 89.871094 93.625 90.824219 C 93.851562 92.039062 92.898438 91.941406 92.238281 91.949219 Z M 55.164062 65.289062 C 56.269531 63.5625 57.238281 61.992188 58.261719 60.453125 C 59.609375 58.421875 61.042969 56.449219 62.351562 54.402344 C 63.027344 53.347656 63.816406 52.902344 65.117188 52.960938 C 71.191406 53.25 77.277344 53.441406 83.519531 53.667969 C 83.488281 54.199219 83.59375 54.675781 83.425781 55.039062 C 81.796875 58.722656 80.101562 62.371094 78.480469 66.0625 C 77.941406 67.285156 77.132812 67.679688 75.828125 67.550781 C 69.769531 66.972656 63.707031 66.464844 57.648438 65.902344 C 56.914062 65.835938 56.199219 65.554688 55.164062 65.289062 Z M 103.132812 70.613281 C 102.328125 71.605469 101.539062 72.578125 100.59375 73.742188 C 99.933594 72.828125 99.269531 71.902344 98.34375 70.613281 C 100.253906 70.613281 101.738281 70.613281 103.132812 70.613281 Z M 103.132812 70.613281 " fill-opacity="1" fill-rule="nonzero"/></svg>